<svg id="Head_" data-name="Head@" xmlns="http://www.w3.org/2000/svg" viewBox="0 0 400 400"><g id="Mouth_" data-name="Mouth "><path id="Face" d="M193.88,255.94c13.7-.68,26-8.59,36.16-17.83,7.5-6.83,14.36-14.78,17.73-24.36,2-5.85,2.73-12.08,3.27-18.26a481.55,481.55,0,0,0,1.4-61.6c-.39-9.49-1.09-19.06-3.84-28.15S240.88,88,233.26,82.3s-18.09-7.93-26.9-4.39c.11-.22.95-.94,1.06-1.15-4.53.54-11,1.73-15.58,2.28-16.26,2-19.4,2.31-31.84,13-8.83,7.55-13.5,16.66-16,28s-8.62,18.4-8,30c.31,5.81-2.79,16.46-1,22,1.39,4.31.36,11.78,2,16,2.58,6.64,2,14.12,4.24,20.88C149.1,232.41,169.5,251.35,193.88,255.94Z" style="fill:#e5997a"/><path id="CheekShadowR" d="M245.26,100.12a54.37,54.37,0,0,1,1.57,11.21l2,28.74a25.66,25.66,0,0,1-.28,8.06c-1,4.05-4,7.4-5,11.44s0,8.44.75,12.62a103.37,103.37,0,0,1-4.3,53.47,51.08,51.08,0,0,0,12-27.13c1-9.53.87-17.19,1-29.53.23-19.84,1.66-40.46-4.52-59.32-2-6.23-4.8-12.37-5.15-18.93" style="fill:#db826a"/><path id="CheekShadowL" d="M143.26,108a73.51,73.51,0,0,0-1.12,11.08l-1.44,28.38a35.09,35.09,0,0,0,.2,8c.73,4,2.83,7.3,3.57,11.29s.07,8.35-.54,12.47C141,199,144,213,152,229c-4.6-7.54-12.78-14-13.54-23.8-.72-9.41-3.37-18-3.47-30.2a241.14,241.14,0,0,1,6-57.55c1.46-6.16,3.43-12.22,3.68-18.7" style="fill:#db826a"/><path id="CheekShineR" d="M240.47,222.8a119.38,119.38,0,0,1-27,24.78c7.86-1.77,14.19-7.43,19.94-13.08,4.54-4.45,10.35-10.25,11-17C242.83,218.8,241.75,221.2,240.47,222.8Z" style="fill:#f7b29a"/><path id="CheekShineL" d="M150.48,222.8a111.31,111.31,0,0,0,24,24.78c-7-1.77-12.61-7.43-17.72-13.08-4-4.45-9.2-10.25-9.75-17C148.38,218.8,149.34,221.2,150.48,222.8Z" style="fill:#f7b29a"/><path id="InsideMouth" d="M219.44,211.47s-2.2,3-23.11,4.39c-16.33,1.12-25.26-5.51-25.26-5.51s7.56,15.71,12.89,19.5c5.12,3.65,16.3,3.87,23.7.67C215.29,227.23,219.44,211.47,219.44,211.47Z" style="fill:#c47474"/><path id="Tongue" d="M202.36,231.12a7.76,7.76,0,0,0,4.35-2.24c1.17-1.19,1.95-3,1.28-4.54-.79-1.83-3.19-2.34-5.16-2s-3.84,1.21-5.84,1.22c-2.92,0-5.82-1.88-8.6-1a4.53,4.53,0,0,0-2.94,5.69,4.73,4.73,0,0,0,.44,1,5.09,5.09,0,0,0,2.21,2.1c2.86,1.25,5,.85,8.51.73.89,0,4,.32,4.85,0a5.47,5.47,0,0,0,3-2" style="fill:#9e3838"/><path id="UpperTeeth" d="M178,216.81a24,24,0,0,0,7.15,1,178.34,178.34,0,0,0,25.32-.44c1.5-.14,3.12,0,4.3-.7s3.15-3.13,2.22-4c-9,0-18.52.73-27.55.78-2.24,0-4.48,0-6.73,0-1.41,0-4.68-.06-6.34-.22C174,213,176.74,216.35,178,216.81Z" style="fill:#fff"/><path id="LowerTeeth" d="M182.89,227.86a19.17,19.17,0,0,0,5.05.65,140.07,140.07,0,0,0,17.86-.28,8.25,8.25,0,0,0,3-.44c.84-.45,2.22-2,1.57-2.55-6.37,0-13.06.46-19.43.49h-4.75c-1,0-3.3,0-4.47-.14C180.08,225.42,182,227.57,182.89,227.86Z" style="fill:#fff"/><path id="LowerLip" d="M171.07,210.35c5.05,7.57,5.54,9.53,18.18,11.61,5.83,1,7.77.84,13.58.37a21.77,21.77,0,0,0,17.8-12.54c-2,3.68-1.61,8.56-8.51,17.65-1.57,2.07-6.93,4.84-8.12,5a56,56,0,0,1-15.4-.37,21.2,21.2,0,0,1-9.06-5.06C175.45,222.63,171.46,214.61,171.07,210.35Z" style="fill:#d66ba9"/><path id="UpperLip" d="M220.63,209.79c-4.65,5.57-14.69,0-15.72-.09-4.22-.3-8,2.91-10.77,1.52-3.62-1.82-6.54-2-7.55-1.65-11.07,3.82-14,1.93-15.52.78-.13-.1,5.51,3.39,9.13,4.4s8.29.81,12,1c5.1.21,16.34.76,21.29-1.31C216.13,213.29,219.26,212.74,220.63,209.79Z" style="fill:#c65d90"/><path id="LipWrinkleL" d="M174.27,209.74a2.15,2.15,0,0,0-2.89.87,4.29,4.29,0,0,0-.31,1.74l-.14,4.09a9,9,0,0,1-1.25-6c.19-1.3,1-2.77,2.28-2.78,1.12,0,1.94,1.08,2.33,2.13" style="fill:#db826a"/><path id="LipWrinkleR" d="M215.65,209.74a3.17,3.17,0,0,1,3.69.87,3.42,3.42,0,0,1,.39,1.74l.18,4.09a7.4,7.4,0,0,0,1.6-6,3.19,3.19,0,0,0-2.91-2.78,3.41,3.41,0,0,0-3,2.13" style="fill:#db826a"/><path id="ChinShadow" d="M194.45,238.93a32.73,32.73,0,0,0,7.13-.32,18,18,0,0,0,3.85-.75c.31-.11.6-.62.27-.67a21.18,21.18,0,0,1-5,5.3,7.18,7.18,0,0,1-7,.83,10.39,10.39,0,0,1-2.93-2.51c-.86-1-2.72-2.27-2.07-3.7C190.66,237.76,192.31,238.72,194.45,238.93Z" style="fill:#db826a"/></g></svg>