<svg id="HeadSmallE" xmlns="http://www.w3.org/2000/svg" viewBox="0 0 400 400"><g id="MouthSmallE"><path id="Face" d="M193.88,255.94c13.7-.68,26-8.59,36.16-17.83,7.5-6.83,14.36-14.78,17.73-24.36,2-5.85,2.73-12.08,3.27-18.26a481.55,481.55,0,0,0,1.4-61.6c-.39-9.49-1.09-19.06-3.84-28.15S240.88,88,233.26,82.3s-18.09-7.93-26.9-4.39c.11-.22.95-.94,1.06-1.15-4.53.54-11,1.73-15.58,2.28-16.26,2-19.4,2.31-31.84,13-8.83,7.55-13.5,16.66-16,28s-8.62,18.4-8,30c.31,5.81-2.79,16.46-1,22,1.39,4.31.36,11.78,2,16,2.58,6.64,2,14.12,4.24,20.88C149.1,232.41,169.5,251.35,193.88,255.94Z" style="fill:#e5997a"/><path id="CheekShadowR" d="M245.26,100.12a54.37,54.37,0,0,1,1.57,11.21l2,28.74a25.66,25.66,0,0,1-.28,8.06c-1,4.05-4,7.4-5,11.44s0,8.44.75,12.62a103.37,103.37,0,0,1-4.3,53.47,51.08,51.08,0,0,0,12-27.13c1-9.53.87-17.19,1-29.53.23-19.84,1.66-40.46-4.52-59.32-2-6.23-4.8-12.37-5.15-18.93" style="fill:#db826a"/><path id="CheekShadowL" d="M143.26,108a73.51,73.51,0,0,0-1.12,11.08l-1.44,28.38a35.09,35.09,0,0,0,.2,8c.73,4,2.83,7.3,3.57,11.29s.07,8.35-.54,12.47C141,199,144,213,152,229c-4.6-7.54-12.78-14-13.54-23.8-.72-9.41-3.37-18-3.47-30.2a241.14,241.14,0,0,1,6-57.55c1.46-6.16,3.43-12.22,3.68-18.7" style="fill:#db826a"/><path id="CheekShineR" d="M240.47,222.8a119.38,119.38,0,0,1-27,24.78c7.86-1.77,14.19-7.43,19.94-13.08,4.54-4.45,10.35-10.25,11-17C242.83,218.8,241.75,221.2,240.47,222.8Z" style="fill:#f7b29a"/><path id="CheekShineL" d="M150.48,222.8a111.31,111.31,0,0,0,24,24.78c-7-1.77-12.61-7.43-17.72-13.08-4-4.45-9.2-10.25-9.75-17C148.38,218.8,149.34,221.2,150.48,222.8Z" style="fill:#f7b29a"/><path id="InsideMouth" d="M222.41,209.24s-14.11,7.44-27.33,7.58c-16.37.18-25-7.91-25-7.91s4.83,16.32,11,18.94c5.8,2.45,17.4,5.56,24.69,2.11C213.9,226.16,222.41,209.24,222.41,209.24Z" style="fill:#c47474"/><path id="Tongue" d="M201.86,231.12a7.76,7.76,0,0,0,4.35-2.24c1.17-1.19,1.95-3,1.28-4.54-.79-1.83-3.19-2.34-5.16-2s-3.84,1.21-5.84,1.22c-2.92,0-5.82-1.88-8.6-1a4.53,4.53,0,0,0-2.94,5.69,4.73,4.73,0,0,0,.44,1c.53.88,1.76,1,2.71,1.38,2.19.89,4.49.57,8,.44.89,0,4,.18,4.85-.14,1.48-.58,2,.35,3-.88" style="fill:#9e3838"/><path id="UpperTeeth" d="M177.51,217.36a18.47,18.47,0,0,0,7.15,1.39,132.25,132.25,0,0,0,25.32-.6c1.5-.19,3.12,0,4.3-1s3.15-4.24,2.22-5.44c-9,.06-18.52,1-27.55,1-2.24,0-4.48,0-6.73-.06-1.41-.07-4.68-.08-6.34-.3C173.52,212.15,176.24,216.74,177.51,217.36Z" style="fill:#fff"/><path id="LowerTeeth" d="M182.37,226.92a12.68,12.68,0,0,0,5,1.1,92,92,0,0,0,17.87-.13c1.06-.13,2.2,0,3-.64s2.27-3.06,1.64-3.94c-6.44-.06-13,.5-19.45.44-1.58,0-3.17,0-4.75-.13-1-.06-3.3-.12-4.46-.29C179.62,223.08,181.48,226.45,182.37,226.92Z" style="fill:#fff"/><path id="LowerLip" d="M169.43,208.13c4.32,6.67,6.51,12.87,19.14,15,5.83,1,8.16,1.34,14,.87,10-.81,17.58-11.2,20.59-15.83a121.24,121.24,0,0,1-11.69,18.43c-1.57,2.08-6.92,4.85-8.11,5a56,56,0,0,1-15.41-.38c-2.32-.48-6.56-2.93-9.06-5.05C174.7,222.59,171.22,212.49,169.43,208.13Z" style="fill:#d66ba9"/><path id="UpperLip" d="M223.13,208.13c-4.65,5.57-17.69,2.64-18.72,2.57-4.22-.3-8,2.91-10.77,1.52-3.62-1.82-6.54-2-7.55-1.65-11.07,3.82-15.12-1.28-16.66-2.44-.13-.1,4.72,6.84,10.27,7.62,3.72.53,8.29.81,12,1,5.1.21,16.34.76,21.29-1.31C215.63,214.29,221.76,211.09,223.13,208.13Z" style="fill:#c65d90"/><path id="LipWrinkleL" d="M171.77,208.74a2.15,2.15,0,0,0-2.89.87,4.29,4.29,0,0,0-.31,1.74l-.14,4.09a9,9,0,0,1-1.25-6c.19-1.3,1-2.77,2.28-2.78,1.12,0,1.94,1.08,2.33,2.13" style="fill:#db826a"/><path id="LipWrinkleR" d="M220.15,208.74a3.17,3.17,0,0,1,3.69.87,3.42,3.42,0,0,1,.39,1.74l.18,4.09a7.4,7.4,0,0,0,1.6-6,3.19,3.19,0,0,0-2.91-2.78,3.41,3.41,0,0,0-3,2.13" style="fill:#db826a"/><path id="ChinShadow" d="M194,237.93a32.73,32.73,0,0,0,7.13-.32,18,18,0,0,0,3.85-.75c.31-.11.6-.62.27-.67a21.18,21.18,0,0,1-5,5.3,7.18,7.18,0,0,1-7,.83,10.39,10.39,0,0,1-2.93-2.51c-.86-1-2.72-2.27-2.07-3.7C190.16,236.76,191.81,237.72,194,237.93Z" style="fill:#db826a"/></g></svg>