<svg id="HeadK" xmlns="http://www.w3.org/2000/svg" viewBox="0 0 400 400"><g id="MouthK"><path id="Face" d="M193.88,255.94c13.7-.68,26-8.59,36.16-17.83,7.5-6.83,14.36-14.78,17.73-24.36,2-5.85,2.73-12.08,3.27-18.26a481.55,481.55,0,0,0,1.4-61.6c-.39-9.49-1.09-19.06-3.84-28.15S240.88,88,233.26,82.3s-18.09-7.93-26.9-4.39c.11-.22.95-.94,1.06-1.15-4.53.54-11,1.73-15.58,2.28-16.26,2-19.4,2.31-31.84,13-8.83,7.55-13.5,16.66-16,28s-8.62,18.4-8,30c.31,5.81-2.79,16.46-1,22,1.39,4.31.36,11.78,2,16,2.58,6.64,2,14.12,4.24,20.88C149.1,232.41,169.5,251.35,193.88,255.94Z" style="fill:#e5997a"/><path id="CheekShadowR" d="M245.26,100.12a54.37,54.37,0,0,1,1.57,11.21l2,28.74a25.66,25.66,0,0,1-.28,8.06c-1,4.05-4,7.4-5,11.44s0,8.44.75,12.62a103.37,103.37,0,0,1-4.3,53.47,51.08,51.08,0,0,0,12-27.13c1-9.53.87-17.19,1-29.53.23-19.84,1.66-40.46-4.52-59.32-2-6.23-4.8-12.37-5.15-18.93" style="fill:#db826a"/><path id="CheekShadowL" d="M143.26,108a73.51,73.51,0,0,0-1.12,11.08l-1.44,28.38a35.09,35.09,0,0,0,.2,8c.73,4,2.83,7.3,3.57,11.29s.07,8.35-.54,12.47C141,199,144,213,152,229c-4.6-7.54-12.78-14-13.54-23.8-.72-9.41-3.37-18-3.47-30.2a241.14,241.14,0,0,1,6-57.55c1.46-6.16,3.43-12.22,3.68-18.7" style="fill:#db826a"/><path id="CheekShineR" d="M240.47,222.8a119.38,119.38,0,0,1-27,24.78c7.86-1.77,14.19-7.43,19.94-13.08,4.54-4.45,10.35-10.25,11-17C242.83,218.8,241.75,221.2,240.47,222.8Z" style="fill:#f7b29a"/><path id="CheekShineL" d="M150.48,222.8a111.31,111.31,0,0,0,24,24.78c-7-1.77-12.61-7.43-17.72-13.08-4-4.45-9.2-10.25-9.75-17C148.38,218.8,149.34,221.2,150.48,222.8Z" style="fill:#f7b29a"/><path id="InsideMouth" d="M219.65,210.84c-3.61,4-12.1,4.45-24.63,4.58-16.19.16-24-4.64-24-4.64s6.08,17.33,12.36,19.28c5.84,1.81,16,1.94,23.62-.18C215.44,227.53,219.65,210.84,219.65,210.84Z" style="fill:#c47474"/><path id="Tongue" d="M201.54,228.17a7.92,7.92,0,0,0,4.35-2.24c1.18-1.19,2-3,1.29-4.54-.8-1.83-3.2-2.34-5.17-2s-3.84,1.22-5.83,1.22c-2.92,0-5.82-1.87-8.6-1a4.52,4.52,0,0,0-2.5,6.67,6.57,6.57,0,0,0,2.2,2.09,17.8,17.8,0,0,0,10.17,2.23,8,8,0,0,0,2.65-.43,9.18,9.18,0,0,0,3.53-3.1" style="fill:#9e3838"/><path id="UpperTeeth" d="M176.72,215.94c2.19,1.07,5,1.59,7.28,2.41,6.21,2.23,19.06,1.24,28.19-.89,1.47-.34,1.31-4.09,2.59-4.23,1.5-.18-5.13,1.35-6.05.15-9,.06-12.27.34-20.44-1-2.21-.36-4.48,0-6.73-.07-1.41-.06,1.66.21,0,0C179.19,212,175.45,215.32,176.72,215.94Z" style="fill:#fff"/><path id="LowerTeeth" d="M179.87,225.37a12.2,12.2,0,0,0,6.21,1.67c7.61.56,14.43.66,22-.72,1.3-.23,2.71,0,3.73-1.14s2.73-5.12,1.93-6.56c-7.68.44-13.5,1.49-23.92,1.27-1.95,0-3.9,0-5.85-.08-1.23-.08-4-.54-5.46-.8C176.45,218.64,178.77,224.62,179.87,225.37Z" style="fill:#fff"/><path id="LowerLip" d="M171,210.78c4.26,7,10.09,10.76,17.44,14.23,5.34,2.52,9.23,1.75,14.75-.11,8.8-3,12.35-7.06,16.46-14.06-2,3.68.16,8.47-6.74,17.56-1.57,2.07-10.73,5.3-11.91,5.45a37.83,37.83,0,0,1-12.68-.83c-2.33-.48-7.38-3.37-9.88-5.49C174.28,224,172.79,215.14,171,210.78Z" style="fill:#d66ba9"/><path id="UpperLip" d="M219.8,210.32c-4.64,5.57-15-.48-16-.56-4.22-.3-7.72,3.9-10.48,2.51-3.62-1.82-5.62-2.78-6.62-2.44-11.08,3.82-14.52,1.65-16.06.49-.13-.1,5.08,6.63,8.7,7.64s11.6-2.17,15.32-2c5.1.21,12.27,3.55,17.71,1.78C215,216.89,218.43,213.28,219.8,210.32Z" style="fill:#c65d90"/><path id="LipWrinkleL" d="M173.83,210.41a2.16,2.16,0,0,0-2.89.87,4.29,4.29,0,0,0-.31,1.74l-.14,4.09a9,9,0,0,1-1.25-6c.19-1.3,1-2.77,2.28-2.78,1.12,0,1.94,1.08,2.33,2.13" style="fill:#db826a"/><path id="LipWrinkleR" d="M216.09,210.41a3.17,3.17,0,0,1,3.69.87,3.42,3.42,0,0,1,.39,1.74l.18,4.09a7.4,7.4,0,0,0,1.6-6,3.19,3.19,0,0,0-2.91-2.78,3.43,3.43,0,0,0-3,2.13" style="fill:#db826a"/><path id="ChinShadow" d="M193.64,238.26a34,34,0,0,0,7.13-.33,18,18,0,0,0,3.85-.74c.31-.12.6-.62.27-.67a20.84,20.84,0,0,1-5,5.3,7.15,7.15,0,0,1-7,.83,10.39,10.39,0,0,1-2.93-2.51c-.87-1-2.72-2.27-2.07-3.71C189.85,237.09,191.49,238,193.64,238.26Z" style="fill:#db826a"/></g></svg>