<svg id="HeadSmallU1" xmlns="http://www.w3.org/2000/svg" viewBox="0 0 400 400"><g id="MouthSmallU1"><path id="Face" d="M193.88,255.94c13.7-.68,26-8.59,36.16-17.83,7.5-6.83,14.36-14.78,17.73-24.36,2-5.85,2.73-12.08,3.27-18.26a481.55,481.55,0,0,0,1.4-61.6c-.39-9.49-1.09-19.06-3.84-28.15S240.88,88,233.26,82.3s-18.09-7.93-26.9-4.39c.11-.22.95-.94,1.06-1.15-4.53.54-11,1.73-15.58,2.28-16.26,2-19.4,2.31-31.84,13-8.83,7.55-13.5,16.66-16,28s-8.62,18.4-8,30c.31,5.81-2.79,16.46-1,22,1.39,4.31.36,11.78,2,16,2.58,6.64,2,14.12,4.24,20.88C149.1,232.41,169.5,251.35,193.88,255.94Z" style="fill:#e5997a"/><path id="CheekShadowR" d="M245.26,100.12a54.37,54.37,0,0,1,1.57,11.21l2,28.74a25.66,25.66,0,0,1-.28,8.06c-1,4.05-4,7.4-5,11.44s0,8.44.75,12.62a103.37,103.37,0,0,1-4.3,53.47,51.08,51.08,0,0,0,12-27.13c1-9.53.87-17.19,1-29.53.23-19.84,1.66-40.46-4.52-59.32-2-6.23-4.8-12.37-5.15-18.93" style="fill:#db826a"/><path id="CheekShadowL" d="M143.26,108a73.51,73.51,0,0,0-1.12,11.08l-1.44,28.38a35.09,35.09,0,0,0,.2,8c.73,4,2.83,7.3,3.57,11.29s.07,8.35-.54,12.47C141,199,144,213,152,229c-4.6-7.54-12.78-14-13.54-23.8-.72-9.41-3.37-18-3.47-30.2a241.14,241.14,0,0,1,6-57.55c1.46-6.16,3.43-12.22,3.68-18.7" style="fill:#db826a"/><path id="CheekShineR" d="M240.47,222.8a119.38,119.38,0,0,1-27,24.78c7.86-1.77,14.19-7.43,19.94-13.08,4.54-4.45,10.35-10.25,11-17C242.83,218.8,241.75,221.2,240.47,222.8Z" style="fill:#f7b29a"/><path id="CheekShineL" d="M150.48,222.8a111.31,111.31,0,0,0,24,24.78c-7-1.77-12.61-7.43-17.72-13.08-4-4.45-9.2-10.25-9.75-17C148.38,218.8,149.34,221.2,150.48,222.8Z" style="fill:#f7b29a"/><path id="InsideMouth" d="M215.54,214.27s-7.71.3-20.78.42c-16.19.15-19.69-.18-19.69-.18s2.66,10.05,9,12c5.84,1.81,14.54,2.77,22.14.65C214.62,224.8,215.54,214.27,215.54,214.27Z" style="fill:#c47474"/><path id="Tongue" d="M201.84,225.79a8.59,8.59,0,0,0,4.35-1.81c1.17-1,1.95-2.45,1.29-3.69-.8-1.48-3.2-1.89-5.17-1.63s-3.84,1-5.83,1c-2.92,0-5.83-1.52-8.61-.8a4.38,4.38,0,0,0-2.86,2.21,3.13,3.13,0,0,0,.36,3.2,6.13,6.13,0,0,0,2.21,1.7,21.26,21.26,0,0,0,10.16,1.81,10.31,10.31,0,0,0,2.65-.35,8.83,8.83,0,0,0,3.54-2.52" style="fill:#9e3838"/><path id="UpperTeeth" d="M176.54,217.07a18.3,18.3,0,0,0,7.16,1.39,143.44,143.44,0,0,0,26.29-.72,8.38,8.38,0,0,0,4.25-1.41c1.18-.94-1.7-.5-2.63-1.7-9,.06-14.05-1.2-23.08-1.13-2.24,0-3.24.21-5.48.11-1.41-.06-4.2,1.23-5.86,1C174.82,214.32,175.27,216.45,176.54,217.07Z" style="fill:#fff"/><path id="LowerTeeth" d="M183,223.21a9.06,9.06,0,0,0,5.25,1.68c6.42.56,12.18.66,18.56-.72,1.1-.24,2.29,0,3.15-1.14s2.48-4.75,1.81-6.2c-6.49.45-11.58,1.13-20.38.9-1.64,0-3.29,0-4.93-.08a42,42,0,0,1-4.76-.22C180,217.06,182.08,222.47,183,223.21Z" style="fill:#fff"/><path id="LowerLip" d="M173.78,211.18c8,2.86,9.42,5.56,16.77,9,5.34,2.52,4.67,1.21,10.19-.65,8.8-3,11.18-4.14,17.89-8.41-2,3.68-1,5.8-7.87,14.88-1.57,2.07-8.17,3-9.35,3.19a41.18,41.18,0,0,1-13.2-.32c-2.32-.49-6.21-2.9-8.71-5C175.34,220.34,175.57,215.54,173.78,211.18Z" style="fill:#d66ba9"/><path id="UpperLip" d="M218.78,210.69c-4.65,5.56-16.13-1.85-17.16-1.92-4.21-.3-5.43,4.1-8.2,2.72-3.62-1.82-3.88-3.08-4.89-2.73-11.08,3.82-13.52,2.21-15.43,2.39-.92.08,9,5.24,12.61,6.25s5.33-2.86,9-2.71c5.1.21,6.67,5.1,12.11,3.33C209.44,217.19,217.41,213.64,218.78,210.69Z" style="fill:#c65d90"/><path id="LipWrinkleL" d="M176.09,210.28a2.15,2.15,0,0,0-2.89.87,4.29,4.29,0,0,0-.31,1.74l-.14,4.09a9,9,0,0,1-1.25-6c.19-1.3,1-2.77,2.28-2.78,1.12,0,1.94,1.08,2.33,2.13" style="fill:#db826a"/><path id="LipWrinkleR" d="M215.39,210.19a3.18,3.18,0,0,1,3.69.88,3.47,3.47,0,0,1,.4,1.73l.17,4.09a7.36,7.36,0,0,0,1.6-6,3.19,3.19,0,0,0-2.91-2.78,3.41,3.41,0,0,0-3,2.13" style="fill:#db826a"/><path id="ChinShadow" d="M193.39,234.48a34,34,0,0,0,7.13-.33,16.84,16.84,0,0,0,3.84-.75c.32-.11.6-.61.28-.66a21.18,21.18,0,0,1-5,5.3,7.24,7.24,0,0,1-7,.83,10.49,10.49,0,0,1-2.92-2.51c-.87-1-2.73-2.27-2.08-3.71C189.59,233.31,191.24,234.26,193.39,234.48Z" style="fill:#db826a"/></g></svg>