<svg id="HeadR" xmlns="http://www.w3.org/2000/svg" viewBox="0 0 400 400"><g id="MouthR"><path id="Face" d="M193.88,255.94c13.7-.68,26-8.59,36.16-17.83,7.5-6.83,14.36-14.78,17.73-24.36,2-5.85,2.73-12.08,3.27-18.26a481.55,481.55,0,0,0,1.4-61.6c-.39-9.49-1.09-19.06-3.84-28.15S240.88,88,233.26,82.3s-18.09-7.93-26.9-4.39c.11-.22.95-.94,1.06-1.15-4.53.54-11,1.73-15.58,2.28-16.26,2-19.4,2.31-31.84,13-8.83,7.55-13.5,16.66-16,28s-8.62,18.4-8,30c.31,5.81-2.79,16.46-1,22,1.39,4.31.36,11.78,2,16,2.58,6.64,2,14.12,4.24,20.88C149.1,232.41,169.5,251.35,193.88,255.94Z" style="fill:#e5997a"/><path id="CheekShadowR" d="M245.26,100.12a54.37,54.37,0,0,1,1.57,11.21l2,28.74a25.66,25.66,0,0,1-.28,8.06c-1,4.05-4,7.4-5,11.44s0,8.44.75,12.62a103.37,103.37,0,0,1-4.3,53.47,51.08,51.08,0,0,0,12-27.13c1-9.53.87-17.19,1-29.53.23-19.84,1.66-40.46-4.52-59.32-2-6.23-4.8-12.37-5.15-18.93" style="fill:#db826a"/><path id="CheekShadowL" d="M143.26,108a73.51,73.51,0,0,0-1.12,11.08l-1.44,28.38a35.09,35.09,0,0,0,.2,8c.73,4,2.83,7.3,3.57,11.29s.07,8.35-.54,12.47C141,199,144,213,152,229c-4.6-7.54-12.78-14-13.54-23.8-.72-9.41-3.37-18-3.47-30.2a241.14,241.14,0,0,1,6-57.55c1.46-6.16,3.43-12.22,3.68-18.7" style="fill:#db826a"/><path id="CheekShineR" d="M240.47,222.8a119.38,119.38,0,0,1-27,24.78c7.86-1.77,14.19-7.43,19.94-13.08,4.54-4.45,10.35-10.25,11-17C242.83,218.8,241.75,221.2,240.47,222.8Z" style="fill:#f7b29a"/><path id="CheekShineL" d="M150.48,222.8a111.31,111.31,0,0,0,24,24.78c-7-1.77-12.61-7.43-17.72-13.08-4-4.45-9.2-10.25-9.75-17C148.38,218.8,149.34,221.2,150.48,222.8Z" style="fill:#f7b29a"/><path id="InsideMouth" d="M215.09,212.77s-7.71.3-20.78.42c-16.19.15-20,.41-20,.41s2,12.28,8.3,14.23c5.84,1.81,16,1.94,23.62-.17C214.73,225.3,215.09,212.77,215.09,212.77Z" style="fill:#c47474"/><path id="Tongue" d="M201.17,226.41a7.92,7.92,0,0,0,4.35-2.24c1.17-1.2,1.95-3,1.29-4.55-.8-1.82-3.2-2.33-5.17-2s-3.84,1.21-5.84,1.22c-2.91,0-5.82-1.87-8.6-1a4.54,4.54,0,0,0-2.93,5.71,4.77,4.77,0,0,0,.43.95,6.63,6.63,0,0,0,2.21,2.1,17.77,17.77,0,0,0,10.16,2.23,8,8,0,0,0,2.65-.43,9.21,9.21,0,0,0,3.54-3.1" style="fill:#9e3838"/><path id="UpperTeeth" d="M175.87,214.88a37.31,37.31,0,0,0,7.15.66c8.77.22,17.59.2,26.3-.34a15.33,15.33,0,0,0,4.25-.67c1.18-.45-1.7-.24-2.63-.81-9,0-14.05-.56-23.08-.53-2.25,0-3.24.1-5.48.05-1.41,0-4.2.59-5.86.48C174.15,213.58,174.6,214.59,175.87,214.88Z" style="fill:#fff"/><path id="LowerTeeth" d="M182.34,222.15a9.1,9.1,0,0,0,5.24,1.68c6.43.56,12.19.66,18.57-.72,1.1-.24,2.29,0,3.15-1.15s2.48-4.75,1.81-6.19c-6.49.44-11.58,1.13-20.38.9-1.64,0-3.29,0-4.93-.08a44.49,44.49,0,0,1-4.76-.23C179.3,216,181.41,221.4,182.34,222.15Z" style="fill:#fff"/><path id="LowerLip" d="M172.34,210.54c8,2.86,9,8,16.4,11.43,5.34,2.52,8.16,1.46,13.69-.4,8.79-3,9-6.68,15.68-10.95-2,3.68,1.38,6.51-5.52,15.6-1.58,2.07-10.73,5.3-11.92,5.45a38.36,38.36,0,0,1-12.68-.83c-2.32-.48-7.38-3.37-9.87-5.49C174,221.81,174.13,214.9,172.34,210.54Z" style="fill:#d66ba9"/><path id="UpperLip" d="M218.11,210.62c-4.65,5.57-14.47-1.38-15.5-1.45-4.21-.3-7.1,3.64-9.86,2.25-3.62-1.82-5.54-2.35-6.54-2-11.08,3.82-11.87,1.48-13.78,1.66-.93.09,2.72,5,6.34,6s12.74-1.6,16.46-1.45c5.1.21,11.13,3,16.57,1.22A11.59,11.59,0,0,0,218.11,210.62Z" style="fill:#c65d90"/><path id="LipWrinkleL" d="M175.77,210.25a2.17,2.17,0,0,0-2.9.88,4.29,4.29,0,0,0-.31,1.74l-.14,4.09a9,9,0,0,1-1.25-6c.19-1.29,1-2.76,2.28-2.77,1.12,0,1.94,1.08,2.33,2.13" style="fill:#db826a"/><path id="LipWrinkleR" d="M213.72,210.8a3.17,3.17,0,0,1,3.69.87,3.38,3.38,0,0,1,.4,1.74l.17,4.09a7.4,7.4,0,0,0,1.6-6,3.18,3.18,0,0,0-2.91-2.77,3.39,3.39,0,0,0-3,2.13" style="fill:#db826a"/><path id="ChinShadow" d="M193.72,236.41a32.61,32.61,0,0,0,7.12-.32,18,18,0,0,0,3.85-.75c.31-.11.6-.61.28-.67a21.4,21.4,0,0,1-5,5.31,7.24,7.24,0,0,1-7,.83,10.57,10.57,0,0,1-2.93-2.52c-.86-1-2.72-2.27-2.07-3.7C189.92,235.24,191.57,236.2,193.72,236.41Z" style="fill:#db826a"/></g></svg>