<svg id="HeadS" xmlns="http://www.w3.org/2000/svg" viewBox="0 0 400 400"><g id="MouthS"><path id="Face" d="M193.88,255.94c13.7-.68,26-8.59,36.16-17.83,7.5-6.83,14.36-14.78,17.73-24.36,2-5.85,2.73-12.08,3.27-18.26a481.55,481.55,0,0,0,1.4-61.6c-.39-9.49-1.09-19.06-3.84-28.15S240.88,88,233.26,82.3s-18.09-7.93-26.9-4.39c.11-.22.95-.94,1.06-1.15-4.53.54-11,1.73-15.58,2.28-16.26,2-19.4,2.31-31.84,13-8.83,7.55-13.5,16.66-16,28s-8.62,18.4-8,30c.31,5.81-2.79,16.46-1,22,1.39,4.31.36,11.78,2,16,2.58,6.64,2,14.12,4.24,20.88C149.1,232.41,169.5,251.35,193.88,255.94Z" style="fill:#e5997a"/><path id="CheekShadowR" d="M245.26,100.12a54.37,54.37,0,0,1,1.57,11.21l2,28.74a25.66,25.66,0,0,1-.28,8.06c-1,4.05-4,7.4-5,11.44s0,8.44.75,12.62a103.37,103.37,0,0,1-4.3,53.47,51.08,51.08,0,0,0,12-27.13c1-9.53.87-17.19,1-29.53.23-19.84,1.66-40.46-4.52-59.32-2-6.23-4.8-12.37-5.15-18.93" style="fill:#db826a"/><path id="CheekShadowL" d="M143.26,108a73.51,73.51,0,0,0-1.12,11.08l-1.44,28.38a35.09,35.09,0,0,0,.2,8c.73,4,2.83,7.3,3.57,11.29s.07,8.35-.54,12.47C141,199,144,213,152,229c-4.6-7.54-12.78-14-13.54-23.8-.72-9.41-3.37-18-3.47-30.2a241.14,241.14,0,0,1,6-57.55c1.46-6.16,3.43-12.22,3.68-18.7" style="fill:#db826a"/><path id="CheekShineR" d="M240.47,222.8a119.38,119.38,0,0,1-27,24.78c7.86-1.77,14.19-7.43,19.94-13.08,4.54-4.45,10.35-10.25,11-17C242.83,218.8,241.75,221.2,240.47,222.8Z" style="fill:#f7b29a"/><path id="CheekShineL" d="M150.48,222.8a111.31,111.31,0,0,0,24,24.78c-7-1.77-12.61-7.43-17.72-13.08-4-4.45-9.2-10.25-9.75-17C148.38,218.8,149.34,221.2,150.48,222.8Z" style="fill:#f7b29a"/><path id="InsideMouth" d="M215.32,214.33s-7.6,1.52-21.38,1.67c-17.07.19-18.51-1.67-18.51-1.67s-1,8.18,5.63,10.59c6.16,2.25,16.9,2.42,24.91-.21C214.89,221.78,215.32,214.33,215.32,214.33Z" style="fill:#c47474"/><path id="Tongue" d="M201.42,228.82a7.82,7.82,0,0,0,4.35-2.24c1.17-1.19,1.95-3,1.28-4.54-.79-1.83-3.2-2.34-5.16-2s-3.85,1.21-5.84,1.22c-2.92,0-5.82-1.88-8.6-1a4.53,4.53,0,0,0-2.94,5.69,4.73,4.73,0,0,0,.44,1,6.69,6.69,0,0,0,2.2,2.1,17.85,17.85,0,0,0,10.17,2.23,8.22,8.22,0,0,0,2.65-.43,9.26,9.26,0,0,0,3.53-3.1" style="fill:#9e3838"/><path id="UpperTeeth" d="M179.89,216.12a34.64,34.64,0,0,0,6.1.51c7.48.17,15,.15,22.43-.26a14.79,14.79,0,0,0,3.62-.52c1-.34,1.51-1,.72-1.45l-23.11.07h-5.74c-1.2,0-4,0-5.41-.11C176.48,214.23,178.81,215.9,179.89,216.12Z" style="fill:#fff"/><path id="LowerTeeth" d="M179.53,222.66a12.92,12.92,0,0,0,6.34,1.86c7.83.82,14.85,1.16,22.68.09,1.35-.19,2.79.09,3.88-1s3-4.9,2.21-6.34c-8.08-.21-16.6.58-24.68.38q-3,0-6-.29c-1.26-.12-4.18-.24-5.66-.54C176.17,216.4,178.42,221.89,179.53,222.66Z" style="fill:#fff"/><path id="LowerLip" d="M173.58,212.15c5.11,5.73,8.15,11.94,15.15,12.57,5.89.53,7.88.08,13.69-.39,10-.81,10.66-9.08,14-12.18-2,3.69,2.64,7.21-3.8,16.82-1.44,2.16-10.76,4-12,4.14a38.22,38.22,0,0,1-12.71-.55c-2.32-.49-7.31-2.34-9.81-4.46C174,224.56,176.08,216.17,173.58,212.15Z" style="fill:#d66ba9"/><path id="UpperLip" d="M216.38,212.15c-5.25,4.4-11.87-2.14-12.9-2.21-4.22-.3-8.81,3.58-10.59,2.21-2.77-2.12-6-2.32-7-2-11.08,3.82-10.77,3.13-12.31,2a9.85,9.85,0,0,0,5.47,4.22c3.62,1,11.67-1.54,15.39-1.43,3.87.11,13,3.14,17.91,1.07C215,214.91,215,215.11,216.38,212.15Z" style="fill:#c65d90"/><path id="LipWrinkleL" d="M176.21,212a2.15,2.15,0,0,0-2.89.87,4.13,4.13,0,0,0-.31,1.74l-.14,4.09a9,9,0,0,1-1.26-6c.2-1.3,1-2.77,2.29-2.78,1.12,0,1.93,1.08,2.32,2.13" style="fill:#db826a"/><path id="LipWrinkleR" d="M212.67,212a3.17,3.17,0,0,1,3.69.87,3.48,3.48,0,0,1,.4,1.74l.18,4.09a7.43,7.43,0,0,0,1.59-6,3.17,3.17,0,0,0-2.91-2.78,3.41,3.41,0,0,0-3,2.13" style="fill:#db826a"/><path id="ChinShadow" d="M193.31,239.75a32.73,32.73,0,0,0,7.13-.32,18,18,0,0,0,3.85-.75c.31-.11.6-.62.27-.67a20.84,20.84,0,0,1-5,5.3,7.16,7.16,0,0,1-6.95.83,10.39,10.39,0,0,1-2.93-2.51c-.87-1-2.72-2.27-2.07-3.7C189.52,238.58,191.16,239.54,193.31,239.75Z" style="fill:#db826a"/></g></svg>