<svg id="HeadSilent" xmlns="http://www.w3.org/2000/svg" viewBox="0 0 400 400"><g id="MouthSilent"><path id="Face" d="M193.88,255.94c13.7-.68,26-8.59,36.16-17.83,7.5-6.83,14.36-14.78,17.73-24.36,2-5.85,2.73-12.08,3.27-18.26a481.55,481.55,0,0,0,1.4-61.6c-.39-9.49-1.09-19.06-3.84-28.15S240.88,88,233.26,82.3s-18.09-7.93-26.9-4.39c.11-.22.95-.94,1.06-1.15-4.53.54-11,1.73-15.58,2.28-16.26,2-19.4,2.31-31.84,13-8.83,7.55-13.5,16.66-16,28s-8.62,18.4-8,30c.31,5.81-2.79,16.46-1,22,1.39,4.31.36,11.78,2,16,2.58,6.64,2,14.12,4.24,20.88C149.1,232.41,169.5,251.35,193.88,255.94Z" style="fill:#e5997a"/><path id="CheekShadowR" d="M245.26,100.12a54.37,54.37,0,0,1,1.57,11.21l2,28.74a25.66,25.66,0,0,1-.28,8.06c-1,4.05-4,7.4-5,11.44s0,8.44.75,12.62a103.37,103.37,0,0,1-4.3,53.47,51.08,51.08,0,0,0,12-27.13c1-9.53.87-17.19,1-29.53.23-19.84,1.66-40.46-4.52-59.32-2-6.23-4.8-12.37-5.15-18.93" style="fill:#db826a"/><path id="CheekShadowL" d="M143.26,108a73.51,73.51,0,0,0-1.12,11.08l-1.44,28.38a35.09,35.09,0,0,0,.2,8c.73,4,2.83,7.3,3.57,11.29s.07,8.35-.54,12.47C141,199,144,213,152,229c-4.6-7.54-12.78-14-13.54-23.8-.72-9.41-3.37-18-3.47-30.2a241.14,241.14,0,0,1,6-57.55c1.46-6.16,3.43-12.22,3.68-18.7" style="fill:#db826a"/><path id="CheekShineR" d="M240.47,222.8a119.38,119.38,0,0,1-27,24.78c7.86-1.77,14.19-7.43,19.94-13.08,4.54-4.45,10.35-10.25,11-17C242.83,218.8,241.75,221.2,240.47,222.8Z" style="fill:#f7b29a"/><path id="CheekShineL" d="M150.48,222.8a111.31,111.31,0,0,0,24,24.78c-7-1.77-12.61-7.43-17.72-13.08-4-4.45-9.2-10.25-9.75-17C148.38,218.8,149.34,221.2,150.48,222.8Z" style="fill:#f7b29a"/><path id="InsideMouth" d="M215.18,212.93a83.23,83.23,0,0,1-20,2.46c-14,.05-19.41-2.29-19.41-2.29a14.8,14.8,0,0,0,8.83,4.66,107.69,107.69,0,0,0,20.47,0C212.42,216.93,215.18,212.93,215.18,212.93Z" style="fill:#c47474"/><path id="Tongue" d="M201.9,224.24a9.15,9.15,0,0,0,4.35-1.64c1.17-.88,1.95-2.21,1.28-3.33-.79-1.34-3.2-1.71-5.16-1.47s-3.85.89-5.84.89c-2.92,0-5.82-1.37-8.6-.72a4.31,4.31,0,0,0-2.86,2,2.6,2.6,0,0,0,.36,2.88,6.17,6.17,0,0,0,2.2,1.54A23.55,23.55,0,0,0,197.8,226a10.34,10.34,0,0,0,2.65-.32,8.84,8.84,0,0,0,3.53-2.27" style="fill:#9e3838"/><path id="UpperTeeth" d="M178.34,216.36a25.53,25.53,0,0,0,7.16,1,205.92,205.92,0,0,0,26.29-.5,11.16,11.16,0,0,0,4.25-1c1.18-.66,1.76-2,.84-2.8l-27.09.14h-6.73c-1.42,0-4.68-.06-6.34-.21C174.35,212.73,177.08,215.93,178.34,216.36Z" style="fill:#fff"/><path id="LowerTeeth" d="M182.88,223a12.36,12.36,0,0,0,4.84.95,89.64,89.64,0,0,0,17.1-.41c1-.13,2.11,0,2.91-.64s2.12-2.89,1.5-3.7c-6.1,0-12.51.67-18.61.71h-4.55a42.43,42.43,0,0,1-4.28-.2C180.19,219.43,182,222.55,182.88,223Z" style="fill:#fff"/><path id="LowerLip" d="M172.67,210.15c5.85,4.46,10.58,5.38,17.52,5.85,5.8.4,7.3.66,13.06-.26s12.62-1.33,16.2-4.78c-2,3.68-4.87,8.54-8.46,11.34-.87.68-8.54,5.14-9.73,5.29-4.24.55-8.44-.23-12.67-.83-1.2-.16-8-3.87-10.12-6.35C175.45,216.89,174.45,214.51,172.67,210.15Z" style="fill:#d66ba9"/><path id="UpperLip" d="M220.62,209.5c-4.64,5.57-15.35.94-16.37.87-4.22-.3-8,2.91-10.77,1.52-3.62-1.82-6.55-2-7.55-1.65-11.08,3.82-12.89.17-14.43-1-.13-.1,4.42,5.15,8,6.16s8.29.81,12,1c5.11.21,16.35.76,21.3-1.31C215.47,214,219.25,212.46,220.62,209.5Z" style="fill:#c65d90"/><path id="LipWrinkleL" d="M173.61,209.62a2.16,2.16,0,0,0-2.89.88,4.12,4.12,0,0,0-.31,1.73l-.14,4.09a9,9,0,0,1-1.26-6c.2-1.29,1-2.77,2.29-2.78,1.12,0,1.93,1.08,2.32,2.13" style="fill:#db826a"/><path id="LipWrinkleR" d="M217,209.62a3.18,3.18,0,0,1,3.69.88,3.47,3.47,0,0,1,.4,1.73l.17,4.09a7.36,7.36,0,0,0,1.6-6,3.19,3.19,0,0,0-2.91-2.78,3.41,3.41,0,0,0-3,2.13" style="fill:#db826a"/><path id="ChinShadow" d="M193.79,237.54a32.73,32.73,0,0,0,7.13-.32,17.37,17.37,0,0,0,3.85-.75c.31-.11.6-.61.27-.66a20.84,20.84,0,0,1-5,5.3,7.24,7.24,0,0,1-7,.83,10.57,10.57,0,0,1-2.93-2.52c-.87-1-2.72-2.26-2.07-3.7C190,236.38,191.64,237.33,193.79,237.54Z" style="fill:#db826a"/></g></svg>