<svg id="HeadE" xmlns="http://www.w3.org/2000/svg" viewBox="0 0 400 400"><g id="MouthE"><path id="Face" d="M193.88,255.94c13.7-.68,26-8.59,36.16-17.83,7.5-6.83,14.36-14.78,17.73-24.36,2-5.85,2.73-12.08,3.27-18.26a481.55,481.55,0,0,0,1.4-61.6c-.39-9.49-1.09-19.06-3.84-28.15S240.88,88,233.26,82.3s-18.09-7.93-26.9-4.39c.11-.22.95-.94,1.06-1.15-4.53.54-11,1.73-15.58,2.28-16.26,2-19.4,2.31-31.84,13-8.83,7.55-13.5,16.66-16,28s-8.62,18.4-8,30c.31,5.81-2.79,16.46-1,22,1.39,4.31.36,11.78,2,16,2.58,6.64,2,14.12,4.24,20.88C149.1,232.41,169.5,251.35,193.88,255.94Z" style="fill:#e5997a"/><path id="CheekShadowR" d="M245.26,100.12a54.37,54.37,0,0,1,1.57,11.21l2,28.74a25.66,25.66,0,0,1-.28,8.06c-1,4.05-4,7.4-5,11.44s0,8.44.75,12.62a103.37,103.37,0,0,1-4.3,53.47,51.08,51.08,0,0,0,12-27.13c1-9.53.87-17.19,1-29.53.23-19.84,1.66-40.46-4.52-59.32-2-6.23-4.8-12.37-5.15-18.93" style="fill:#db826a"/><path id="CheekShadowL" d="M143.26,108a73.51,73.51,0,0,0-1.12,11.08l-1.44,28.38a35.09,35.09,0,0,0,.2,8c.73,4,2.83,7.3,3.57,11.29s.07,8.35-.54,12.47C141,199,144,213,152,229c-4.6-7.54-12.78-14-13.54-23.8-.72-9.41-3.37-18-3.47-30.2a241.14,241.14,0,0,1,6-57.55c1.46-6.16,3.43-12.22,3.68-18.7" style="fill:#db826a"/><path id="CheekShineR" d="M240.47,222.8a119.38,119.38,0,0,1-27,24.78c7.86-1.77,14.19-7.43,19.94-13.08,4.54-4.45,10.35-10.25,11-17C242.83,218.8,241.75,221.2,240.47,222.8Z" style="fill:#f7b29a"/><path id="CheekShineL" d="M150.48,222.8a111.31,111.31,0,0,0,24,24.78c-7-1.77-12.61-7.43-17.72-13.08-4-4.45-9.2-10.25-9.75-17C148.38,218.8,149.34,221.2,150.48,222.8Z" style="fill:#f7b29a"/><path id="InsideMouth" d="M220.51,211.68c-3.62,4-12.26,3-24.79,3.15-16.19.16-24.05-4.05-24.05-4.05s6.67,14.84,13,16.79c5.84,1.81,15.46,3.84,23.05,1.73C216.14,226.94,220.51,211.68,220.51,211.68Z" style="fill:#c47474"/><path id="Tongue" d="M202.25,228.11a7.82,7.82,0,0,0,4.35-2.24c1.17-1.19,2-3,1.28-4.54-.79-1.83-3.2-2.34-5.16-2s-3.85,1.22-5.84,1.23c-2.92,0-5.82-1.88-8.6-1a4.55,4.55,0,0,0-2.93,5.73,4.69,4.69,0,0,0,.43.94,6.69,6.69,0,0,0,2.2,2.1,17.85,17.85,0,0,0,10.17,2.23,8.23,8.23,0,0,0,2.65-.44,9.08,9.08,0,0,0,3.53-3.09" style="fill:#9e3838"/><path id="UpperTeeth" d="M177.72,215.66c2.2,1.07,5,1.59,7.29,2.41,6.21,2.23,23.87,3,31.18-2.86,2.77-2.22-1.69-2.12-.41-2.27,1.5-.17-5.12,1.35-6,.15-9,.07-12.27.34-20.44-1-2.22-.35-4.49,0-6.73-.06-1.42-.06,1.66.21,0,0C180.2,211.76,176.45,215,177.72,215.66Z" style="fill:#fff"/><path id="LowerTeeth" d="M185.85,227.53a7,7,0,0,0,4.46,1.68c5.46.56,10.35.66,15.78-.72.93-.24,1.94,0,2.67-1.15s2.11-4.74,1.54-6.19c-5.52.44-9.84,1.13-17.32.9-1.39,0-2.79,0-4.19-.08a34.7,34.7,0,0,1-3.91-.79C183.4,220.81,185.06,226.78,185.85,227.53Z" style="fill:#fff"/><path id="LowerLip" d="M169.9,209.69c4.95,5.32,11.75,10.33,19.61,12.4,6.19,1.62,8.17,1.58,14.64,0,10.42-2.54,14.37-7.35,19.44-12.43-2,3.68-3,7.48-9.92,16.56-1.57,2.08-10.73,5.31-11.92,5.46a38.3,38.3,0,0,1-12.67-.83c-2.33-.49-7.39-3.37-9.88-5.49C175,221.82,171.69,214.05,169.9,209.69Z" style="fill:#d66ba9"/><path id="UpperLip" d="M223.59,209.66c-4.65,5.56-18.05.12-19.08.05-4.21-.3-7.71,3.89-10.48,2.5-3.62-1.82-5.62-2.78-6.62-2.43-11.08,3.82-15.59.11-17.51-.09-.78-.08,6.53,7.2,10.15,8.21s11.6-2.17,15.32-2c5.1.21,12.27,3.55,17.71,1.78C215.65,216.83,222.21,212.61,223.59,209.66Z" style="fill:#c65d90"/><path id="LipWrinkleL" d="M172.26,209.47a2.16,2.16,0,0,0-2.9.87,4.29,4.29,0,0,0-.31,1.74l-.14,4.09a9,9,0,0,1-1.25-6c.19-1.29,1-2.76,2.28-2.77,1.13,0,1.94,1.08,2.33,2.13" style="fill:#db826a"/><path id="LipWrinkleR" d="M219.23,209.47a3.17,3.17,0,0,1,3.69.87,3.48,3.48,0,0,1,.4,1.74l.17,4.09a7.4,7.4,0,0,0,1.6-6,3.18,3.18,0,0,0-2.91-2.77,3.39,3.39,0,0,0-3,2.13" style="fill:#db826a"/><path id="ChinShadow" d="M194.34,237.2a32.73,32.73,0,0,0,7.13-.32,18,18,0,0,0,3.85-.75c.31-.11.6-.62.27-.67a21.4,21.4,0,0,1-5,5.31,7.23,7.23,0,0,1-7,.82,10.39,10.39,0,0,1-2.93-2.51c-.87-1-2.72-2.27-2.07-3.7C190.55,236,192.19,237,194.34,237.2Z" style="fill:#db826a"/></g></svg>