<svg id="HeadF" xmlns="http://www.w3.org/2000/svg" viewBox="0 0 400 400"><g id="MouthF"><path id="Face" d="M193.88,255.94c13.7-.68,26-8.59,36.16-17.83,7.5-6.83,14.36-14.78,17.73-24.36,2-5.85,2.73-12.08,3.27-18.26a481.55,481.55,0,0,0,1.4-61.6c-.39-9.49-1.09-19.06-3.84-28.15S240.88,88,233.26,82.3s-18.09-7.93-26.9-4.39c.11-.22.95-.94,1.06-1.15-4.53.54-11,1.73-15.58,2.28-16.26,2-19.4,2.31-31.84,13-8.83,7.55-13.5,16.66-16,28s-8.62,18.4-8,30c.31,5.81-2.79,16.46-1,22,1.39,4.31.36,11.78,2,16,2.58,6.64,2,14.12,4.24,20.88C149.1,232.41,169.5,251.35,193.88,255.94Z" style="fill:#e5997a"/><path id="CheekShadowR" d="M245.26,100.12a54.37,54.37,0,0,1,1.57,11.21l2,28.74a25.66,25.66,0,0,1-.28,8.06c-1,4.05-4,7.4-5,11.44s0,8.44.75,12.62a103.37,103.37,0,0,1-4.3,53.47,51.08,51.08,0,0,0,12-27.13c1-9.53.87-17.19,1-29.53.23-19.84,1.66-40.46-4.52-59.32-2-6.23-4.8-12.37-5.15-18.93" style="fill:#db826a"/><path id="CheekShadowL" d="M143.26,108a73.51,73.51,0,0,0-1.12,11.08l-1.44,28.38a35.09,35.09,0,0,0,.2,8c.73,4,2.83,7.3,3.57,11.29s.07,8.35-.54,12.47C141,199,144,213,152,229c-4.6-7.54-12.78-14-13.54-23.8-.72-9.41-3.37-18-3.47-30.2a241.14,241.14,0,0,1,6-57.55c1.46-6.16,3.43-12.22,3.68-18.7" style="fill:#db826a"/><path id="CheekShineR" d="M240.47,222.8a119.38,119.38,0,0,1-27,24.78c7.86-1.77,14.19-7.43,19.94-13.08,4.54-4.45,10.35-10.25,11-17C242.83,218.8,241.75,221.2,240.47,222.8Z" style="fill:#f7b29a"/><path id="CheekShineL" d="M150.48,222.8a111.31,111.31,0,0,0,24,24.78c-7-1.77-12.61-7.43-17.72-13.08-4-4.45-9.2-10.25-9.75-17C148.38,218.8,149.34,221.2,150.48,222.8Z" style="fill:#f7b29a"/><path id="InsideMouth" d="M219.25,213.23s-12.37,3.93-25.36,2.45c-15.34-1.75-20.51-4.38-20.51-4.38s2,9.62,8.3,11.57c5.84,1.81,16,1.94,23.62-.18C213.76,220.34,219.25,213.23,219.25,213.23Z" style="fill:#c47474"/><path id="Tongue" d="M202.68,225.83a7.92,7.92,0,0,0,4.35-2.24c1.17-1.19,2-3,1.29-4.55-.8-1.82-3.2-2.33-5.17-2s-3.84,1.22-5.83,1.22c-2.92,0-5.83-1.87-8.6-1a4.62,4.62,0,0,0-2.87,2.73,4.57,4.57,0,0,0,.37,3.93,6.32,6.32,0,0,0,2.2,2.1,17.77,17.77,0,0,0,10.16,2.23,8,8,0,0,0,2.65-.43,9.21,9.21,0,0,0,3.54-3.1" style="fill:#9e3838"/><path id="UpperTeeth" d="M177.91,215c2.19,1.08,3.61,3.26,5.94,4,7.92,2.54,16.82,2,25.56-2.08a15.51,15.51,0,0,0,3.27-2.54c1.18-1,1.7-.52.78-1.72-9,.07-15.78-.23-24.81-.16-2.24,0-4.49,0-6.73-.07-1.41-.06-5-.88-6.61-1.1C172.94,211,176.64,214.37,177.91,215Z" style="fill:#fff"/><path id="LowerTeeth" d="M180.8,220.67a13.13,13.13,0,0,0,6.34,1.86c7.82.82,14.84,1.16,22.68.08,1.35-.18,2.78.1,3.88-1s3-4.9,2.21-6.34c-8.08-.2-16.61.59-24.69.38-2,0-4-.1-6-.28-1.27-.12-4.19-.24-5.66-.55C177.44,214.41,179.69,219.9,180.8,220.67Z" style="fill:#fff"/><path id="LowerLip" d="M171.76,210.1c10.29,3.8,12.33,6.4,16.21,7.07,5.48,1,7,.61,15.18-.14,2.67-.24,12.76-1.74,17.75-5.68-2,3.69-.23,3.27-7.13,12.36-1.57,2.07-10.73,5.3-11.92,5.45a37.83,37.83,0,0,1-12.68-.83c-2.32-.48-7.38-3.37-9.87-5.49C175.14,219.3,173.55,214.45,171.76,210.1Z" style="fill:#d66ba9"/><path id="UpperLip" d="M220.9,211.35c-4.65,5.57-16-3.67-17-3.74-4.22-.3-6.5,1.66-9.62,1.23s-5.54-1.34-6.54-1c-11.08,3.82-14.42,3.41-16,2.26-.13-.1,7.32,4,10.94,5s6.71-3,13-2.59c7.93.53,9,3.41,14,3.41C213,215.91,219.53,214.31,220.9,211.35Z" style="fill:#c65d90"/><path id="LipWrinkleL" d="M174.83,209.7a2.16,2.16,0,0,0-2.89.88,4.28,4.28,0,0,0-.31,1.73l-.14,4.09a9,9,0,0,1-1.25-6c.19-1.29,1-2.76,2.28-2.78,1.12,0,1.94,1.08,2.32,2.14" style="fill:#db826a"/><path id="LipWrinkleR" d="M216.29,211.79a3.17,3.17,0,0,1,3.69.87,3.48,3.48,0,0,1,.4,1.74l.17,4.09a7.36,7.36,0,0,0,1.6-6,3.19,3.19,0,0,0-2.91-2.78,3.41,3.41,0,0,0-3,2.13" style="fill:#db826a"/><path id="ChinShadow" d="M194.57,236.75a32.73,32.73,0,0,0,7.13-.32,16.82,16.82,0,0,0,3.85-.75c.31-.11.6-.61.27-.66a21.18,21.18,0,0,1-5,5.3,7.26,7.26,0,0,1-7,.83,10.57,10.57,0,0,1-2.93-2.52c-.86-1-2.72-2.26-2.07-3.7C190.78,235.59,192.43,236.54,194.57,236.75Z" style="fill:#db826a"/></g></svg>