<svg id="HeadSmallS" xmlns="http://www.w3.org/2000/svg" viewBox="0 0 400 400"><g id="MouthSmallS"><path id="Face" d="M193.88,255.94c13.7-.68,26-8.59,36.16-17.83,7.5-6.83,14.36-14.78,17.73-24.36,2-5.85,2.73-12.08,3.27-18.26a481.55,481.55,0,0,0,1.4-61.6c-.39-9.49-1.09-19.06-3.84-28.15S240.88,88,233.26,82.3s-18.09-7.93-26.9-4.39c.11-.22.95-.94,1.06-1.15-4.53.54-11,1.73-15.58,2.28-16.26,2-19.4,2.31-31.84,13-8.83,7.55-13.5,16.66-16,28s-8.62,18.4-8,30c.31,5.81-2.79,16.46-1,22,1.39,4.31.36,11.78,2,16,2.58,6.64,2,14.12,4.24,20.88C149.1,232.41,169.5,251.35,193.88,255.94Z" style="fill:#e5997a"/><path id="CheekShadowR" d="M245.26,100.12a54.37,54.37,0,0,1,1.57,11.21l2,28.74a25.66,25.66,0,0,1-.28,8.06c-1,4.05-4,7.4-5,11.44s0,8.44.75,12.62a103.37,103.37,0,0,1-4.3,53.47,51.08,51.08,0,0,0,12-27.13c1-9.53.87-17.19,1-29.53.23-19.84,1.66-40.46-4.52-59.32-2-6.23-4.8-12.37-5.15-18.93" style="fill:#db826a"/><path id="CheekShadowL" d="M143.26,108a73.51,73.51,0,0,0-1.12,11.08l-1.44,28.38a35.09,35.09,0,0,0,.2,8c.73,4,2.83,7.3,3.57,11.29s.07,8.35-.54,12.47C141,199,144,213,152,229c-4.6-7.54-12.78-14-13.54-23.8-.72-9.41-3.37-18-3.47-30.2a241.14,241.14,0,0,1,6-57.55c1.46-6.16,3.43-12.22,3.68-18.7" style="fill:#db826a"/><path id="CheekShineR" d="M240.47,222.8a119.38,119.38,0,0,1-27,24.78c7.86-1.77,14.19-7.43,19.94-13.08,4.54-4.45,10.35-10.25,11-17C242.83,218.8,241.75,221.2,240.47,222.8Z" style="fill:#f7b29a"/><path id="CheekShineL" d="M150.48,222.8a111.31,111.31,0,0,0,24,24.78c-7-1.77-12.61-7.43-17.72-13.08-4-4.45-9.2-10.25-9.75-17C148.38,218.8,149.34,221.2,150.48,222.8Z" style="fill:#f7b29a"/><path id="InsideMouth" d="M218.94,211s-11.84,5.85-24.91,6c-16.19.15-22.39-6.95-22.39-6.95s3.9,12.19,10.18,14.14c5.84,1.81,16,1.94,23.62-.17C213.9,221.61,218.94,211,218.94,211Z" style="fill:#c47474"/><path id="Tongue" d="M201.35,225.7a7.82,7.82,0,0,0,4.35-2.24c1.17-1.19,2-3,1.28-4.54-.79-1.83-3.2-2.34-5.16-2s-3.85,1.21-5.84,1.22c-2.92,0-5.82-1.88-8.6-1a4.53,4.53,0,0,0-2.94,5.69,4.73,4.73,0,0,0,.44,1,6.69,6.69,0,0,0,2.2,2.1,17.8,17.8,0,0,0,10.17,2.23,8.22,8.22,0,0,0,2.65-.43,9.26,9.26,0,0,0,3.53-3.1" style="fill:#9e3838"/><path id="UpperTeeth" d="M177.79,216.38a24.37,24.37,0,0,0,7.15,1,195.63,195.63,0,0,0,26.3-.53,10.43,10.43,0,0,0,4.25-1c1.18-.7,1.76-2.07.84-3l-27.09.14c-2.25,0-4.49,0-6.73-.05-1.42,0-4.68,0-6.34-.21C173.8,212.54,176.52,215.92,177.79,216.38Z" style="fill:#fff"/><path id="LowerTeeth" d="M179.46,223.54a12.92,12.92,0,0,0,6.34,1.86c7.83.83,14.84,1.17,22.68.09,1.35-.18,2.78.09,3.88-1s3-4.9,2.21-6.34c-8.08-.2-16.6.58-24.69.38-2-.05-4-.1-6-.29-1.27-.12-4.19-.24-5.66-.54C176.1,217.29,178.35,222.77,179.46,223.54Z" style="fill:#fff"/><path id="LowerLip" d="M171.42,209.5c4.32,6.67,9.53,13.69,17.24,14.1a78.25,78.25,0,0,0,13.69-.39c10-.81,14.57-8.78,17.28-13.11-2,3.69-.22,8.66-7.12,17.75-1.57,2.07-10.73,5.3-11.92,5.46a38.36,38.36,0,0,1-12.68-.83c-2.32-.49-7.38-3.37-9.87-5.5C173.88,223.45,173.21,213.86,171.42,209.5Z" style="fill:#d66ba9"/><path id="UpperLip" d="M220.07,209.33c-4.65,5.56-15.35.94-16.38.87-4.21-.3-8,2.91-10.77,1.52-3.62-1.82-6.54-2-7.54-1.65-11.08,3.82-12.9.17-14.43-1-.13-.1,4.41,5.15,8,6.16s8.29.81,12,1c5.11.2,16.35.75,21.3-1.32C214.92,213.79,218.7,212.28,220.07,209.33Z" style="fill:#c65d90"/><path id="LipWrinkleL" d="M173.06,209.73a2.17,2.17,0,0,0-2.9.87,4.29,4.29,0,0,0-.31,1.74l-.14,4.09a9,9,0,0,1-1.25-6c.2-1.3,1-2.77,2.28-2.78,1.13,0,1.94,1.08,2.33,2.13" style="fill:#db826a"/><path id="LipWrinkleR" d="M216.43,209.73a3.17,3.17,0,0,1,3.69.87,3.3,3.3,0,0,1,.39,1.74l.18,4.09a7.36,7.36,0,0,0,1.6-6,3.19,3.19,0,0,0-2.91-2.78,3.43,3.43,0,0,0-3,2.13" style="fill:#db826a"/><path id="ChinShadow" d="M193.24,238.63a32.73,32.73,0,0,0,7.13-.32,18,18,0,0,0,3.84-.75c.32-.11.6-.62.28-.67a21.4,21.4,0,0,1-5,5.31,7.22,7.22,0,0,1-7,.82,10,10,0,0,1-2.92-2.51c-.87-1-2.72-2.27-2.07-3.7C189.45,237.46,191.09,238.42,193.24,238.63Z" style="fill:#db826a"/></g></svg>