<svg id="HeadSmallU" xmlns="http://www.w3.org/2000/svg" viewBox="0 0 400 400"><g id="MouthSmallU"><path id="Face" d="M193.88,255.94c13.7-.68,26-8.59,36.16-17.83,7.5-6.83,14.36-14.78,17.73-24.36,2-5.85,2.73-12.08,3.27-18.26a481.55,481.55,0,0,0,1.4-61.6c-.39-9.49-1.09-19.06-3.84-28.15S240.88,88,233.26,82.3s-18.09-7.93-26.9-4.39c.11-.22.95-.94,1.06-1.15-4.53.54-11,1.73-15.58,2.28-16.26,2-19.4,2.31-31.84,13-8.83,7.55-13.5,16.66-16,28s-8.62,18.4-8,30c.31,5.81-2.79,16.46-1,22,1.39,4.31.36,11.78,2,16,2.58,6.64,2,14.12,4.24,20.88C149.1,232.41,169.5,251.35,193.88,255.94Z" style="fill:#e5997a"/><path id="CheekShadowR" d="M245.26,100.12a54.37,54.37,0,0,1,1.57,11.21l2,28.74a25.66,25.66,0,0,1-.28,8.06c-1,4.05-4,7.4-5,11.44s0,8.44.75,12.62a103.37,103.37,0,0,1-4.3,53.47,51.08,51.08,0,0,0,12-27.13c1-9.53.87-17.19,1-29.53.23-19.84,1.66-40.46-4.52-59.32-2-6.23-4.8-12.37-5.15-18.93" style="fill:#db826a"/><path id="CheekShadowL" d="M143.26,108a73.51,73.51,0,0,0-1.12,11.08l-1.44,28.38a35.09,35.09,0,0,0,.2,8c.73,4,2.83,7.3,3.57,11.29s.07,8.35-.54,12.47C141,199,144,213,152,229c-4.6-7.54-12.78-14-13.54-23.8-.72-9.41-3.37-18-3.47-30.2a241.14,241.14,0,0,1,6-57.55c1.46-6.16,3.43-12.22,3.68-18.7" style="fill:#db826a"/><path id="CheekShineR" d="M240.47,222.8a119.38,119.38,0,0,1-27,24.78c7.86-1.77,14.19-7.43,19.94-13.08,4.54-4.45,10.35-10.25,11-17C242.83,218.8,241.75,221.2,240.47,222.8Z" style="fill:#f7b29a"/><path id="CheekShineL" d="M150.48,222.8a111.31,111.31,0,0,0,24,24.78c-7-1.77-12.61-7.43-17.72-13.08-4-4.45-9.2-10.25-9.75-17C148.38,218.8,149.34,221.2,150.48,222.8Z" style="fill:#f7b29a"/><path id="InsideMouth" d="M215.54,214.77s-7.71.3-20.78.42c-16.19.15-18.87-.18-18.87-.18s2.22,9.17,8.51,11.12c5.84,1.8,13.54,2.85,21.13.73C214,224.5,215.54,214.77,215.54,214.77Z" style="fill:#c47474"/><path id="UpperTeeth" d="M176.54,217.57A18.34,18.34,0,0,0,183.7,219a143.44,143.44,0,0,0,26.29-.72,8.38,8.38,0,0,0,4.25-1.41c1.18-.94-1.7-.5-2.63-1.7-9,.06-14.05-1.2-23.08-1.13-2.24,0-3.24.21-5.48.11-1.41-.06-4.2,1.23-5.86,1C174.82,214.82,175.27,217,176.54,217.57Z" style="fill:#fff"/><path id="Tongue" d="M201.84,225.78a8.81,8.81,0,0,0,4.35-1.69c1.17-.89,1.95-2.27,1.29-3.42-.8-1.38-3.2-1.76-5.17-1.52s-3.84.92-5.83.92c-2.92,0-5.83-1.41-8.61-.74a4.34,4.34,0,0,0-2.86,2.06,2.75,2.75,0,0,0,.36,3,6.32,6.32,0,0,0,2.21,1.58,22.79,22.79,0,0,0,10.16,1.68,10.81,10.81,0,0,0,2.65-.33,8.94,8.94,0,0,0,3.54-2.33" style="fill:#9e3838"/><path id="LowerTeeth" d="M182.43,224.41a12.3,12.3,0,0,0,5.24,1.14,87.35,87.35,0,0,0,18.57-.49c1.1-.16,2.29,0,3.15-.78s2.48-3.24,1.81-4.22c-6.49.3-11.58.77-20.38.61h-4.94c-1,0-3.54,0-4.75-.16C179.39,220.21,181.5,223.9,182.43,224.41Z" style="fill:#fff"/><path id="LowerLip" d="M173.78,211.68c8,2.86,9.58,3.87,16.93,7.34,5.34,2.52,4.51,1.12,10-.74,8.8-3,11.18-2.36,17.89-6.63-2,3.68-1,4.34-7.87,13.42-1.57,2.07-7.79,3-9,3.11-4.24.55-10.19,1.06-14.26-.27a23.4,23.4,0,0,1-8.22-4.16C175.15,220.21,175.57,216,173.78,211.68Z" style="fill:#d66ba9"/><path id="UpperLip" d="M218.78,211.19c-4.65,5.56-16.13-1.85-17.16-1.92-4.21-.3-5.43,4.1-8.2,2.72-3.62-1.82-3.88-3.08-4.89-2.73-11.08,3.82-13.52,2.21-15.43,2.39-.92.08,9,5.24,12.61,6.25s5.59-1.43,9.3-1.28c5.11.2,6.42,3.67,11.86,1.9C209.44,217.69,217.41,214.14,218.78,211.19Z" style="fill:#c65d90"/><path id="LipWrinkleL" d="M176.09,210.78a2.15,2.15,0,0,0-2.89.87,4.29,4.29,0,0,0-.31,1.74l-.14,4.09a9,9,0,0,1-1.25-6c.19-1.3,1-2.77,2.28-2.78,1.12,0,1.94,1.08,2.33,2.13" style="fill:#db826a"/><path id="LipWrinkleR" d="M215.39,210.69a3.18,3.18,0,0,1,3.69.88,3.47,3.47,0,0,1,.4,1.73l.17,4.09a7.36,7.36,0,0,0,1.6-6,3.19,3.19,0,0,0-2.91-2.78,3.41,3.41,0,0,0-3,2.13" style="fill:#db826a"/><path id="ChinShadow" d="M192.39,234a34,34,0,0,0,7.13-.33,16.84,16.84,0,0,0,3.84-.75c.32-.11.6-.61.28-.66a21.18,21.18,0,0,1-5,5.3,7.24,7.24,0,0,1-7,.83,10.49,10.49,0,0,1-2.92-2.51c-.87-1-2.73-2.27-2.08-3.71C188.59,232.81,190.24,233.76,192.39,234Z" style="fill:#db826a"/></g></svg>