<svg id="HeadSmallI1" xmlns="http://www.w3.org/2000/svg" viewBox="0 0 400 400"><g id="MouthSmallI1"><path id="Face" d="M193.88,255.94c13.7-.68,26-8.59,36.16-17.83,7.5-6.83,14.36-14.78,17.73-24.36,2-5.85,2.73-12.08,3.27-18.26a481.55,481.55,0,0,0,1.4-61.6c-.39-9.49-1.09-19.06-3.84-28.15S240.88,88,233.26,82.3s-18.09-7.93-26.9-4.39c.11-.22.95-.94,1.06-1.15-4.53.54-11,1.73-15.58,2.28-16.26,2-19.4,2.31-31.84,13-8.83,7.55-13.5,16.66-16,28s-8.62,18.4-8,30c.31,5.81-2.79,16.46-1,22,1.39,4.31.36,11.78,2,16,2.58,6.64,2,14.12,4.24,20.88C149.1,232.41,169.5,251.35,193.88,255.94Z" style="fill:#e5997a"/><path id="CheekShadowR" d="M245.26,100.12a54.37,54.37,0,0,1,1.57,11.21l2,28.74a25.66,25.66,0,0,1-.28,8.06c-1,4.05-4,7.4-5,11.44s0,8.44.75,12.62a103.37,103.37,0,0,1-4.3,53.47,51.08,51.08,0,0,0,12-27.13c1-9.53.87-17.19,1-29.53.23-19.84,1.66-40.46-4.52-59.32-2-6.23-4.8-12.37-5.15-18.93" style="fill:#db826a"/><path id="CheekShadowL" d="M143.26,108a73.51,73.51,0,0,0-1.12,11.08l-1.44,28.38a35.09,35.09,0,0,0,.2,8c.73,4,2.83,7.3,3.57,11.29s.07,8.35-.54,12.47C141,199,144,213,152,229c-4.6-7.54-12.78-14-13.54-23.8-.72-9.41-3.37-18-3.47-30.2a241.14,241.14,0,0,1,6-57.55c1.46-6.16,3.43-12.22,3.68-18.7" style="fill:#db826a"/><path id="CheekShineR" d="M240.47,222.8a119.38,119.38,0,0,1-27,24.78c7.86-1.77,14.19-7.43,19.94-13.08,4.54-4.45,10.35-10.25,11-17C242.83,218.8,241.75,221.2,240.47,222.8Z" style="fill:#f7b29a"/><path id="CheekShineL" d="M150.48,222.8a111.31,111.31,0,0,0,24,24.78c-7-1.77-12.61-7.43-17.72-13.08-4-4.45-9.2-10.25-9.75-17C148.38,218.8,149.34,221.2,150.48,222.8Z" style="fill:#f7b29a"/><path id="InsideMouth" d="M217.75,213c-3.61,4-9.09,3-21.62,3.15-16.19.16-24.22-3.63-24.22-3.63s6.28,16.33,12.56,18.27c5.84,1.81,16,1.94,23.62-.17C216.55,228.26,217.75,213,217.75,213Z" style="fill:#c47474"/><path id="Tongue" d="M200.83,227.67a7.92,7.92,0,0,0,4.35-2.24c1.17-1.19,1.95-3,1.28-4.54-.79-1.83-3.2-2.34-5.16-2s-3.85,1.22-5.84,1.22c-2.92,0-5.82-1.87-8.6-1a4.55,4.55,0,0,0-2.93,5.73,4.69,4.69,0,0,0,.43.94,6.66,6.66,0,0,0,2.2,2.09,17.8,17.8,0,0,0,10.17,2.23,8,8,0,0,0,2.65-.43,9.18,9.18,0,0,0,3.53-3.1" style="fill:#9e3838"/><path id="UpperTeeth" d="M176,215.32c2.2.82,5,1.21,7.28,1.84,6.22,1.69,19.06.94,28.19-.68,1.47-.27,1.31-3.12,2.59-3.23,1.5-.13-5.12,1-6.05.12-9,0-12.27.25-20.43-.73-2.22-.27-4.49,0-6.73-.06-1.42,0,1.65.17,0,0C178.48,212.35,174.73,214.85,176,215.32Z" style="fill:#fff"/><path id="LowerTeeth" d="M179.15,226.87a12.2,12.2,0,0,0,6.21,1.67c7.62.56,14.43.66,22-.72,1.31-.23,2.71,0,3.73-1.14s2.74-5.12,1.93-6.56c-7.68.44-13.5,1.49-23.92,1.27-2,0-3.9,0-5.85-.08-1.22-.08-4-.54-5.45-.8C175.73,220.14,178.05,226.12,179.15,226.87Z" style="fill:#fff"/><path id="LowerLip" d="M170.52,210.6c4.26,7,10.35,11.43,17.69,14.9,5.35,2.53,9.23,1.76,14.76-.11,8.79-3,11.37-5.86,15.48-12.87-2,3.68,1.14,7.29-5.76,16.37-1.57,2.07-10.73,5.3-11.92,5.46a38.3,38.3,0,0,1-12.67-.83c-2.33-.49-7.39-3.37-9.88-5.49C174.06,224.49,172.31,215,170.52,210.6Z" style="fill:#d66ba9"/><path id="UpperLip" d="M220.23,210.6c-4.65,5.56-16.11-1.26-17.14-1.34-4.21-.3-7.71,3.9-10.48,2.51C189,210,187,209,186,209.33c-11.08,3.82-13.93,2.42-15.47,1.27-.13-.1,3.61,6,8.11,6.86,3.7.69,11.6-2.17,15.32-2,5.1.21,12.27,3.55,17.71,1.78C214.23,216.39,218.86,213.55,220.23,210.6Z" style="fill:#c65d90"/><path id="LipWrinkleL" d="M174.12,209.91a2.17,2.17,0,0,0-2.9.87,4.29,4.29,0,0,0-.31,1.74l-.14,4.09a9,9,0,0,1-1.25-6c.2-1.3,1-2.77,2.28-2.78,1.13,0,1.94,1.08,2.33,2.13" style="fill:#db826a"/><path id="LipWrinkleR" d="M215.37,210.91a3.17,3.17,0,0,1,3.69.87,3.3,3.3,0,0,1,.39,1.74l.18,4.09a7.36,7.36,0,0,0,1.6-6,3.19,3.19,0,0,0-2.91-2.78,3.43,3.43,0,0,0-3,2.13" style="fill:#db826a"/><path id="ChinShadow" d="M192.92,238.76a34,34,0,0,0,7.13-.33,17.36,17.36,0,0,0,3.85-.74c.31-.12.6-.62.27-.67a21.18,21.18,0,0,1-5,5.3,7.18,7.18,0,0,1-7,.83,10.39,10.39,0,0,1-2.93-2.51c-.87-1-2.72-2.27-2.07-3.71C189.13,237.59,190.77,238.54,192.92,238.76Z" style="fill:#db826a"/></g></svg>