<svg id="HeadSmallT" xmlns="http://www.w3.org/2000/svg" viewBox="0 0 400 400"><g id="MouthSmallT"><path id="Face" d="M193.88,255.94c13.7-.68,26-8.59,36.16-17.83,7.5-6.83,14.36-14.78,17.73-24.36,2-5.85,2.73-12.08,3.27-18.26a481.55,481.55,0,0,0,1.4-61.6c-.39-9.49-1.09-19.06-3.84-28.15S240.88,88,233.26,82.3s-18.09-7.93-26.9-4.39c.11-.22.95-.94,1.06-1.15-4.53.54-11,1.73-15.58,2.28-16.26,2-19.4,2.31-31.84,13-8.83,7.55-13.5,16.66-16,28s-8.62,18.4-8,30c.31,5.81-2.79,16.46-1,22,1.39,4.31.36,11.78,2,16,2.58,6.64,2,14.12,4.24,20.88C149.1,232.41,169.5,251.35,193.88,255.94Z" style="fill:#e5997a"/><path id="CheekShadowR" d="M245.26,100.12a54.37,54.37,0,0,1,1.57,11.21l2,28.74a25.66,25.66,0,0,1-.28,8.06c-1,4.05-4,7.4-5,11.44s0,8.44.75,12.62a103.37,103.37,0,0,1-4.3,53.47,51.08,51.08,0,0,0,12-27.13c1-9.53.87-17.19,1-29.53.23-19.84,1.66-40.46-4.52-59.32-2-6.23-4.8-12.37-5.15-18.93" style="fill:#db826a"/><path id="CheekShadowL" d="M143.26,108a73.51,73.51,0,0,0-1.12,11.08l-1.44,28.38a35.09,35.09,0,0,0,.2,8c.73,4,2.83,7.3,3.57,11.29s.07,8.35-.54,12.47C141,199,144,213,152,229c-4.6-7.54-12.78-14-13.54-23.8-.72-9.41-3.37-18-3.47-30.2a241.14,241.14,0,0,1,6-57.55c1.46-6.16,3.43-12.22,3.68-18.7" style="fill:#db826a"/><path id="CheekShineR" d="M240.47,222.8a119.38,119.38,0,0,1-27,24.78c7.86-1.77,14.19-7.43,19.94-13.08,4.54-4.45,10.35-10.25,11-17C242.83,218.8,241.75,221.2,240.47,222.8Z" style="fill:#f7b29a"/><path id="CheekShineL" d="M150.48,222.8a111.31,111.31,0,0,0,24,24.78c-7-1.77-12.61-7.43-17.72-13.08-4-4.45-9.2-10.25-9.75-17C148.38,218.8,149.34,221.2,150.48,222.8Z" style="fill:#f7b29a"/><path id="InsideMouth" d="M217.92,213s-10.55-.12-23.62,0c-16.19.15-21.83.5-21.83.5s3.89,12.2,10.18,14.14c5.84,1.81,16,1.94,23.62-.17C214.73,225.14,217.92,213,217.92,213Z" style="fill:#c47474"/><path id="Tongue" d="M201.39,225.81a7.92,7.92,0,0,0,4.35-2.24c1.17-1.19,1.95-3,1.28-4.54-.79-1.83-3.2-2.34-5.16-2s-3.85,1.22-5.84,1.23c-2.92,0-5.82-1.88-8.6-1a4.55,4.55,0,0,0-2.93,5.73,4.69,4.69,0,0,0,.43.94,6.69,6.69,0,0,0,2.2,2.1,17.85,17.85,0,0,0,10.17,2.23,8.23,8.23,0,0,0,2.65-.44,9.18,9.18,0,0,0,3.53-3.1" style="fill:#9e3838"/><path id="UpperTeeth" d="M176,214.57a42.18,42.18,0,0,0,7,.72c8.6.4,17.27.6,25.83.35a17.51,17.51,0,0,0,4.2-.47c1.16-.35,1.75-1.08.86-1.58L187.32,213c-2.2-.05-4.41-.1-6.61-.19-1.39-.06-4.6-.14-6.23-.27C172.16,212.38,174.79,214.29,176,214.57Z" style="fill:#fff"/><path id="LowerTeeth" d="M175.19,220.4a18.27,18.27,0,0,0,7.29,1.81,130.75,130.75,0,0,0,26.09.49c1.55-.15,3.2.13,4.46-.83s3.43-4.44,2.54-5.77c-9.3-.33-19.1.24-28.4-.09-2.31-.08-4.62-.17-6.92-.37-1.45-.13-4.81-.3-6.51-.6C171.32,214.61,173.91,219.67,175.19,220.4Z" style="fill:#fff"/><path id="LowerLip" d="M169.83,212.19c8,2.86,11.52,6.05,18.87,9.52,5.34,2.52,8.17,1.47,13.69-.39,8.8-3,11.45-6.61,18.16-10.87-2,3.68-1.1,6.42-8,15.51-1.57,2.07-10.73,5.3-11.92,5.45a37.77,37.77,0,0,1-12.67-.83c-2.33-.48-7.39-3.37-9.88-5.49C173.92,221.55,171.62,216.55,169.83,212.19Z" style="fill:#d66ba9"/><path id="UpperLip" d="M220.55,210.45c-4.64,5.56-15.79-2.07-16.81-2.14-4.22-.3-8,2.9-10.78,1.52-3.62-1.82-6.54-2-7.54-1.66-11.08,3.82-14,5.17-15.59,4-.12-.1,5.54,2.31,9.16,3.33s8.32-1.36,12-1.21c5.11.21,15.56,2.73,21,1C214.59,214.45,219.18,213.4,220.55,210.45Z" style="fill:#c65d90"/><path id="LipWrinkleL" d="M172.63,211.12a2.15,2.15,0,0,0-2.89.87,4.13,4.13,0,0,0-.31,1.74l-.14,4.09a9,9,0,0,1-1.26-6c.2-1.29,1-2.76,2.29-2.77,1.12,0,1.93,1.08,2.32,2.13" style="fill:#db826a"/><path id="LipWrinkleR" d="M217.29,210a3.16,3.16,0,0,1,3.69.88,3.47,3.47,0,0,1,.4,1.73l.17,4.09a7.36,7.36,0,0,0,1.6-6,3.19,3.19,0,0,0-2.91-2.78,3.41,3.41,0,0,0-3,2.13" style="fill:#db826a"/><path id="ChinShadow" d="M193.28,236.74a34,34,0,0,0,7.13-.33,17.38,17.38,0,0,0,3.84-.74c.32-.12.6-.62.28-.67a21.18,21.18,0,0,1-5,5.3,7.18,7.18,0,0,1-7,.83,10,10,0,0,1-2.92-2.51c-.87-1-2.72-2.27-2.07-3.71C189.49,235.57,191.13,236.52,193.28,236.74Z" style="fill:#db826a"/></g></svg>