<svg id="HeadP" xmlns="http://www.w3.org/2000/svg" viewBox="0 0 400 400"><g id="MouthP"><path id="Face" d="M193.88,255.94c13.7-.68,26-8.59,36.16-17.83,7.5-6.83,14.36-14.78,17.73-24.36,2-5.85,2.73-12.08,3.27-18.26a481.55,481.55,0,0,0,1.4-61.6c-.39-9.49-1.09-19.06-3.84-28.15S240.88,88,233.26,82.3s-18.09-7.93-26.9-4.39c.11-.22.95-.94,1.06-1.15-4.53.54-11,1.73-15.58,2.28-16.26,2-19.4,2.31-31.84,13-8.83,7.55-13.5,16.66-16,28s-8.62,18.4-8,30c.31,5.81-2.79,16.46-1,22,1.39,4.31.36,11.78,2,16,2.58,6.64,2,14.12,4.24,20.88C149.1,232.41,169.5,251.35,193.88,255.94Z" style="fill:#e5997a"/><path id="CheekShadowR" d="M245.26,100.12a54.37,54.37,0,0,1,1.57,11.21l2,28.74a25.66,25.66,0,0,1-.28,8.06c-1,4.05-4,7.4-5,11.44s0,8.44.75,12.62a103.37,103.37,0,0,1-4.3,53.47,51.08,51.08,0,0,0,12-27.13c1-9.53.87-17.19,1-29.53.23-19.84,1.66-40.46-4.52-59.32-2-6.23-4.8-12.37-5.15-18.93" style="fill:#db826a"/><path id="CheekShadowL" d="M143.26,108a73.51,73.51,0,0,0-1.12,11.08l-1.44,28.38a35.09,35.09,0,0,0,.2,8c.73,4,2.83,7.3,3.57,11.29s.07,8.35-.54,12.47C141,199,144,213,152,229c-4.6-7.54-12.78-14-13.54-23.8-.72-9.41-3.37-18-3.47-30.2a241.14,241.14,0,0,1,6-57.55c1.46-6.16,3.43-12.22,3.68-18.7" style="fill:#db826a"/><path id="CheekShineR" d="M240.47,222.8a119.38,119.38,0,0,1-27,24.78c7.86-1.77,14.19-7.43,19.94-13.08,4.54-4.45,10.35-10.25,11-17C242.83,218.8,241.75,221.2,240.47,222.8Z" style="fill:#f7b29a"/><path id="CheekShineL" d="M150.48,222.8a111.31,111.31,0,0,0,24,24.78c-7-1.77-12.61-7.43-17.72-13.08-4-4.45-9.2-10.25-9.75-17C148.38,218.8,149.34,221.2,150.48,222.8Z" style="fill:#f7b29a"/><path id="InsideMouth" d="M216,211.82A66.59,66.59,0,0,1,196,215c-14,0-19.41-3-19.41-3s3.38,5.14,8.83,6a85,85,0,0,0,20.47-.07C213.22,216.92,216,211.82,216,211.82Z" style="fill:#c47474"/><path id="Tongue" d="M202.7,221.4a15.73,15.73,0,0,0,4.35-.83c1.18-.45,2-1.13,1.29-1.7s-3.2-.87-5.17-.75-3.84.45-5.83.45c-2.92,0-5.82-.69-8.6-.36a5.24,5.24,0,0,0-2.87,1c-.47.47-.34,1,.37,1.46a7.82,7.82,0,0,0,2.2.79,44,44,0,0,0,10.17.83,21.3,21.3,0,0,0,2.65-.16,12.2,12.2,0,0,0,3.53-1.16" style="fill:#9e3838"/><path id="LowerTeeth" d="M181.18,217.12a13.29,13.29,0,0,0,6,1.4,94.58,94.58,0,0,0,21.27-.6c1.26-.2,2.61,0,3.61-.95s2.64-4.25,1.86-5.45c-7.58.07-15.55,1-23.14,1.06-1.88,0-3.77,0-5.65-.07-1.19-.06-3.93-.08-5.32-.29C177.83,211.91,180.11,216.5,181.18,217.12Z" style="fill:#fff"/><path id="UpperTeeth" d="M179,212.19a64,64,0,0,0,6.78.33c8.31.11,16.68.1,24.93-.17a26.76,26.76,0,0,0,4-.33c1.12-.22,1.67-.65.8-.93H183.44c-1.34,0-4.44,0-6-.07C175.23,211,177.82,212.05,179,212.19Z" style="fill:#fff"/><path id="LowerLip" d="M172.49,208.35c4.93,4.83,12.08,2.7,18.81,3.51,6,.72,6.83.09,12.76.21s13.64.44,16.85-4.44a38.62,38.62,0,0,1-9.11,11c-.88.68-8.54,5.14-9.73,5.29-4.24.55-8.44-.23-12.68-.83-1.19-.17-7.82-4-10.12-6.36C176,213.43,174.28,212.71,172.49,208.35Z" style="fill:#d66ba9"/><path id="UpperLip" d="M220.3,208.58c-4.65,5.57-14.22-.67-15.25-.75-4.21-.29-8,2.91-10.77,1.52-3.62-1.81-6.54-2-7.55-1.65-11.07,3.82-12.7,1.47-14.24,1.3-.16,0,6.15,3.54,9.91,3.69,4.53.19,10.28,1.26,14,1.41,5.11.21,6.71-.63,12.61-1.52C211.58,212.2,217.81,212.45,220.3,208.58Z" style="fill:#c65d90"/><path id="LipWrinkleL" d="M176,208.74a2.16,2.16,0,0,0-2.89.88,4.12,4.12,0,0,0-.31,1.73l-.14,4.09a9,9,0,0,1-1.26-6c.2-1.29,1-2.76,2.29-2.78,1.12,0,1.93,1.08,2.32,2.13" style="fill:#db826a"/><path id="LipWrinkleR" d="M215.5,208.74a3.19,3.19,0,0,1,3.69.88,3.46,3.46,0,0,1,.39,1.73l.18,4.09a7.43,7.43,0,0,0,1.6-6,3.21,3.21,0,0,0-2.91-2.78,3.43,3.43,0,0,0-3,2.13" style="fill:#db826a"/><path id="ChinShadow" d="M194.9,229.62a34,34,0,0,0,7.13-.33,17.38,17.38,0,0,0,3.84-.74,22.38,22.38,0,0,1-4.74,4.63,7.18,7.18,0,0,1-7,.83,10,10,0,0,1-2.92-2.51c-.87-1-2.73-2.27-2.08-3.71C191.1,228.45,192.75,229.4,194.9,229.62Z" style="fill:#db826a"/></g></svg>