<svg id="HeadT" xmlns="http://www.w3.org/2000/svg" viewBox="0 0 400 400"><g id="MouthT"><path id="Face" d="M193.88,255.94c13.7-.68,26-8.59,36.16-17.83,7.5-6.83,14.36-14.78,17.73-24.36,2-5.85,2.73-12.08,3.27-18.26a481.55,481.55,0,0,0,1.4-61.6c-.39-9.49-1.09-19.06-3.84-28.15S240.88,88,233.26,82.3s-18.09-7.93-26.9-4.39c.11-.22.95-.94,1.06-1.15-4.53.54-11,1.73-15.58,2.28-16.26,2-19.4,2.31-31.84,13-8.83,7.55-13.5,16.66-16,28s-8.62,18.4-8,30c.31,5.81-2.79,16.46-1,22,1.39,4.31.36,11.78,2,16,2.58,6.64,2,14.12,4.24,20.88C149.1,232.41,169.5,251.35,193.88,255.94Z" style="fill:#e5997a"/><path id="CheekShadowR" d="M245.26,100.12a54.37,54.37,0,0,1,1.57,11.21l2,28.74a25.66,25.66,0,0,1-.28,8.06c-1,4.05-4,7.4-5,11.44s0,8.44.75,12.62a103.37,103.37,0,0,1-4.3,53.47,51.08,51.08,0,0,0,12-27.13c1-9.53.87-17.19,1-29.53.23-19.84,1.66-40.46-4.52-59.32-2-6.23-4.8-12.37-5.15-18.93" style="fill:#db826a"/><path id="CheekShadowL" d="M143.26,108a73.51,73.51,0,0,0-1.12,11.08l-1.44,28.38a35.09,35.09,0,0,0,.2,8c.73,4,2.83,7.3,3.57,11.29s.07,8.35-.54,12.47C141,199,144,213,152,229c-4.6-7.54-12.78-14-13.54-23.8-.72-9.41-3.37-18-3.47-30.2a241.14,241.14,0,0,1,6-57.55c1.46-6.16,3.43-12.22,3.68-18.7" style="fill:#db826a"/><path id="CheekShineR" d="M240.47,222.8a119.38,119.38,0,0,1-27,24.78c7.86-1.77,14.19-7.43,19.94-13.08,4.54-4.45,10.35-10.25,11-17C242.83,218.8,241.75,221.2,240.47,222.8Z" style="fill:#f7b29a"/><path id="CheekShineL" d="M150.48,222.8a111.31,111.31,0,0,0,24,24.78c-7-1.77-12.61-7.43-17.72-13.08-4-4.45-9.2-10.25-9.75-17C148.38,218.8,149.34,221.2,150.48,222.8Z" style="fill:#f7b29a"/><path id="InsideMouth" d="M218.55,212.59a96.06,96.06,0,0,1-25.35.42c-16.06-2.09-21.84.5-21.84.5s3.9,12.2,10.18,14.14c5.84,1.81,16,1.94,23.62-.17C213.62,225.12,218.55,212.59,218.55,212.59Z" style="fill:#c47474"/><path id="Tongue" d="M201.17,224.79a7.82,7.82,0,0,0,4.35-2.24c1.17-1.19,1.95-3,1.28-4.54-.79-1.83-3.19-2.34-5.16-2s-3.84,1.22-5.84,1.23c-2.92,0-5.82-1.88-8.6-1a4.55,4.55,0,0,0-2.93,5.73,4.69,4.69,0,0,0,.43.94,6.6,6.6,0,0,0,2.21,2.09,17.86,17.86,0,0,0,10.16,2.24,8.23,8.23,0,0,0,2.65-.44,9,9,0,0,0,3.53-3.1" style="fill:#9e3838"/><path id="UpperTeeth" d="M175.87,216.12A27.69,27.69,0,0,0,183,217a226.26,226.26,0,0,0,26.3-.45,12.14,12.14,0,0,0,4.25-.89c1.18-.6,1.76-1.78.84-2.54l-27.1.13c-2.24,0-4.48,0-6.72-.05-1.42,0-4.69,0-6.34-.18C171.88,212.83,174.6,215.73,175.87,216.12Z" style="fill:#fff"/><path id="LowerTeeth" d="M181.76,225.42a12,12,0,0,0,5.24,1.14,87.35,87.35,0,0,0,18.57-.49c1.1-.16,2.28,0,3.15-.78s2.48-3.23,1.8-4.22c-6.49.3-11.57.77-20.37.61-1.65,0-3.29,0-4.94-.05-1,0-3.54,0-4.76-.15C178.72,221.22,180.82,224.91,181.76,225.42Z" style="fill:#fff"/><path id="LowerLip" d="M169.62,212.17c7.4,3.71,9.54,8.44,17.58,11.9a18.14,18.14,0,0,0,15.41.15c10.64-4.43,12-8.34,17.73-13.79-2.23,4.28-.87,7.58-7.77,16.66-1.57,2.08-10.68,5.75-11.86,5.91a39.07,39.07,0,0,1-12.85-.62c-2.33-.49-7.27-4-9.76-6.15C173.93,222.69,171.4,216.53,169.62,212.17Z" style="fill:#d66ba9"/><path id="UpperLip" d="M220.06,210.74c-4.65,5.56-15.79-2.07-16.82-2.14-4.22-.3-8,2.9-10.77,1.51-3.62-1.81-6.54-2-7.55-1.65-11.08,3.82-13.25,4.18-15.3,3.71a44.49,44.49,0,0,0,8.87,3.64c3.6,1.06,8.32-1.36,12-1.21,5.1.21,15.55,2.73,21,1C214.09,214.74,218.69,213.69,220.06,210.74Z" style="fill:#c65d90"/><path id="LipWrinkleL" d="M172.41,211.45a2.16,2.16,0,0,0-2.89.87,4.13,4.13,0,0,0-.31,1.74l-.14,4.09a9,9,0,0,1-1.25-6c.19-1.3,1-2.77,2.28-2.78,1.12,0,1.93,1.08,2.32,2.13" style="fill:#db826a"/><path id="LipWrinkleR" d="M217.07,210a3.16,3.16,0,0,1,3.69.88,3.47,3.47,0,0,1,.4,1.73l.18,4.09a7.39,7.39,0,0,0,1.59-6,3.19,3.19,0,0,0-2.91-2.78,3.43,3.43,0,0,0-3,2.13" style="fill:#db826a"/><path id="ChinShadow" d="M193.06,236.72a34,34,0,0,0,7.13-.33,17.37,17.37,0,0,0,3.85-.75c.31-.11.6-.61.27-.66a20.84,20.84,0,0,1-5,5.3,7.16,7.16,0,0,1-6.95.83,10.53,10.53,0,0,1-2.93-2.51c-.87-1-2.72-2.27-2.07-3.71C189.27,235.55,190.91,236.5,193.06,236.72Z" style="fill:#db826a"/></g></svg>