<svg id="HeadA" xmlns="http://www.w3.org/2000/svg" viewBox="0 0 400 400"><g id="MouthA"><path id="Face" d="M194,259c13.37-.69,25.39-8.74,35.28-18.13,7.32-7,14-15,17.31-24.77,2-5.95,2.66-12.29,3.19-18.58a509.71,509.71,0,0,0,1.37-62.65c-.39-9.65-1.07-19.38-3.75-28.63s-7.54-18.06-15-23.83-17.65-8.07-26.25-4.47c.1-.23.93-1,1-1.17-4.42.55-10.78,1.76-15.2,2.31-15.87,2-18.93,2.36-31.08,13.19-8.61,7.68-13.17,16.94-15.61,28.48s-8.41,18.71-7.81,30.51c.31,5.91-2.72,16.74-1,22.37,1.35,4.38.35,12,2,16.27,2.52,6.76,1.93,14.37,4.13,21.24C150.3,235.07,170.22,254.34,194,259Z" style="fill:#e5997a"/><path id="CheekShadowR" d="M244.15,100.53a57.67,57.67,0,0,1,1.53,11.4l2,29.23a27.5,27.5,0,0,1-.28,8.2c-1,4.11-3.87,7.52-4.88,11.63s0,8.58.74,12.83A109.32,109.32,0,0,1,239,228.2a53,53,0,0,0,11.68-27.59c1-9.69.86-17.48,1-30,.22-20.18,1.63-41.15-4.41-60.33-2-6.34-4.68-12.58-5-19.25" style="fill:#db826a"/><path id="CheekShadowL" d="M144.61,108.55a77.23,77.23,0,0,0-1.1,11.26l-1.4,28.87a36,36,0,0,0,.2,8.1c.71,4.06,2.75,7.43,3.47,11.49s.07,8.48-.52,12.67c-2.86,20.15.07,34.39,7.88,50.66-4.5-7.66-12.48-14.21-13.21-24.2-.71-9.57-3.29-18.32-3.39-30.72a255.29,255.29,0,0,1,5.82-58.53c1.43-6.26,3.35-12.43,3.59-19" style="fill:#db826a"/><path id="CheekShineR" d="M239.47,225.3a118.47,118.47,0,0,1-26.35,25.2c7.68-1.8,13.86-7.56,19.47-13.3,4.43-4.53,10.1-10.42,10.7-17.25C241.78,221.23,240.72,223.67,239.47,225.3Z" style="fill:#f7b29a"/><path id="CheekShineL" d="M151.65,225.3a111.46,111.46,0,0,0,23.41,25.2c-6.81-1.8-12.3-7.56-17.29-13.3-3.94-4.53-9-10.42-9.51-17.25C149.6,221.23,150.54,223.67,151.65,225.3Z" style="fill:#f7b29a"/><path id="InsideMouth" d="M221.53,205.69s-10.91,8.68-25,7.91c-16.35-.89-24.95-7.91-24.95-7.91S178,225,184.19,227.59c5.8,2.44,17.41,5.7,23.71.67C215.1,222.51,221.53,205.69,221.53,205.69Z" style="fill:#c47474"/><path id="Tongue" d="M202.57,228.83a7.92,7.92,0,0,0,4.35-2.24c1.17-1.2,2-3,1.29-4.55-.8-1.82-3.2-2.33-5.17-2s-3.84,1.21-5.83,1.22c-2.92,0-5.83-1.87-8.61-1a4.54,4.54,0,0,0-2.93,5.71,4.77,4.77,0,0,0,.43.95,6.63,6.63,0,0,0,2.21,2.1,17.77,17.77,0,0,0,10.16,2.23,8,8,0,0,0,2.65-.43,9.21,9.21,0,0,0,3.54-3.1" style="fill:#9e3838"/><path id="LowerTeeth" d="M179.22,214.06a18.29,18.29,0,0,0,7.15,1.39,133.19,133.19,0,0,0,25.33-.59c1.5-.2,3.11,0,4.29-1s3.15-4.25,2.22-5.45c-9,.07-18.51,1-27.54,1.06-2.25,0-4.49,0-6.73-.07-1.42-.06-4.68-.08-6.34-.29C175.23,208.85,178,213.44,179.22,214.06Z" style="fill:#fff"/><path id="UpperTeeth" d="M184.69,229.27a8.92,8.92,0,0,0,4.77,1.51,60.51,60.51,0,0,0,17-.19c1-.17,2.09,0,2.91-.88s2.21-4.19,1.62-5.4c-6.07-.08-12.47.68-18.54.6a40.27,40.27,0,0,1-4.52-.17c-1-.09-3.15-.16-4.26-.4C182.13,224,183.85,228.63,184.69,229.27Z" style="fill:#fff"/><path id="LowerLip" d="M171.59,205.32c4.32,6.67,5.55,19.86,18.19,22,5.83,1,8,.77,13.77.3,10-.82,16.06-17.79,18-22.25-2,3.68-2.29,15.88-9.19,25-1.57,2.07-7.21,5.6-8.39,5.76a53.56,53.56,0,0,1-15.06-.62c-2.32-.48-7-3.54-9.48-5.66C175.26,226.23,173.38,209.68,171.59,205.32Z" style="fill:#d66ba9"/><path id="UpperLip" d="M221.55,205.32c-4.65,5.56-15.4,1.16-16.43,1.09-4.21-.3-8,2.9-10.77,1.51-3.62-1.81-6.54-2-7.55-1.65-11.07,3.82-13.62.2-15.16-1-.13-.1,5.15,5.12,8.77,6.14s8.29.8,12,1c5.11.21,16.35.76,21.3-1.31C216.35,210,220.18,208.27,221.55,205.32Z" style="fill:#c65d90"/><path id="LipWrinkleL" d="M174.49,204.44a2.17,2.17,0,0,0-2.9.88,4.28,4.28,0,0,0-.31,1.73l-.14,4.09a9,9,0,0,1-1.25-6c.2-1.29,1-2.77,2.28-2.78s1.94,1.08,2.33,2.13" style="fill:#db826a"/><path id="LipWrinkleR" d="M217.86,204.44a3.18,3.18,0,0,1,3.69.88,3.26,3.26,0,0,1,.39,1.73l.18,4.09a7.36,7.36,0,0,0,1.6-6,3.19,3.19,0,0,0-2.91-2.78,3.43,3.43,0,0,0-3,2.13" style="fill:#db826a"/><path id="ChinShadow" d="M194.67,240.63a32.73,32.73,0,0,0,7.13-.32,16.84,16.84,0,0,0,3.84-.75c.32-.11.6-.61.28-.66a21.18,21.18,0,0,1-5,5.3,7.24,7.24,0,0,1-7,.83,10.36,10.36,0,0,1-2.92-2.52c-.87-1-2.72-2.26-2.07-3.7C190.88,239.47,192.52,240.42,194.67,240.63Z" style="fill:#db826a"/></g></svg>