<svg id="HeadO" xmlns="http://www.w3.org/2000/svg" viewBox="0 0 400 400"><g id="MouthO"><path id="Face" d="M193.88,255.94c13.7-.68,26-8.59,36.16-17.83,7.5-6.83,14.36-14.78,17.73-24.36,2-5.85,2.73-12.08,3.27-18.26a481.55,481.55,0,0,0,1.4-61.6c-.39-9.49-1.09-19.06-3.84-28.15S240.88,88,233.26,82.3s-18.09-7.93-26.9-4.39c.11-.22.95-.94,1.06-1.15-4.53.54-11,1.73-15.58,2.28-16.26,2-19.4,2.31-31.84,13-8.83,7.55-13.5,16.66-16,28s-8.62,18.4-8,30c.31,5.81-2.79,16.46-1,22,1.39,4.31.36,11.78,2,16,2.58,6.64,2,14.12,4.24,20.88C149.1,232.41,169.5,251.35,193.88,255.94Z" style="fill:#e5997a"/><path id="CheekShadowR" d="M245.26,100.12a54.37,54.37,0,0,1,1.57,11.21l2,28.74a25.66,25.66,0,0,1-.28,8.06c-1,4.05-4,7.4-5,11.44s0,8.44.75,12.62a103.37,103.37,0,0,1-4.3,53.47,51.08,51.08,0,0,0,12-27.13c1-9.53.87-17.19,1-29.53.23-19.84,1.66-40.46-4.52-59.32-2-6.23-4.8-12.37-5.15-18.93" style="fill:#db826a"/><path id="CheekShadowL" d="M143.26,108a73.51,73.51,0,0,0-1.12,11.08l-1.44,28.38a35.09,35.09,0,0,0,.2,8c.73,4,2.83,7.3,3.57,11.29s.07,8.35-.54,12.47C141,199,144,213,152,229c-4.6-7.54-12.78-14-13.54-23.8-.72-9.41-3.37-18-3.47-30.2a241.14,241.14,0,0,1,6-57.55c1.46-6.16,3.43-12.22,3.68-18.7" style="fill:#db826a"/><path id="CheekShineR" d="M240.47,222.8a119.38,119.38,0,0,1-27,24.78c7.86-1.77,14.19-7.43,19.94-13.08,4.54-4.45,10.35-10.25,11-17C242.83,218.8,241.75,221.2,240.47,222.8Z" style="fill:#f7b29a"/><path id="CheekShineL" d="M150.48,222.8a111.31,111.31,0,0,0,24,24.78c-7-1.77-12.61-7.43-17.72-13.08-4-4.45-9.2-10.25-9.75-17C148.38,218.8,149.34,221.2,150.48,222.8Z" style="fill:#f7b29a"/><path id="InsideMouth" d="M215.85,212.88s-8.62.31-21.68.43c-16.19.15-19.79-.92-19.79-.92s2.76,10.79,9,12.73c5.84,1.81,14.55,2.77,22.15.66C214,223.42,215.85,212.88,215.85,212.88Z" style="fill:#c47474"/><path id="UpperTeeth" d="M182.92,214.14c1.72.64,1.43.34,3.16,1,6.89,2.48,12.71.8,19.95-.52a9.1,9.1,0,0,0,3.2-.77c.93-.56-.84.16-1.56-.55a160.07,160.07,0,0,1-18.06-.66c-1.75-.17-2.53.12-4.29.06-1.11,0-3.29.73-4.59.6C178.88,213.08,181.92,213.78,182.92,214.14Z" style="fill:#fff"/><path id="Tongue" d="M201.22,229.28a7.82,7.82,0,0,0,4.35-2.24c1.17-1.19,2-3,1.29-4.54-.8-1.83-3.2-2.34-5.17-2s-3.84,1.22-5.83,1.23c-2.92,0-5.83-1.88-8.61-1a4.55,4.55,0,0,0-2.93,5.73,4.69,4.69,0,0,0,.43.94,6.63,6.63,0,0,0,2.21,2.1,17.83,17.83,0,0,0,10.16,2.23,8.23,8.23,0,0,0,2.65-.44,9.19,9.19,0,0,0,3.54-3.09" style="fill:#9e3838"/><path id="LowerTeeth" d="M181.81,225a12.31,12.31,0,0,0,5.24,1.15,87.35,87.35,0,0,0,18.57-.5c1.1-.16,2.29,0,3.15-.78s2.48-3.23,1.81-4.22c-6.49.3-11.58.77-20.38.62-1.65,0-3.29,0-4.94-.06-1-.05-3.54,0-4.75-.15C178.77,220.84,180.88,224.52,181.81,225Z" style="fill:#fff"/><path id="LowerLip" d="M172.48,211c10.23,3.84,10,7.68,16.46,10.08a15.41,15.41,0,0,0,13.25-.75c6.63-3.5,4.06-3.94,15.51-8.84-2,3.69-.66,7.31-7.56,16.39-1.57,2.07-8.11,4-9.3,4.12a41.19,41.19,0,0,1-13.25-.17c-2.32-.48-6.27-2.92-8.77-5C174.66,223.21,174.26,215.32,172.48,211Z" style="fill:#d66ba9"/><path id="UpperLip" d="M218,210.62c-6.11,4.15-16.13-3-17.16-3-4.21-.3-5.82,3.19-8.3,2.09-3.71-1.64-4.82-2.2-5.79-1.77-11.22,5-12.32,3.13-14.23,3.31-.92.09,7.67,3.74,12.36,3.29,4-.39,5.49,0,9.2.11,5.11.21,7,1.18,12,.22C208.73,214.32,216.59,213.57,218,210.62Z" style="fill:#c65d90"/><path id="LipWrinkleL" d="M175.47,211.09a2.16,2.16,0,0,0-2.89.87,4.29,4.29,0,0,0-.31,1.74l-.14,4.09a9,9,0,0,1-1.25-6c.19-1.3,1-2.77,2.28-2.78,1.12,0,1.94,1.08,2.33,2.13" style="fill:#db826a"/><path id="LipWrinkleR" d="M214,211.58a3.17,3.17,0,0,1,3.69.87,3.48,3.48,0,0,1,.4,1.74l.17,4.09a7.36,7.36,0,0,0,1.6-6A3.19,3.19,0,0,0,217,209.5a3.41,3.41,0,0,0-3,2.13" style="fill:#db826a"/><path id="ChinShadow" d="M192.77,237.29a34,34,0,0,0,7.13-.33,16.84,16.84,0,0,0,3.84-.75c.32-.11.6-.61.28-.66a21.18,21.18,0,0,1-5,5.3,7.24,7.24,0,0,1-7,.83,10.49,10.49,0,0,1-2.92-2.51c-.87-1-2.73-2.27-2.08-3.71C189,236.12,190.62,237.07,192.77,237.29Z" style="fill:#db826a"/></g></svg>