<svg id="HeadP" xmlns="http://www.w3.org/2000/svg" viewBox="0 0 351.4 310.5"><g id="Man-TOP"><path id="EyeNoseShadeR" d="M179.6,99.5a10.75,10.75,0,0,0-2.2,5.3c-.2,3,1.8,5.8,4.1,7.8-1.8-6.4.2-12.5,2.6-18.4C182.5,94.6,180.6,98.2,179.6,99.5Z" style="fill:#f7aa8b"/><path id="EyeNoseShadeL" d="M164.2,99.8a10.79,10.79,0,0,1,2,5.2c.2,3-1.6,5.7-3.7,7.6,1.6-6.2-.2-12.2-2.3-18C161.6,95,163.4,98.5,164.2,99.8Z" style="fill:#f7aa8b"/><path id="SideNoseShadowR" d="M181.9,122a49.38,49.38,0,0,0,5.6,10.7,11.81,11.81,0,0,1-4.7,4.7c-.2.1-3.4-10.4-3.6-11.4-.2-1.4-.9-4.2-.2-5.5C180.1,118.5,181.5,120.9,181.9,122Z" style="fill:#f8b591"/><path id="SideNoseShadowL" d="M163.2,122.2a60.71,60.71,0,0,1-5.7,11.4,12.75,12.75,0,0,0,4.8,5,122.76,122.76,0,0,0,3.6-12.2c.2-1.5,1-4.4.2-5.9C165,118.4,163.6,121,163.2,122.2Z" style="fill:#f8b591"/><path id="BrowR" d="M192.7,77.7a27.43,27.43,0,0,1,18.5,3.8,21,21,0,0,1,9.7,15.8c-6.1-7-16.3-9.4-25.6-8.3-4.2.5-7.8-.1-9.3-4.7C184.6,80.1,189.3,78.2,192.7,77.7Z" style="fill:#36251e"/><path id="BrowL" d="M154.3,78.7a28.73,28.73,0,0,0-19,3.8c-5.5,3.5-9.6,9.4-10,15.8,6.3-7,16.8-9.4,26.3-8.3,4.3.5,8-.1,9.6-4.7C162.7,81,157.8,79.1,154.3,78.7Z" style="fill:#36251e"/><path d="M157.2,137.5a3.47,3.47,0,0,0-2.6,3.6,3.87,3.87,0,0,0,3,2.9,10.38,10.38,0,0,0,4.3,0,9,9,0,0,1,7,.8l2.8,1.3a.37.37,0,0,0,.3.1c.2,0,.2-.2.3-.4,1.7-5.3-2.7-2.6-6.6-5.4C163.2,138.6,160.6,136.6,157.2,137.5Z" style="fill:#f7aa8b"/><path d="M187.8,137.5a3.46,3.46,0,0,1,2.7,3.6,3.87,3.87,0,0,1-3,2.9,11.36,11.36,0,0,1-4.5,0,13.61,13.61,0,0,0-4.5-.2,12.34,12.34,0,0,0-2.7,1l-2.9,1.3a.37.37,0,0,1-.3.1c-.2,0-.2-.2-.3-.4-1.8-5.3,4.2-2.7,6.8-5.4C182.5,136.8,184.4,136.5,187.8,137.5Z" style="fill:#f7aa8b"/><path d="M162.6,142.5l-1.6-.3a3.6,3.6,0,0,0-2.7.1c-.8.4-1.2,1.7-.4,2.2a1.9,1.9,0,0,0,1.3.2,4.88,4.88,0,0,0,2.1-.4,1.84,1.84,0,0,0,1.2-1.7,2.76,2.76,0,0,0-1.3-.2" style="fill:#d98867"/><path d="M182.2,142.5l1.7-.3a3.87,3.87,0,0,1,2.8.1c.8.4,1.2,1.7.4,2.2a1.9,1.9,0,0,1-1.3.2,5.37,5.37,0,0,1-2.2-.4,1.84,1.84,0,0,1-1.2-1.7,3,3,0,0,1,1.3-.2" style="fill:#d98867"/><path d="M157.1,134.9c-.5.9-.9,1.7-1.3,2.6s-.58,1.79-.8,2.7a2.9,2.9,0,0,0,.5,2.4,6.54,6.54,0,0,0,2.3,1.7,5,5,0,0,1-2.8-1.2,3.84,3.84,0,0,1-.9-1.5,4.3,4.3,0,0,1,0-1.6,10,10,0,0,1,1-2.9A10.22,10.22,0,0,1,157.1,134.9Z" style="fill:#d98867"/><path d="M187.5,134.9a8.19,8.19,0,0,1,2.6,2.3,7.1,7.1,0,0,1,1.4,3.2,3.05,3.05,0,0,1-.3,1.9,3,3,0,0,1-1.4,1.3,6.45,6.45,0,0,1-3.3.8,9.51,9.51,0,0,0,2.8-1.6,2.46,2.46,0,0,0,1.1-2.4,10.28,10.28,0,0,0-1.1-2.9C188.74,136.6,188.14,135.74,187.5,134.9Z" style="fill:#d98867"/><path d="M167.8,136.8a6.39,6.39,0,0,0-.2,3.1,4.18,4.18,0,0,0,2.4,2.8,6.8,6.8,0,0,0,3.7.5,4.52,4.52,0,0,0,1.8-.7,5,5,0,0,0,1.6-3.4,8.27,8.27,0,0,0-.1-3.5c-.6-1.6-3-5.2-5.1-4.7S168.4,135,167.8,136.8Z" style="fill:#ffd7c2"/><path d="M217.9,61.6a29.15,29.15,0,0,1,3.5,4.4,28.89,28.89,0,0,1,2.6,7.5c2.1,8.6,4.2,17.3,4.7,26.2.2,3.1.1,6.2,1.2,9.1,3.1-7,7.4-6.6,8.9-14.1,1.6-8.4-1.5-28-3.5-35.3-2.4-8.7-6.1-17.4-12.6-23.7-4.2-4.1-10.4-7-15.6-9.7.1,3.3.8,6.7.1,10-.5,2.5-2.9,4-4.1,6.3-1.4,2.5.9,4,2.8,6.1C209.7,52.7,213.8,57.1,217.9,61.6Z" style="fill:#614432"/><path d="M209.1,34.9a11.88,11.88,0,0,1-1,3.7c-1.2,2.6-3.8,4.4-6.4,5.7,2.6-4.2,3.8-9.2,4.5-14.1.2-1.5.4-3.3-.6-4.5a5.33,5.33,0,0,1,2.4,1.1,7.63,7.63,0,0,1,.8,2.6A16.93,16.93,0,0,1,209.1,34.9Z" style="fill:#36251e"/><path d="M148.3,38.1a77.57,77.57,0,0,1,19.1,2.7c-4.4-8.1-16.1-13.6-24.7-15.2-3.4-.6-7.1-.8-10.1.9a19.52,19.52,0,0,0-3.8,3.1L114.2,43.8c-3.1,3-6.2,6.1-7.9,10-2.1,4.7-1.9,10.1-1.6,15.2.5,11.3.2,17.3.7,28.6,2.4,0,4.6,3.4,5.8,5.5,2.1,3.4,2,7.4,4.8,7.5,0-6.2.3-10,.6-16,.5-8.9,3.7-17.7,5-26.5l1-7.1a14.84,14.84,0,0,1,1.1-4.5c1.4-3.1,4.4-5.1,7.4-6.7a72.71,72.71,0,0,1,28.5-8.3,44.51,44.51,0,0,1,14.1.7c5.5,1.3,10.9,2.8,16.4,4.3a20.51,20.51,0,0,0,4.9,1c4.7.1,9.1-3.3,11.1-7.5s2-9.3,1.2-13.9c-.6-3.5-2.9-6.8-5.1-9.5s-4.5-3.1-8-2.3c-1.2.3-2.7-.4-4-.5a7.18,7.18,0,0,1-2.5-.8c-3-1.4-8.8-2.2-12.1-2.2-11.4-.1-17.5,2.7-28.6,6-5.7,1.7-10.7,5.8-14.3,10.6a19.54,19.54,0,0,0-3.7,8c-.3,1.7-1.1,7.1,1.1,7.7.9.2,3-1.4,3.9-1.8a26,26,0,0,1,4.7-1.6A26.86,26.86,0,0,1,148.3,38.1Z" style="fill:#614432"/><path d="M196.8,44.5a16.72,16.72,0,0,0,3.8-5.7c1.9-4.4,2.9-9.5,1.4-14s-6.3-8.2-11-7.2a11.86,11.86,0,0,0-4.4,2.1c-3.1,2.3-5.8,5.6-6.2,9.4a7.4,7.4,0,0,1,8.4-3.9c4,1.1,6.3,5.7,6.1,9.9-.1,3.5-1.6,6.4-3,9.6C190.3,48.2,195.4,45.7,196.8,44.5Z" style="fill:#9c7659"/><path d="M187.4,30.3l-2.5,8.6c-.4,1.4-1.2,3.6-.5,4.9.8,1.5,2.5,1.9,4.2,2.3.9.2,2.2,1,3,.5.6-.4,1.2-2,1.5-2.6a28,28,0,0,0,2.2-9.5A11.46,11.46,0,0,0,192,27a7.69,7.69,0,0,0-4.4-1.9c-.8,5.2-1.1,10.1-2.7,15.1" style="fill:#36251e"/><path d="M183.3,45.1c.8-6-1.5-12-4.9-17.1a13.63,13.63,0,0,0-2.6-3.3,18.07,18.07,0,0,0-14-3.8c-4.6.8-13,2.7-17.1,5-7.5,4.2-13.3,6.9-16.2,15.6,4.7-3.5,11.7-3.2,17.5-3.8,3.5-.4,7,.2,10.5.7,4.3.5,7.8,2,11.6,3.1,2.6.7,5.2.5,7.8,1.1C176.6,42.8,183.4,44.5,183.3,45.1Z" style="fill:#9c7659"/><path d="M172.5,30.5a32.42,32.42,0,0,0-10.9-2.8A40.51,40.51,0,0,0,149.1,29c-8,1.9-14.8,7-21.1,12.2A50.33,50.33,0,0,1,149.6,34a46.94,46.94,0,0,1,14,.3,31.26,31.26,0,0,1,8.1,2.3c2.1,1,9.6,8.1,11.6,8.5C182.3,40.2,177,32.5,172.5,30.5Z" style="fill:#36251e"/><path d="M164.5,37.2a20.41,20.41,0,0,0-6-1.5c-5-.7-10.3-.7-15.1,1.1a70.58,70.58,0,0,1,13,.3,27.16,27.16,0,0,1,6.4,1.6c2,.8,3.8,2.2,5.8,3C169.2,39.7,165.9,37.8,164.5,37.2Z" style="fill:#36251e"/><path d="M122.2,60.9c0-2.8,1.9-5.3,3.9-7.3a30.6,30.6,0,0,1,9.3-6.5,20.66,20.66,0,0,1,3.5-1.2c3.4-1.1,6.9-2.1,10.4-3a3.33,3.33,0,0,0-1.4-1.2c-3.6-1.7-7.9-.8-11.7.3a33,33,0,0,0-9,4,15.27,15.27,0,0,0-6.1,7.4,10.47,10.47,0,0,0,1,9.4l.8-4.9" style="fill:#36251e"/><path d="M119.6,38.2a28.09,28.09,0,0,0-3.1,18,27.46,27.46,0,0,1-3.9-6.6,3.89,3.89,0,0,1-.3-2.1,4,4,0,0,1,.6-1.5,30.16,30.16,0,0,1,7.1-8.4l-1.4,2.2" style="fill:#36251e"/><path d="M113.3,91.4a17,17,0,0,1-2.4,5.3,4.07,4.07,0,0,0,3.9-2.9c-.2,2,1.1,5,1.4,7s-.4,8-.6,9.8c-.2.6-.3,1.1-1.3-.1s-4.7-9-5.8-10.1-1.9-1.9-3.4-1.9c.2-.1-.2-1.7.1-2.2s1.7-.8,2.4-1.1A21.83,21.83,0,0,0,113.3,91.4Z" style="fill:#36251e"/><path d="M106.7,77.9a20.13,20.13,0,0,0,9.9-5.9,3.29,3.29,0,0,0,1.2-3,9,9,0,0,1-1.8,9.3,5.93,5.93,0,0,1-2.9,1.8,5.59,5.59,0,0,1-2.6-.2,8.16,8.16,0,0,1-4.3-2.2c-.1-.1-.2-.2-.1-.3S106.8,77.9,106.7,77.9Z" style="fill:#9c7659"/><path d="M106.3,65c0,.2.3.2.5.2a16.22,16.22,0,0,0,9.6-4.7,21.71,21.71,0,0,1-1.2,3.3,6.64,6.64,0,0,1-2.5,3.2,4.24,4.24,0,0,1-3.8,0A5.21,5.21,0,0,1,106.3,65Z" style="fill:#9c7659"/><path d="M232.9,61.8l-2.9,1a14,14,0,0,1-1.9.5,7,7,0,0,1-5.4-1.4,12.09,12.09,0,0,1-3.8-4.3c-.4-.6-.7-1.2-1.1-1.9,2.4,1.1,4.4,3.2,7,4.3C226.6,60.9,230.8,62.6,232.9,61.8Z" style="fill:#9c7659"/><path d="M236.6,74.1a7.39,7.39,0,0,1-5.2-1.1,19.56,19.56,0,0,1-4-3.6l-2.9-3c.3,1.2.8,2.3,1.1,3.5a20.93,20.93,0,0,0,1,3.3,27.14,27.14,0,0,0,1.7,2.9,7.29,7.29,0,0,0,2.7,2.5,4,4,0,0,0,3.9-.6,4.61,4.61,0,0,0,1.7-3.9C236.7,73.7,237,74,236.6,74.1Z" style="fill:#9c7659"/><path d="M229.1,86.6a52.69,52.69,0,0,1,3.4,6.1l-4.2-3.4c1.2,1.7,1.3,3.9,1.9,5.9a30.39,30.39,0,0,1,.5,6.8,32.67,32.67,0,0,1-.8,6.9,11.72,11.72,0,0,1,4-5.8,16.07,16.07,0,0,0,4.4-4.6c-.3.1.6-3.5.5-3.7-.4-1-2.6-1.7-3.5-2.1A18.1,18.1,0,0,1,229.1,86.6Z" style="fill:#36251e"/><path id="rt_eye_wht" data-name="rt eye wht" d="M201,100.3a14,14,0,0,1,13.7,5.8,2.25,2.25,0,0,1,.6,1.6c-.1.9-1,1.4-1.9,1.7a40.22,40.22,0,0,1-19.7,2.8c-3-.3-10.3-1.9-6.9-5.9C189.3,103.3,197.2,100.8,201,100.3Z" style="fill:#fff"/><circle cx="198.9" cy="106.9" r="7.3" style="fill:#3b322e"/><circle cx="197.7" cy="106.4" r="3.2"/><path d="M196.5,112.3c-4.2-.2-7.9-.7-10.6-3.9-.3,1.5-.4,2.5.8,3.4a10.46,10.46,0,0,0,4.5,1.9,39.67,39.67,0,0,0,7.7.5,53.76,53.76,0,0,0,9.8-1c1.8-.4,7.1-2.7,7.5-4.8-.9-.1-2.7,1.1-3.5,1.5a35,35,0,0,1-4.2,1.5A40.34,40.34,0,0,1,196.5,112.3Z" style="fill:#f8b591"/><path id="eyelash" d="M208.5,101.2a16.47,16.47,0,0,0-8.8-.6,34.58,34.58,0,0,0-8.4,2.8,13.49,13.49,0,0,0-4.2,2.8,13.07,13.07,0,0,1-1.9,2.1.63.63,0,0,1-.4.1c-.2.1-.4-.1-.5-.3h0V108a3.24,3.24,0,0,1,.3-1.4c1-2.3,2.7-3.6,4.8-5a21.17,21.17,0,0,1,6.7-3,22.72,22.72,0,0,1,8.6-.8,13.43,13.43,0,0,1,3.4,1,12.86,12.86,0,0,1,2.4,1.6,11.23,11.23,0,0,1,2.7,2.2,13.21,13.21,0,0,1,2,2.7,3.67,3.67,0,0,1,.7,2.5c0,.5-.6-.6-.8-.9a11.49,11.49,0,0,0-1-1.4,10.28,10.28,0,0,0-2.4-2.3A14,14,0,0,0,208.5,101.2Z"/><path id="unereye" d="M191.6,114.6a1,1,0,0,1-.9-.8,51.51,51.51,0,0,0,16.2-.5,3,3,0,0,1-2.1,1.7,23.8,23.8,0,0,1-8.4.7c-2.2-.1-4.6-.3-6-2" style="fill:#f7aa8b"/><path d="M193.7,98.7a29.6,29.6,0,0,1,7.2-2.1,10.11,10.11,0,0,1,7.2,1.5,5.62,5.62,0,0,0-3.4-3.5c-2.3-.9-4.8-.2-7.1.6s-5.5,2-6.7,4.2C191.6,99.9,193.1,99,193.7,98.7Z" style="fill:#e7997b"/><path d="M194.3,94.6a6.92,6.92,0,0,0-2.1,1.1,3,3,0,0,0-1.3,2V98c.1.2.4.1.7,0a35.46,35.46,0,0,1,4.3-2.4c.5-.2,1.6-.5,1.1-1.1S194.8,94.4,194.3,94.6Z" style="fill:#ffd7c2"/><path id="rt_eye_wht-2" data-name="rt eye wht-2" d="M143.2,100.8a14.59,14.59,0,0,0-14.1,5.8,2.25,2.25,0,0,0-.6,1.6c.1.9,1.1,1.4,1.9,1.7a42.65,42.65,0,0,0,20.3,2.8c3.1-.3,10.6-1.9,7.1-5.9C155.2,103.7,147.1,101.3,143.2,100.8Z" style="fill:#fff"/><ellipse cx="145.4" cy="107.3" rx="7.6" ry="7.3" style="fill:#3b322e"/><ellipse cx="145.7" cy="106.8" rx="3.4" ry="3.2"/><path d="M147.9,112.8c4.4-.2,8.1-.7,10.9-4,.3,1.5.4,2.5-.8,3.4a11.57,11.57,0,0,1-4.6,1.9,42,42,0,0,1-8,.5,57.06,57.06,0,0,1-10.1-1c-1.8-.4-7.3-2.7-7.7-4.8.9-.1,2.8,1.1,3.6,1.5a36.48,36.48,0,0,0,4.3,1.5A46.53,46.53,0,0,0,147.9,112.8Z" style="fill:#f8b591"/><path id="eyelash-2" d="M135.5,101.6a16.59,16.59,0,0,1,9.1-.6,38.08,38.08,0,0,1,8.7,2.8,12.26,12.26,0,0,1,4.3,2.8c.8.8,1.3,1.6,1.9,2.1a.63.63,0,0,0,.4.1.38.38,0,0,0,.48-.23.25.25,0,0,0,0-.07h0a3.9,3.9,0,0,0-.3-1.5c-1-2.3-2.8-3.6-4.9-5a22.34,22.34,0,0,0-6.9-3,24.3,24.3,0,0,0-8.9-.8,14.16,14.16,0,0,0-3.5,1,21.18,21.18,0,0,0-2.5,1.6,11.94,11.94,0,0,0-2.8,2.2,14.08,14.08,0,0,0-2.1,2.7,3.35,3.35,0,0,0-.6,2.4c0,.5.6-.6.8-.9a7.46,7.46,0,0,1,1.1-1.4,13.06,13.06,0,0,1,2.4-2.3A19,19,0,0,1,135.5,101.6Z"/><path id="unereye-2" d="M149.8,115a1,1,0,0,0,.9-.8,55,55,0,0,1-16.7-.5,3,3,0,0,0,2.2,1.7,25.5,25.5,0,0,0,8.7.7c2.2-.1,4.8-.3,6.1-2" style="fill:#f7aa8b"/><path d="M150.7,99.2a32.89,32.89,0,0,0-7.4-2.1,10.63,10.63,0,0,0-7.4,1.5,6.21,6.21,0,0,1,3.5-3.6c2.3-.8,4.9-.2,7.3.6s5.7,2,6.9,4.2C152.9,100.4,151.3,99.4,150.7,99.2Z" style="fill:#e7997b"/><path d="M150.1,95a15.06,15.06,0,0,1,2.2,1.1,3.52,3.52,0,0,1,1.4,2v.3c-.1.2-.5.1-.7,0a36.73,36.73,0,0,0-4.4-2.4c-.5-.2-1.6-.5-1.1-1.1S149.6,94.8,150.1,95Z" style="fill:#ffd7c2"/></g></svg>