<svg id="HeadP" xmlns="http://www.w3.org/2000/svg" viewBox="0 0 351.4 310.5"><g id="Man-BASE"><path d="M9.4,310.4c-2.5-9.2.2.5,0,0-1.7-5,.2.5,0,0-1.7-6.7-1.9-9.9-2.4-16.8-.4-6.3-.4-12.8,1.1-18.9,3.5-14.1,14.6-25.4,27.3-32.7s26.8-11.3,40.7-15.8a533.72,533.72,0,0,0,64.4-25.6c-.1,0-.2,1.4-.3,1.4,19.3-.2,38.2-1.3,57.5-1.4a50.34,50.34,0,0,1,9.5.6c5,1.1,9.4,3.8,13.7,6.4a220.76,220.76,0,0,0,59.5,23.9,130.23,130.23,0,0,1,23.4,8.3c23.7,10.5,39,20.3,40.9,61.8.2,4.2.2-.7.1,3.6l-.1,4.2c0,.4,0,.9.4,1s.6-.6.2-.6c0-.6-1.6.3-2.2.3-9-.1-17.9-.5-26.9-.5Z" style="fill:#c9d5ee"/><path d="M86.6,233.7c-13.8,5.9-27.9,11.5-40.8,19s-25,17.3-33.2,29.9c-2.2,3.5-4.2,7.3-4.5,11.4,0-21.3,5.1-35,17.4-44,6.2-4.6,12.7-7.9,19.6-11.4a251.73,251.73,0,0,1,59.1-21.5,58.59,58.59,0,0,1,14.5-1.8,23.74,23.74,0,0,1,12.4,3.8c-3.8-3.1-17,3.6-21.1,5.2C102,227.1,94.3,230.4,86.6,233.7Z" style="fill:#b3c3e2"/><path d="M264.8,236c13.8,5.9,27.7,11.5,40.6,19s24.9,17.3,33,29.9c2.2,3.5,4.2,7.2,4.5,11.4,0-21.3-4.1-34.2-16.3-43.2-6.2-4.6-15.6-10.6-22.9-13.2-23.4-8.3-58.8-19.8-77.3-27.3-4.5-1.8,1.8,4.9-3,5-4.4.2,1,1.2-2.7,3.6,3.7-3.1,16.9,3.6,21,5.2C249.6,229.4,257.2,232.7,264.8,236Z" style="fill:#b3c3e2"/><path d="M103.1,290.9c-.9-2-.2-6.2-.3-8.5-.1-3.2-.2-6.4-.2-9.6,0-6,.8-12.3.3-18.3-3.7,2.8-3.8,13.4-3.8,17.6A48.67,48.67,0,0,0,103.1,290.9Z" style="fill:#b3c3e2"/><path d="M138.2,263.9c-3.7.8-7,2.7-10.2,4.5a106.58,106.58,0,0,0-12.7,8.2c-3.2,2.5-5.7,6.2-8.8,8.6,0-4.7,4.8-10.2,8.2-13.2A33.44,33.44,0,0,1,138.2,263.9Z" style="fill:#b3c3e2"/><path d="M220.5,267.4a19.1,19.1,0,0,1,5.8,1,16.69,16.69,0,0,1,9.1,9,35.39,35.39,0,0,1,2.7,12.8c-2.4-7.4-9-13.1-16.4-15.5a32.72,32.72,0,0,0-11.2-1.6c-3.4.1-7.2,1.5-10.3,1.2C200.5,268.4,216.3,267.2,220.5,267.4Z" style="fill:#b3c3e2"/><path d="M238.8,284.7c1.9-8.2,7.6-16.9,4.1-25.7-2.8,1.5-1.6,8.1-1.8,10.9A93.55,93.55,0,0,1,238.8,284.7Z" style="fill:#b3c3e2"/><path d="M133.5,194.4c-6.8,3.2-13.9,6.7-18.4,12.8-3.2,4.4-4.8,9.7-6,15-1.5,6.4-2.6,12.9-3.6,19.4-2.7,16.3-5.4,33.1-1.2,49.1.9-7.1,5.3-13.4,10.6-18.3,4.8-4.4,10.6-7.9,17.1-8.6s13.5,2,16.8,7.6l-1.9-3.3C134.1,246.4,132.7,219.5,133.5,194.4Z" style="fill:#c9d5ee"/><path d="M238.2,286.2a22.49,22.49,0,0,0-40.3-10.9c13.5-23.1,16.3-51,15.8-77.8-.1-2.9-.4-6.4,1-8.9,5.2,3.8,9.8,13.7,12.8,19.4a115.86,115.86,0,0,1,9.7,24.9A113,113,0,0,1,238.2,286.2Z" style="fill:#c9d5ee"/><path id="neck" d="M172.5,301.6c-25.2-16-35.3-45.6-38.4-74.5-.7-6.3-.9-12.6-1.1-18.9l-1-29.9c14.3,3.9,28.9,0,43.7-.9,12.8-.8,28-2,40.6-.4,2.8,25.1-1.9,52-9.2,76.2a76.14,76.14,0,0,1-7.4,17.7c-6.5,11-13.7,19.9-23.1,30.8C176.5,300.9,172.6,302.3,172.5,301.6Z" style="fill:#f9be9d"/><path id="neck_shade" data-name="neck shade" d="M130.6,182.4a115.31,115.31,0,0,0,6,13.5c2,3.4,4.4,6.7,6.3,10.1a94.21,94.21,0,0,1,4.8,10.1l5.8,13.8c-1.5-6.2-2.7-12.4-3.8-18.7,16.4,4.5,34.9,6,50.2-.9a109.47,109.47,0,0,1-2.9,19.8c4.1-9.4,8.5-18.7,13.1-28,3-5.9,6-11.9,6.9-18.3a2.33,2.33,0,0,0-.3-2c-.7-1-2.3-.9-3.6-.7-20.5,3.1-41.5,4.4-62.1,2-4.1-.5-8.2-1.1-12.4-1.2A30.22,30.22,0,0,0,130.6,182.4Z" style="fill:#f09a78"/><path d="M227.7,107.6a27.77,27.77,0,0,1,6.4-6.8,10.6,10.6,0,0,1,3.8-2c3.4-.9,7,1.1,8.8,4a17.16,17.16,0,0,1,2.1,10,62.34,62.34,0,0,1-2.6,14.2c-1.6,6.2-3.6,12.7-8.1,17.2-2.3,2.3-5.9,4-8.9,2.5-2.3-1.2-3.3-4-3.9-6.5-3-12-2.8-25.4,3.9-35.8" style="fill:#f9be9d"/><path d="M237,113.7a7.24,7.24,0,0,1,1.9-2,2.93,2.93,0,0,1,2.7-.4l-3.3,8.4a4.27,4.27,0,0,0-.4,1.9,1.49,1.49,0,0,0,1.1,1.5c.4.1.7,0,1,.1s.7.3.6.7-.4.4-.7.5c-2.4.8-7.2,2-7.1-1.5C233,119.9,235.2,116.2,237,113.7Z" style="fill:#f7aa8b"/><path d="M228.9,134.1a18.09,18.09,0,0,0,1,4.6,6.21,6.21,0,0,0,7.75,4.13A6.31,6.31,0,0,0,240,141.5c-.3,1.7-2.6,3-4,4a10.09,10.09,0,0,1-4,1.7,4.19,4.19,0,0,1-3.9-1.5,4.68,4.68,0,0,1-.7-1.6c-1.2-3.9-1.2-9.2,1-12.8A9.87,9.87,0,0,1,228.9,134.1Z" style="fill:#f8b591"/><path d="M236.2,103.4c1.1-.7,3.4-.9,4.7-1.1,1.1,0,2.1.1,3.2.2,1.9.3,2.7,1.4,3.9,2.9a8.57,8.57,0,0,0-2.1-4.1,9.67,9.67,0,0,0-5.7-3,7.46,7.46,0,0,0-2.1.3c-2.3.8-5,2.2-6.2,4.4-.6,1.1-3.8,5.5-1.9,5.4C231.7,108.4,234.8,104.3,236.2,103.4Z" style="fill:#ffd7c2"/><path d="M116.2,107.6a29.54,29.54,0,0,0-6.4-6.8,10.6,10.6,0,0,0-3.8-2c-3.4-.9-7,1.1-8.9,4s-2.3,6.5-2.2,10A62.34,62.34,0,0,0,97.5,127c1.6,6.2,3.6,12.7,8.2,17.2,2.4,2.3,6,4,8.9,2.5,2.3-1.2,3.3-4,4-6.5,3-12,2.8-25.4-3.9-35.8" style="fill:#f9be9d"/><path d="M107,113.7a6.36,6.36,0,0,0-2-2,2.93,2.93,0,0,0-2.7-.4l3.3,8.4a4.27,4.27,0,0,1,.4,1.9,1.64,1.64,0,0,1-1.1,1.5c-.3.1-.7,0-1,.1s-.7.3-.6.7.4.4.7.5c2.5.8,7.3,2,7.1-1.5C110.9,119.9,108.7,116.2,107,113.7Z" style="fill:#f7aa8b"/><path d="M115.1,134.1a18.09,18.09,0,0,1-1,4.6,6.21,6.21,0,0,1-7.75,4.13A6.31,6.31,0,0,1,104,141.5c.3,1.7,2.6,3,4,4a11.71,11.71,0,0,0,4,1.7,4.11,4.11,0,0,0,3.9-1.5,4.68,4.68,0,0,0,.7-1.6c1.3-3.9,1.2-9.2-1-12.8A9.87,9.87,0,0,0,115.1,134.1Z" style="fill:#f8b591"/><path d="M107.8,103.4c-1.1-.7-3.4-.9-4.7-1.1-1.1,0-2.1.1-3.2.2-1.9.3-2.7,1.4-3.9,2.9a8.57,8.57,0,0,1,2.1-4.1,9.67,9.67,0,0,1,5.7-3,7.46,7.46,0,0,1,2.1.3c2.4.8,5,2.2,6.2,4.4.6,1.1,3.8,5.5,1.8,5.4C112.2,108.4,109.1,104.3,107.8,103.4Z" style="fill:#ffd7c2"/></g></svg>