<svg id="Woman-Head" xmlns="http://www.w3.org/2000/svg" viewBox="0 0 400 400"><g id="Woman-BASE"><path d="M273,214.22c-1.52,4.95-2.53,10.49-.3,15.17s8.94,7.37,12.81,3.93c-1.74,4.83-4,9.55-7.54,13.29s-8.37,6.44-13.5,6.5c-3.06,8.41-12.09,13.35-20.94,14.61s-17.82-.39-26.73-1.16c-14.55-1.26-29.19-.18-43.75.91l5.27,2.12C169.91,263.93,158,268,149,267c-3.67-.41-6.84.5-10.52.82-8.56.73-16.06-5.31-22.45-11.05,3.81-1,7.71-2.12,11-4.35,4-2.71,6.69-6.94,8.63-11.34,5.85-13.28,1.42-29.72-.63-44.08-.46-3.25,2.94-5.32,3.55-8.56,1.42-7.56,8.58-12.56,15.45-16a120.18,120.18,0,0,1,91.12-6.61c2.91,1,5.67-6.92,7.88-4.79,2.79,2.69,3.8-.19,6,3,2.88,4.16,8,8.23,13,9,3.71.57,11.66,8.49,13,12,1,2.57-3.94,12.06-5.37,14.41" style="fill:#b66027"/><path d="M273.2,188.23a24.12,24.12,0,0,1-13.68,0c-1.25,9.11-3.38,18.2-2.86,27.38s4.25,18.8,12.08,23.61c-3.65-1.91-8-.14-12.07.66a24.94,24.94,0,0,1-18.13-3.47,20.93,20.93,0,0,0,4.5,11.44c-10-1.65-18.18-10.14-21.43-19.85s-2.28-20.37.4-30.24a91.07,91.07,0,0,1,17.38-33.67,59.35,59.35,0,0,1,6.35-7c3.16-2.81,3.71-.16,4.84,2.81a67.22,67.22,0,0,0,8.21,15.6,45.29,45.29,0,0,0,6.6,7.37C266.54,183.94,271.6,188.71,273.2,188.23Z" style="fill:#522812"/><path d="M144.2,165.09c-4.72,1.54-8.35,5.55-10.36,10.1s-2.56,9.59-2.68,14.55c-.36,15.32,3.23,30.61,1.86,45.87-.52,5.83-2,11.95-6.12,16.07,7.11-2,14.56-2.27,21.78-3.75s14.55-4.39,19.08-10.21a24.73,24.73,0,0,0,4.7-11.76c1.67-12-3.78-24-11.3-33.51s-17.07-17.16-25.48-25.88a2.68,2.68,0,0,0,1.59-1.4" style="fill:#522812"/><path d="M130.25,252.28c-.71,2.23-1.52,4.62-3.43,6a8.32,8.32,0,0,1-5,1.28c-2.68,0-6-.85-7.55-3.25A17.18,17.18,0,0,0,130.25,252.28Z" style="fill:#522812"/><path d="M254.27,253.63a13.15,13.15,0,0,1-8.42-4.65,16.26,16.26,0,0,0,1.79,6.62,6.59,6.59,0,0,0,5.57,3.49,9.77,9.77,0,0,0,2.5-.52c1.42-.42,8.25-2.15,7.87-4.15C263.26,252.75,255.69,253.86,254.27,253.63Z" style="fill:#522812"/><path d="M161.76,280.62C140.33,293.09,125.18,294.19,102,303c-5,1.92-20.17,6.65-24.8,9.43-12.09,7.23-21.44,18.25-29.59,29.74a86.39,86.39,0,0,0-9.48,16.05c-5.79,13.56-5.68,28.92-3.74,43.53l.66-2.88c-.12.69-1.21,4-.51,3.9H356.46c.11-11.17.21-23.76-2.46-35.77-2-9-3-19-9.05-28.73-8.33-13.41-21.17-23.49-35.55-30A264.69,264.69,0,0,0,282,298c-7.58-2.5-17.9-2.52-25-7-3.77-2.38-8.66-4.06-14-5.41a157.24,157.24,0,0,0-21.65-3.72,241.56,241.56,0,0,0-66.26,2" style="fill:#ec82af"/><path d="M157.6,229.8a50.5,50.5,0,0,1-30.07,64.78c-1.49.54-3,1-4.53,1.42-2.36.61-4.82,1.08-6.89,2.38,6.37,5.09,12.53,10.53,18.89,15.61a98.16,98.16,0,0,0,9.48,7c6.64,4.12,14.17,6.61,21.76,8.49a154.89,154.89,0,0,0,37,4.55c14.38,0,25.43-2.56,38.77-8s34-26,34-26c1-2,1.6-2.9,0-3-4.84-.31-8.46-2.4-13-4-20-7-23.14-17.78-28.29-31.08s-6-28-4.55-42.15c-19.1-6.19-39.91-5.08-58.69,2C165.55,224.06,161.65,224.93,157.6,229.8Z" style="fill:#e5997a"/><path d="M163.56,250.41a27.09,27.09,0,0,0,5.88,6.21,56.65,56.65,0,0,0,9.25,6.4c10.35,5.52,23.46,5.94,33.77.36s17.24-17.27,16.41-29a17.57,17.57,0,0,0-3.42-9.84c-3.82-4.74-10.4-6-16.43-6.78-13.19-1.63-27.27-2-39.83,3-4.83,1.92-11.59,4.35-10.72,10.38S160.3,245.2,163.56,250.41Z" style="fill:#c66e4f"/><path d="M177.42,271.71a5.37,5.37,0,0,0,.89,1.73,149.72,149.72,0,0,0-2.63-16.29c-.28-1.3-1.27-6.62-3-6.86-1.52-.21-1.31,2.2-1.27,3.31C171.67,260.32,175.9,267.58,177.42,271.71Z" style="fill:#c66e4f"/><path d="M218.05,253.61l-1.65,6.06a73.4,73.4,0,0,0-2.54,12c0,.41,0,1,.47,1s.5-.27.64-.52c2.91-5,4.4-10.73,5.35-16.45.23-1.37.34-3-.68-3.94a10,10,0,0,0-3.12,5.24" style="fill:#c66e4f"/><path d="M42.74,352.35C55.66,326.16,77,309,109.61,300.45c2.72-.71,8.65-.56,7.17,3.65-.68,1.94-9.32,4.12-11.25,5a206.23,206.23,0,0,0-43.89,26.4C56.27,339.72,45.8,346.15,42.74,352.35Z" style="fill:#c65d90"/><path d="M342,336c-.45-9.89-14.21-15.89-22-22-6.94-5.44-17.22-8-25.34-11.29-3.53-1.42-13.41-5.65-17.09-2.78-4.4,3.43,9.07,8.24,11.9,9.59,7.51,3.57,15.08,5.75,22.53,9.48C320,323,336.4,328.45,342,336Z" style="fill:#c65d90"/><path d="M228.37,338.19c4.2.79,8.51-.3,12.63-1.46s9.74-2.91,11.19-7.36C244.19,332.16,236.66,335.85,228.37,338.19Z" style="fill:#c65d90"/></g></svg>