<svg id="Woman-TOP" xmlns="http://www.w3.org/2000/svg" viewBox="0 0 400 400"><g id="Woman-TOP-2"><path d="M203.52,178.34a14.3,14.3,0,0,0,1.47,4.77,4.89,4.89,0,0,0,4,2.61,33.48,33.48,0,0,0-3.4-10.72c-.57-1-1.45-3.09-2.61-1.69C202.16,174.24,203.31,177.22,203.52,178.34Z" style="fill:#db826a"/><path d="M187.94,178.44a12.48,12.48,0,0,1-1.55,4.75,5.17,5.17,0,0,1-4.51,2.41c.66-3.7,1.55-7.47,3.61-10.7.62-1,1.57-3.05,2.93-1.57C189.37,174.37,188.15,177.32,187.94,178.44Z" style="fill:#db826a"/><path d="M204.27,144.18a7.76,7.76,0,0,0-.6,6.45,8.13,8.13,0,0,0,1.18,1.93,15.69,15.69,0,0,0,2.65,2.69c.34-.07.28-.57.16-.89a13.15,13.15,0,0,1-.21-7.38c.54-2.43,1.47-4.76,2.22-7.14.7-2.2-1.12-1.15-1.89-.34A21.38,21.38,0,0,0,204.27,144.18Z" style="fill:#db826a"/><path d="M188.05,144.18a7.16,7.16,0,0,1,.66,6.45,8,8,0,0,1-1.28,1.93,17.53,17.53,0,0,1-2.89,2.69c-.37-.07-.31-.57-.18-.89a12.08,12.08,0,0,0,.24-7.38c-.59-2.43-1.62-4.76-2.43-7.14-.76-2.2,1.22-1.15,2.07-.34A22,22,0,0,1,188.05,144.18Z" style="fill:#db826a"/><path id="rtbrow" d="M216.15,133.52a24.65,24.65,0,0,0,6.54-1.71,73.58,73.58,0,0,1,7.84-2.21,24.11,24.11,0,0,1,9.6-.62,10.41,10.41,0,0,1,7.65,5.33,17.53,17.53,0,0,0-12-11,32.56,32.56,0,0,0-5.89-.78c-6.1-.41-12.44-.45-18.09,2.25a3.87,3.87,0,0,0-2.33,4.95C210.29,132.58,213.5,133.67,216.15,133.52Z" style="fill:#522812"/><path id="rtbrow-2" d="M176.28,133.52a25.67,25.67,0,0,1-6.67-1.71,76.38,76.38,0,0,0-8-2.21,25.1,25.1,0,0,0-9.8-.62c-3.24.58-6.39,2.41-7.81,5.33a17.78,17.78,0,0,1,12.22-11,33.64,33.64,0,0,1,6-.78c6.23-.41,12.7-.45,18.47,2.25,2.06,1,3.06,2.61,2.38,4.95C182.27,132.58,179,133.67,176.28,133.52Z" style="fill:#522812"/><path d="M180.45,192.77a3.47,3.47,0,0,0-2.58,3.62,3.85,3.85,0,0,0,2.95,2.87,10.83,10.83,0,0,0,4.32,0,12.6,12.6,0,0,1,4.33-.15,11.47,11.47,0,0,1,2.65,1L195,201.4a.45.45,0,0,0,.32.07c.15,0,.23-.2.28-.35,1.71-5.28-2.71-2.57-6.58-5.4C186.44,193.87,183.82,191.84,180.45,192.77Z" style="fill:#d17859"/><path d="M211.07,192.73a3.48,3.48,0,0,1,2.66,3.62,3.91,3.91,0,0,1-3,2.87,11.54,11.54,0,0,1-4.46,0,13.42,13.42,0,0,0-4.47-.15,12.58,12.58,0,0,0-2.73,1l-2.92,1.33a.5.5,0,0,1-.34.07c-.16,0-.23-.2-.28-.35-1.78-5.28,4.19-2.67,6.78-5.4C205.76,192,207.6,191.8,211.07,192.73Z" style="fill:#d17859"/><path d="M185.78,197.73l-1.64-.35a4.1,4.1,0,0,0-2.68.06c-.81.42-1.18,1.7-.44,2.23a2,2,0,0,0,1.25.24,5.48,5.48,0,0,0,2.16-.35,1.88,1.88,0,0,0,1.18-1.7,2.4,2.4,0,0,0-1.27-.17" style="fill:#a3533b"/><path d="M205.39,197.73l1.69-.35a4.35,4.35,0,0,1,2.76.06c.84.42,1.23,1.7.46,2.23a2,2,0,0,1-1.29.24,5.83,5.83,0,0,1-2.23-.35,1.86,1.86,0,0,1-1.22-1.7,2.59,2.59,0,0,1,1.32-.17" style="fill:#a3533b"/><path d="M180.29,190.16a12.39,12.39,0,0,1-1,2.34,14.14,14.14,0,0,1-1.34,2.16,4.55,4.55,0,0,1,2.33-4.5Z" style="fill:#d98867"/><path d="M213.88,194.66a1.7,1.7,0,0,1,.87,1.47,1.74,1.74,0,0,1-.23.87,1.18,1.18,0,0,1-.74.57,11.37,11.37,0,0,1-.16-1.43A3.73,3.73,0,0,1,213.88,194.66Z" style="fill:#d98867"/><path d="M191.07,192a5.89,5.89,0,0,0-.21,3.06,4.41,4.41,0,0,0,2.39,2.81,6.08,6.08,0,0,0,3.71.46,3.82,3.82,0,0,0,1.75-.66,4.88,4.88,0,0,0,1.58-3.45,7.5,7.5,0,0,0-.14-3.46c-.56-1.63-3-5.17-5.06-4.68S191.59,190.25,191.07,192Z" style="fill:#f7b29a"/><path d="M231.75,135.78a12.25,12.25,0,0,0-16,3.21,5.86,5.86,0,0,0-1.29,3c1.56-2.38,5.11-4,7.7-5C224.26,136.27,229.65,134.56,231.75,135.78Z" style="fill:#db826a"/><path d="M162,135.78a11.49,11.49,0,0,1,8.22-1.43,11.8,11.8,0,0,1,7.05,4.64,6,6,0,0,1,1.23,3c-1.5-2.38-4.89-4-7.37-5C169.16,136.27,164,134.56,162,135.78Z" style="fill:#db826a"/><path d="M227.73,163.27a5.78,5.78,0,0,1-3,2.51,5.32,5.32,0,0,1-5.28-2.69c1-.57,2.38.23,3.45.39A12.67,12.67,0,0,0,227.73,163.27Z" style="fill:#db826a"/><path d="M164,163.27a5.91,5.91,0,0,0,3.06,2.51,5.53,5.53,0,0,0,5.4-2.69c-1-.57-2.44.23-3.53.39A13.41,13.41,0,0,1,164,163.27Z" style="fill:#db826a"/><path id="wht" d="M245.35,152.06c1.77-2.1-1.91-2.71-3.35-5.06-2.84-4.65-3.61-5.2-9-6s-6.92-.61-11,3c-1.46,1.3-3.9,2.38-5,4-1.34,2-4.81.62-5,3-.22,2.72-2,5,2,6a68.1,68.1,0,0,1,7,2c5.3,1.86,9,.58,14-2s9.61-2.32,11.16-7.72" style="fill:#fff"/><circle cx="225.5" cy="152.5" r="8.5" style="fill:#20354f"/><circle cx="225.5" cy="152.5" r="4.5"/><path d="M223.2,140.45A16.2,16.2,0,0,1,227,139a13.61,13.61,0,0,1,10.11,2.18,23,23,0,0,1,7,7.83c-4.16-3-8.49-5-13.46-5.24a20.55,20.55,0,0,0-9.77,1.5,26,26,0,0,0-3.79,2.43c-2.58,1.88-5.28,4.94-8.14,6.3C211.09,148.4,218,143,223.2,140.45Z" style="fill:#726862"/><path id="lash" d="M213,152.4c4.28-3.79,9.38-7.12,15.05-6.4,2.56.33,5.41,1.75,7.72,2.92a23,23,0,0,0,7.22,2.67,6.22,6.22,0,0,0,6-2.59,24.62,24.62,0,0,1-11-4,20.67,20.67,0,0,0-11-3c-2.53.16-5,1.9-7.1,3.34-3.58,2.47-8.06,5.41-10.9,8.66C209.76,153.43,210,155,213,152.4Z"/><path d="M217.19,158.4a20.68,20.68,0,0,0,3.83.71,31.86,31.86,0,0,0,24.75-8.4,26,26,0,0,1-30.08,8.69c-1.82-.7-5-2.27-5.27-4.41,1.09,0,2,1.17,2.94,1.72A15.79,15.79,0,0,0,217.19,158.4Z"/><path id="wht-2" d="M147.56,152.06c-1.73-2.1,1.87-2.71,3.26-5.06,2.78-4.65,3.53-5.2,8.78-6s6.75-.61,10.72,3c1.43,1.3,3.81,2.38,4.88,4,1.3,2,4.69.62,4.87,3,.22,2.72,2,5-1.95,6a64.91,64.91,0,0,0-6.82,2c-5.17,1.86-8.79.58-13.65-2s-9.37-2.32-10.88-7.72" style="fill:#fff"/><circle cx="166.5" cy="152.5" r="8.5" style="fill:#20354f"/><circle cx="166.5" cy="152.5" r="4.5"/><path d="M169.16,140.45a15.57,15.57,0,0,0-3.73-1.41,13,13,0,0,0-9.86,2.18,23,23,0,0,0-6.87,7.83c4.07-3.05,8.29-5.06,13.14-5.28a19.58,19.58,0,0,1,9.53,1.5,25,25,0,0,1,3.69,2.43c2.52,1.88,5.15,4.94,7.94,6.3C181,148.4,174.19,143,169.16,140.45Z" style="fill:#726862"/><path id="lash-2" d="M179.15,152.4c-4.17-3.79-9.15-7.12-14.67-6.4-2.5.33-5.28,1.75-7.53,2.92a22,22,0,0,1-7,2.67A6,6,0,0,1,144,149a23.76,23.76,0,0,0,10.73-4,19.7,19.7,0,0,1,10.72-3c2.46.16,4.89,1.9,6.93,3.34,3.48,2.47,7.85,5.41,10.62,8.66C182.25,153.43,182,155,179.15,152.4Z"/><path d="M175,158.4a19.8,19.8,0,0,1-3.73.71,30.56,30.56,0,0,1-24.13-8.4,25.45,25.45,0,0,0,13.24,9.39,24.93,24.93,0,0,0,16.09-.7c1.77-.7,4.88-2.27,5.13-4.41-1.06,0-2,1.17-2.86,1.72A15,15,0,0,1,175,158.4Z"/><path d="M177,93.1a27.54,27.54,0,0,1,39.73-17c3.3,1.81,7.43,5,8,9-3.35.94-7.86.15-11.43.33A118.23,118.23,0,0,0,177,93.1Z" style="fill:#522812"/><path d="M284.74,188c-3.36,2.29-7.94,2.13-11.66.49s-6.71-4.55-9.42-7.57c-6.64-7.39-12.21-16-14.5-25.67-.72-3-1.1-6.15-1.57-9.24-1.19-8-1.27-16.24-3.59-24-3-10-5.92-19-11.36-28.44C230,89,227,88,224,86c-.79.13-1.81-.78-2,0,4.83-8.52,3.42-18.26-1-27,2.95-.69,8-2.1,11-2a23,23,0,0,1,15.06,5.89c4,3.78,6.95,8.48,9.75,13.21C268,95,275,114.21,282,135c1.89,5.64,4.23,12.1,5,18a62.76,62.76,0,0,1,0,13C286.45,173.4,287.21,181,284.74,188Z" style="fill:#b66027"/><path d="M240.51,61.77A19,19,0,0,0,230.27,65a19.68,19.68,0,0,1,19.54,14.54,31.82,31.82,0,0,0-19.82-6A25,25,0,0,1,244.67,93.8a28.1,28.1,0,0,0-20.31-12.44c-1.29-.14-2.84-.35-3.38-1.53a3.43,3.43,0,0,1-.25-1.14c-.47-4.71-3-16.68,1.78-19.84C226.82,56,236.61,59.82,240.51,61.77Z" style="fill:#522812"/><path d="M92.33,233.52l-1.76-3c.81,7.66,5.77,14.22,11.1,19.77a22.89,22.89,0,0,0,7,5.47c4.43,1.92,9.51,1.15,14.28.33a15.9,15.9,0,0,0,5.71-1.73,13.45,13.45,0,0,0,3.88-4A47.55,47.55,0,0,0,141,227c1.39-18.57-8.54-37.24-4.2-55.34,2.36-9.9,8.72-18.26,14.28-26.79,8-12.24,15.28-25.53,20.34-39.24a23.32,23.32,0,0,0,5,12.23c-2-8.28-2-17.21,1.18-25.09s10-14.52,18.35-16.29a31.73,31.73,0,0,1,9.38-.36c6.87.61,14.55,3.29,17,9.73,3-4.82,3.79-10.38,4-16A19.31,19.31,0,0,0,224.86,61c-2.8-6.09-9.69-9.29-16.33-10.24-14-2-30.34,0-42.53,7.22-20.3,12-35.65,32.14-49.13,51.49-7,10-14.72,20.51-16.87,32.51-4.76,26.61,12.74,54.59,7,81-.46,2.14-3.69,7.25-5,9-3.23,4.33-9.42,1.59-12.85-2.57" style="fill:#b66027"/><path d="M170.36,87.59c-11.36,3.21-22.1,9.14-30.07,17.87-7.26,8-14.75,21.65-12.63,32.86,2.28-3.3,3.9-7.16,6.31-10.54,3.52-4.94,7.13-9.83,10.92-14.57C152.43,103.79,160.73,94.9,170.36,87.59Z" style="fill:#d47d47"/><path d="M114.32,197.33l8.44-8.43a111.54,111.54,0,0,1-6.38,15.86,52.06,52.06,0,0,0,18.25-47.63c-.45-2.87-1.42-9.44-4.56-10.46-1.78,2.72-1.37,9-2,12.36a122.53,122.53,0,0,1-3.18,13.37A121.33,121.33,0,0,1,114.32,197.33Z" style="fill:#d47d47"/><path d="M210.21,61.85c-3.85-2.93-9.2-2.68-14-1.83-8.15,1.45-16.41,4.51-21.83,10.76a27.14,27.14,0,0,1,19.16-14.92c5.74-1.09,18.58.41,19.94,7.74A10.13,10.13,0,0,1,210.21,61.85Z" style="fill:#d47d47"/><path d="M257.37,149.29c1.65,11.32,7.48,22.45,17.26,28.38-6.83-6-9.18-15.7-9.34-24.8s1.47-18.17,1-27.26a37.41,37.41,0,0,0-4.24-16c-.72-1.3-3.39-6.3-5.11-6.26-3,.06-1.46,4.25-1.13,5.91C258.48,122.44,255.43,136,257.37,149.29Z" style="fill:#d47d47"/></g></svg>