<svg id="HeadSmallS" xmlns="http://www.w3.org/2000/svg" viewBox="0 0 351.36 310.46"><g id="MouthSmallS"><path id="Face" d="M113.76,112.08c.25,23.6,2.54,48.31,15.41,68.09,7.18,11,17.68,20.09,30.15,24.24s26.9,3,37.81-4.36a71.23,71.23,0,0,0,25.17-28.22c1.82-3.62,2.41-7.72,3.13-11.7,1.63-9.11,2.7-18.31,3.76-27.5,2-17.25,4-34.65,2.44-51.95-.67-7.35-2-14.75-5.15-21.43-6.32-13.45-19.62-22.87-34-26.53s-29.76-2-44,2.39c-11.55,3.6-23.25,9.72-28.76,20.48C111.64,71.44,113.57,94.89,113.76,112.08Z" style="fill:#f9be9d"/><path id="CheekShadowR" d="M217.72,68.77c2.47,9.94,3.21,20.22,3.84,30.45.23,3.87.45,7.81-.55,11.56-1.23,4.65-4.25,8.69-5.3,13.39-1,4.34-.18,8.85.51,13.25a264.81,264.81,0,0,1,2.87,29.35c3-5.32,6-10.69,7.73-16.52,1.62-5.31,2.19-10.87,2.75-16.39l3-29a94.66,94.66,0,0,0,.73-12.25A84.81,84.81,0,0,0,231.79,80c-1-5.47-2.2-11-4.79-16-1.91-3.72-5.81-9.28-10.2-10.34-1.76-.42-1.42-.51-1.72,1.31a15.34,15.34,0,0,0,.43,4.63C216,62.7,217,65.72,217.72,68.77Z" style="fill:#f7aa8b"/><path id="CheekShadowL" d="M126.77,69.33c-2.39,10-3.11,20.23-3.72,30.46-.22,3.86-.43,7.81.53,11.55,1.2,4.65,4.12,8.7,5.13,13.39.94,4.34.18,8.86-.48,13.25a267.52,267.52,0,0,0-2.79,29.36c-2.87-5.32-5.76-10.7-7.48-16.53-1.57-5.3-2.12-10.86-2.66-16.38l-2.86-29a98.5,98.5,0,0,1-.71-12.26,87.34,87.34,0,0,1,1.47-12.59c1-5.52,2.08-11.08,4.56-16.06,1.86-3.72,5.63-9.29,9.88-10.34,1.7-.43,1.37-.52,1.66,1.3a15.75,15.75,0,0,1-.41,4.64C128.39,63.26,127.5,66.28,126.77,69.33Z" style="fill:#f7aa8b"/><path id="CheekShineR" d="M198.68,197.34c-1.81,1.7-5.9,5.51-8.26,6.28,3-.22,6.68-3.36,9.05-5.17,10.56-8.06,19.72-18.26,24.68-31.81,1.26-3.44,2.37-13.16,2.67-16.39-1,.7-2.13,4.67-2.67,5.86-.73,1.62-2.18,5.31-3,6.89-1.58,3.12-2.43,4.88-4.18,7.9-4.11,7.08-5.81,10.68-10.05,16.68A66.83,66.83,0,0,1,198.68,197.34Z" style="fill:#ffd7c2"/><path id="CheekShineL" d="M148.85,197.34c2,1.7,6.49,5.51,9.08,6.28-3.26-.22-7.34-3.36-9.94-5.17-11.62-8.06-21.69-18.26-27.14-31.81-1.39-3.44-2.61-13.16-2.94-16.39,1.09.7,2.34,4.67,2.94,5.86.8,1.62,2.39,5.31,3.27,6.89,1.74,3.12,2.67,4.88,4.6,7.9,4.51,7.08,6.38,10.68,11.05,16.68A68.21,68.21,0,0,0,148.85,197.34Z" style="fill:#ffd7c2"/><path id="InsideMouth" d="M197.39,155.92s-11.85,5.86-24.91,6c-16.19.15-22.39-7-22.39-7s3.89,12.2,10.18,14.14c5.84,1.81,16,1.95,23.62-.17C192.34,166.55,197.39,155.92,197.39,155.92Z" style="fill:#c47474"/><path id="Tongue" d="M179.79,170.65a7.92,7.92,0,0,0,4.35-2.24c1.17-1.2,2-3,1.29-4.55-.8-1.82-3.2-2.33-5.17-2s-3.84,1.21-5.83,1.22c-2.92,0-5.83-1.87-8.61-1a4.54,4.54,0,0,0-2.93,5.71,4.77,4.77,0,0,0,.43,1,6.63,6.63,0,0,0,2.21,2.1,17.77,17.77,0,0,0,10.16,2.23,8,8,0,0,0,2.65-.43,9.21,9.21,0,0,0,3.54-3.1" style="fill:#9e3838"/><path id="UpperTeeth" d="M156.24,161.32a24.37,24.37,0,0,0,7.15,1,195.48,195.48,0,0,0,26.29-.53,10.51,10.51,0,0,0,4.26-1c1.18-.69,1.76-2.07.84-2.95l-27.1.15H161c-1.41-.05-4.68-.06-6.34-.22C152.24,157.49,155,160.87,156.24,161.32Z" style="fill:#fff"/><path id="LowerTeeth" d="M157.91,168.49a13.13,13.13,0,0,0,6.34,1.86c7.82.82,14.84,1.16,22.67.08,1.35-.18,2.79.1,3.88-1s3-4.9,2.22-6.34c-8.09-.2-16.61.59-24.69.38-2-.05-4-.1-6-.29-1.26-.11-4.18-.23-5.65-.54C154.55,162.23,156.8,167.72,157.91,168.49Z" style="fill:#fff"/><path id="LowerLip" d="M149.87,154.44c4.32,6.67,9.53,13.69,17.24,14.1a78.25,78.25,0,0,0,13.69-.39c10-.81,14.56-8.77,17.28-13.1-2,3.68-.22,8.66-7.12,17.74-1.58,2.07-10.73,5.3-11.92,5.46a38.36,38.36,0,0,1-12.68-.83c-2.32-.49-7.38-3.37-9.87-5.49C152.32,168.39,151.66,158.8,149.87,154.44Z" style="fill:#f09a78"/><path id="UpperLip" d="M198.52,154.27c-4.65,5.57-15.35.94-16.38.87-4.22-.3-8,2.91-10.77,1.52-3.62-1.82-6.54-2-7.55-1.65-11.07,3.82-12.89.17-14.43-1-.13-.1,4.42,5.15,8,6.16s8.28.81,12,1c5.1.21,16.34.76,21.29-1.31C193.36,158.73,197.15,157.23,198.52,154.27Z" style="fill:#d98867"/><path id="LipWrinkleL" d="M151.5,154.67a2.16,2.16,0,0,0-2.89.88,4.28,4.28,0,0,0-.31,1.73l-.14,4.09a9,9,0,0,1-1.25-6c.19-1.29,1-2.76,2.28-2.78,1.12,0,1.94,1.08,2.32,2.14" style="fill:#d98867"/><path id="LipWrinkleR" d="M194.87,154.67a3.21,3.21,0,0,1,3.7.88,3.46,3.46,0,0,1,.39,1.73l.18,4.09a7.43,7.43,0,0,0,1.6-6,3.21,3.21,0,0,0-2.91-2.78,3.42,3.42,0,0,0-3,2.14" style="fill:#d98867"/><path id="ChinShadow" d="M171.68,183.57a32.73,32.73,0,0,0,7.13-.32,16.82,16.82,0,0,0,3.85-.75c.31-.11.6-.61.27-.66a21.18,21.18,0,0,1-5,5.3,7.24,7.24,0,0,1-7,.83,10.57,10.57,0,0,1-2.93-2.52c-.86-1-2.72-2.27-2.07-3.7C167.89,182.41,169.54,183.36,171.68,183.57Z" style="fill:#f7aa8b"/></g></svg>