<svg id="HeadSmallI1" xmlns="http://www.w3.org/2000/svg" viewBox="0 0 351.36 310.46"><g id="MouthSmallI1"><path id="Face" d="M113.76,112.08c.25,23.6,2.54,48.31,15.41,68.09,7.18,11,17.68,20.09,30.15,24.24s26.9,3,37.81-4.36a71.23,71.23,0,0,0,25.17-28.22c1.82-3.62,2.41-7.72,3.13-11.7,1.63-9.11,2.7-18.31,3.76-27.5,2-17.25,4-34.65,2.44-51.95-.67-7.35-2-14.75-5.15-21.43-6.32-13.45-19.62-22.87-34-26.53s-29.76-2-44,2.39c-11.55,3.6-23.25,9.72-28.76,20.48C111.64,71.44,113.57,94.89,113.76,112.08Z" style="fill:#f9be9d"/><path id="CheekShadowR" d="M217.72,68.77c2.47,9.94,3.21,20.22,3.84,30.45.23,3.87.45,7.81-.55,11.56-1.23,4.65-4.25,8.69-5.3,13.39-1,4.34-.18,8.85.51,13.25a264.81,264.81,0,0,1,2.87,29.35c3-5.32,6-10.69,7.73-16.52,1.62-5.31,2.19-10.87,2.75-16.39l3-29a94.66,94.66,0,0,0,.73-12.25A84.81,84.81,0,0,0,231.79,80c-1-5.47-2.2-11-4.79-16-1.91-3.72-5.81-9.28-10.2-10.34-1.76-.42-1.42-.51-1.72,1.31a15.34,15.34,0,0,0,.43,4.63C216,62.7,217,65.72,217.72,68.77Z" style="fill:#f7aa8b"/><path id="CheekShadowL" d="M126.77,69.33c-2.39,10-3.11,20.23-3.72,30.46-.22,3.86-.43,7.81.53,11.55,1.2,4.65,4.12,8.7,5.13,13.39.94,4.34.18,8.86-.48,13.25a267.52,267.52,0,0,0-2.79,29.36c-2.87-5.32-5.76-10.7-7.48-16.53-1.57-5.3-2.12-10.86-2.66-16.38l-2.86-29a98.5,98.5,0,0,1-.71-12.26,87.34,87.34,0,0,1,1.47-12.59c1-5.52,2.08-11.08,4.56-16.06,1.86-3.72,5.63-9.29,9.88-10.34,1.7-.43,1.37-.52,1.66,1.3a15.75,15.75,0,0,1-.41,4.64C128.39,63.26,127.5,66.28,126.77,69.33Z" style="fill:#f7aa8b"/><path id="CheekShineR" d="M198.68,197.34c-1.81,1.7-5.9,5.51-8.26,6.28,3-.22,6.68-3.36,9.05-5.17,10.56-8.06,19.72-18.26,24.68-31.81,1.26-3.44,2.37-13.16,2.67-16.39-1,.7-2.13,4.67-2.67,5.86-.73,1.62-2.18,5.31-3,6.89-1.58,3.12-2.43,4.88-4.18,7.9-4.11,7.08-5.81,10.68-10.05,16.68A66.83,66.83,0,0,1,198.68,197.34Z" style="fill:#ffd7c2"/><path id="CheekShineL" d="M148.85,197.34c2,1.7,6.49,5.51,9.08,6.28-3.26-.22-7.34-3.36-9.94-5.17-11.62-8.06-21.69-18.26-27.14-31.81-1.39-3.44-2.61-13.16-2.94-16.39,1.09.7,2.34,4.67,2.94,5.86.8,1.62,2.39,5.31,3.27,6.89,1.74,3.12,2.67,4.88,4.6,7.9,4.51,7.08,6.38,10.68,11.05,16.68A68.21,68.21,0,0,0,148.85,197.34Z" style="fill:#ffd7c2"/><path id="InsideMouth" d="M196.51,157.89c-3.61,4-9.09,3-21.62,3.15-16.19.17-24.22-3.63-24.22-3.63s6.28,16.33,12.56,18.28c5.84,1.8,16,1.94,23.62-.18C195.31,173.15,196.51,157.89,196.51,157.89Z" style="fill:#c47474"/><path id="Tongue" d="M179.59,172.56a7.82,7.82,0,0,0,4.35-2.24c1.17-1.19,1.95-3,1.28-4.54-.79-1.83-3.2-2.34-5.16-2s-3.85,1.21-5.84,1.22c-2.92,0-5.82-1.88-8.6-1a4.53,4.53,0,0,0-2.94,5.69,4.73,4.73,0,0,0,.44,1,6.69,6.69,0,0,0,2.2,2.1A17.86,17.86,0,0,0,175.49,175a8.22,8.22,0,0,0,2.65-.43,9.26,9.26,0,0,0,3.53-3.1" style="fill:#9e3838"/><path id="UpperTeeth" d="M154.76,160.21c2.2.82,5,1.21,7.28,1.84,6.22,1.7,19.06.94,28.19-.68,1.48-.26,1.31-3.11,2.59-3.22,1.5-.14-5.12,1-6,.11-9,.05-12.27.26-20.43-.73-2.22-.27-4.49,0-6.73-.05-1.42,0,1.66.16,0,0C157.24,157.25,153.49,159.74,154.76,160.21Z" style="fill:#fff"/><path id="LowerTeeth" d="M157.91,171.76a12.12,12.12,0,0,0,6.21,1.68c7.62.56,14.43.66,22-.72,1.31-.24,2.71,0,3.73-1.15s2.74-5.11,1.93-6.56c-7.68.44-13.5,1.5-23.92,1.27-2,0-3.9,0-5.84-.08-1.23-.08-4-.53-5.46-.79C154.49,165,156.81,171,157.91,171.76Z" style="fill:#fff"/><path id="LowerLip" d="M149.28,155.49c4.26,7,10.35,11.44,17.69,14.91,5.35,2.52,9.23,1.75,14.76-.11,8.8-3,11.37-5.87,15.48-12.88-2,3.69,1.14,7.29-5.76,16.38-1.57,2.07-10.73,5.3-11.92,5.45a38.3,38.3,0,0,1-12.67-.83c-2.33-.48-7.39-3.37-9.88-5.49C152.82,169.38,151.07,159.85,149.28,155.49Z" style="fill:#f09a78"/><path id="UpperLip" d="M199,155.49c-4.65,5.57-16.11-1.26-17.14-1.33-4.21-.3-7.71,3.89-10.48,2.5-3.62-1.82-5.61-2.78-6.62-2.43-11.07,3.82-13.93,2.41-15.47,1.26-.13-.1,3.61,6,8.11,6.86,3.7.7,11.61-2.17,15.32-2,5.1.21,12.27,3.55,17.71,1.79C193,161.28,197.62,158.45,199,155.49Z" style="fill:#d98867"/><path id="LipWrinkleL" d="M152.88,154.8a2.17,2.17,0,0,0-2.9.88,4.28,4.28,0,0,0-.31,1.73l-.14,4.09a9,9,0,0,1-1.25-6c.2-1.29,1-2.76,2.28-2.78,1.13,0,1.94,1.08,2.33,2.14" style="fill:#d98867"/><path id="LipWrinkleR" d="M194.13,155.8a3.18,3.18,0,0,1,3.69.88,3.26,3.26,0,0,1,.39,1.73l.18,4.09a7.36,7.36,0,0,0,1.6-6,3.19,3.19,0,0,0-2.91-2.78,3.4,3.4,0,0,0-3,2.14" style="fill:#d98867"/><path id="ChinShadow" d="M171.68,183.65a32.73,32.73,0,0,0,7.13-.32,18,18,0,0,0,3.85-.75c.31-.11.6-.61.27-.67a21.4,21.4,0,0,1-5,5.31,7.24,7.24,0,0,1-7,.83,10.57,10.57,0,0,1-2.93-2.52c-.86-1-2.72-2.27-2.07-3.7C167.89,182.48,169.54,183.44,171.68,183.65Z" style="fill:#f7aa8b"/></g></svg>