<svg id="HeadR" xmlns="http://www.w3.org/2000/svg" viewBox="0 0 351.4 310.5"><g id="MouthR"><path id="Face" d="M113.8,112.1c.2,23.6,2.5,48.3,15.4,68.1,7.2,11,17.7,20.1,30.1,24.2s26.9,3,37.8-4.4a71.37,71.37,0,0,0,25.2-28.2c1.8-3.6,2.4-7.7,3.1-11.7,1.6-9.1,2.7-18.3,3.8-27.5,2-17.2,4-34.7,2.4-51.9-.7-7.3-2-14.8-5.1-21.4-6.3-13.5-19.6-22.9-34-26.5s-29.8-2-44,2.4c-11.6,3.6-23.2,9.7-28.8,20.5C111.6,71.4,113.6,94.9,113.8,112.1Z" style="fill:#f9be9d"/><path id="CheekShadowR" d="M217.7,68.8c2.5,9.9,3.2,20.2,3.8,30.5.2,3.9.4,7.8-.6,11.6-1.2,4.7-4.2,8.7-5.3,13.4-1,4.3-.2,8.9.5,13.2a261.28,261.28,0,0,1,2.9,29.4c3-5.3,6-10.7,7.7-16.5,1.6-5.3,2.2-10.9,2.8-16.4l3-29a84,84,0,0,0,.7-12.2,90.19,90.19,0,0,0-1.5-12.6c-1-5.5-2.2-11-4.8-16-1.9-3.7-5.8-9.3-10.2-10.3-1.8-.4-1.4-.5-1.7,1.3a17.53,17.53,0,0,0,.4,4.6C216,62.7,217,65.7,217.7,68.8Z" style="fill:#f7aa8b"/><path id="CheekShadowL" d="M126.8,69.3c-2.4,10-3.1,20.2-3.7,30.5-.2,3.9-.4,7.8.5,11.6,1.2,4.7,4.1,8.7,5.1,13.4.9,4.3.2,8.9-.5,13.3a261.19,261.19,0,0,0-2.8,29.4c-2.9-5.3-5.8-10.7-7.5-16.5-1.6-5.3-2.1-10.9-2.7-16.4l-2.9-29a101.44,101.44,0,0,1-.7-12.3,90.19,90.19,0,0,1,1.5-12.6c1-5.5,2.1-11.1,4.6-16.1,1.9-3.7,5.6-9.3,9.9-10.3,1.7-.4,1.4-.5,1.7,1.3a14.12,14.12,0,0,1-.4,4.6C128.4,63.3,127.5,66.3,126.8,69.3Z" style="fill:#f7aa8b"/><path id="CheekShineR" d="M198.7,197.3c-1.8,1.7-5.9,5.5-8.3,6.3,3-.2,6.7-3.4,9.1-5.2,10.6-8.1,19.7-18.3,24.7-31.8,1.3-3.4,2.4-13.2,2.7-16.4-1,.7-2.1,4.7-2.7,5.9-.7,1.6-2.2,5.3-3,6.9-1.6,3.1-2.4,4.9-4.2,7.9-4.1,7.1-5.8,10.7-10.1,16.7A63.76,63.76,0,0,1,198.7,197.3Z" style="fill:#ffd7c2"/><path id="CheekShineL" d="M148.9,197.3c2,1.7,6.5,5.5,9.1,6.3-3.3-.2-7.3-3.4-9.9-5.2-11.6-8.1-21.7-18.3-27.1-31.8-1.4-3.4-2.6-13.2-2.9-16.4,1.1.7,2.3,4.7,2.9,5.9.8,1.6,2.4,5.3,3.3,6.9,1.7,3.1,2.7,4.9,4.6,7.9,4.5,7.1,6.4,10.7,11.1,16.7A54.24,54.24,0,0,0,148.9,197.3Z" style="fill:#ffd7c2"/><path id="InsideMouth" d="M193.7,159s-7.7.3-20.8.4c-16.2.1-20,.4-20,.4s2,12.3,8.3,14.2c5.8,1.8,16,1.9,23.6-.2C193.4,171.5,193.7,159,193.7,159Z" style="fill:#c47474"/><path id="Tongue" d="M179.8,172.6a8.76,8.76,0,0,0,4.4-2.2c1.2-1.2,2-3,1.3-4.6-.8-1.8-3.2-2.3-5.2-2s-3.8,1.2-5.8,1.2c-2.9,0-5.8-1.9-8.6-1a4.48,4.48,0,0,0-2.9,5.7c.1.3.3.6.4.9a6.3,6.3,0,0,0,2.2,2.1,17.06,17.06,0,0,0,10.2,2.2,7.46,7.46,0,0,0,2.6-.4,9.48,9.48,0,0,0,3.5-3.1" style="fill:#9e3838"/><path id="UpperTeeth" d="M154.5,161.1a35.14,35.14,0,0,0,7.2.7c8.8.2,17.6.2,26.3-.3a12,12,0,0,0,4.2-.7c1.2-.4-1.7-.2-2.6-.8-9,0-14.1-.6-23.1-.5-2.2,0-3.2.1-5.5,0-1.4,0-4.2.6-5.9.5C152.8,159.8,153.2,160.8,154.5,161.1Z" style="fill:#fff"/><path id="LowerTeeth" d="M161,168.4a9,9,0,0,0,5.2,1.7c6.4.6,12.2.7,18.6-.7,1.1-.2,2.3,0,3.1-1.1s2.5-4.8,1.8-6.2c-6.5.4-11.6,1.1-20.4.9-1.6,0-3.3,0-4.9-.1s-3.2-.1-4.8-.2C157.9,162.2,160,167.6,161,168.4Z" style="fill:#fff"/><path id="LowerLip" d="M151,156.8c8,2.9,9,8,16.4,11.4,5.3,2.5,8.2,1.5,13.7-.4,8.8-3,9-6.7,15.7-10.9-2,3.7,1.4,6.5-5.5,15.6-1.6,2.1-10.7,5.3-11.9,5.4a38.89,38.89,0,0,1-12.7-.8c-2.3-.5-7.4-3.4-9.9-5.5C152.6,168.1,152.8,161.1,151,156.8Z" style="fill:#f09a78"/><path id="UpperLip" d="M196.7,156.9c-4.6,5.6-14.5-1.4-15.5-1.4-4.2-.3-7.1,3.6-9.9,2.2-3.6-1.8-5.5-2.3-6.5-2-11.1,3.8-11.9,1.5-13.8,1.7-.9.1,2.7,5,6.3,6s12.7-1.6,16.5-1.4c5.1.2,11.1,3,16.6,1.2A11.76,11.76,0,0,0,196.7,156.9Z" style="fill:#d98867"/><path id="LipWrinkleL" d="M154.4,156.5a2.27,2.27,0,0,0-2.9.9,5.08,5.08,0,0,0-.3,1.7l-.2,4.1a9,9,0,0,1-1.2-6c.2-1.3,1-2.8,2.3-2.8,1.1,0,1.9,1.1,2.3,2.1" style="fill:#d98867"/><path id="LipWrinkleR" d="M192.3,157a3.1,3.1,0,0,1,3.7.9,3.29,3.29,0,0,1,.4,1.7l.2,4.1a7.32,7.32,0,0,0,1.6-6,3.19,3.19,0,0,0-2.9-2.8,3.54,3.54,0,0,0-3,2.1" style="fill:#d98867"/><path id="ChinShadow" d="M172.3,182.6a33.51,33.51,0,0,0,7.1-.3,16.06,16.06,0,0,0,3.8-.8c.3-.1.6-.6.3-.7a20.92,20.92,0,0,1-5,5.3c-2,1.3-4.8,1.9-7,.8a9.89,9.89,0,0,1-2.9-2.5c-.9-1-2.7-2.3-2.1-3.7C168.6,181.5,170.2,182.4,172.3,182.6Z" style="fill:#f7aa8b"/></g></svg>