<svg id="HeadSilent" xmlns="http://www.w3.org/2000/svg" viewBox="0 0 351.36 310.46"><g id="MouthSilent"><path id="Face" d="M113.76,112.08c.25,23.6,2.54,48.31,15.41,68.09,7.18,11,17.68,20.09,30.15,24.24s26.9,3,37.81-4.36a71.23,71.23,0,0,0,25.17-28.22c1.82-3.62,2.41-7.72,3.13-11.7,1.63-9.11,2.7-18.31,3.76-27.5,2-17.25,4-34.65,2.44-51.95-.67-7.35-2-14.75-5.15-21.43-6.32-13.45-19.62-22.87-34-26.53s-29.76-2-44,2.39c-11.55,3.6-23.25,9.72-28.76,20.48C111.64,71.44,113.57,94.89,113.76,112.08Z" style="fill:#f9be9d"/><path id="CheekShadowR" d="M217.72,68.77c2.47,9.94,3.21,20.22,3.84,30.45.23,3.87.45,7.81-.55,11.56-1.23,4.65-4.25,8.69-5.3,13.39-1,4.34-.18,8.85.51,13.25a264.81,264.81,0,0,1,2.87,29.35c3-5.32,6-10.69,7.73-16.52,1.62-5.31,2.19-10.87,2.75-16.39l3-29a94.66,94.66,0,0,0,.73-12.25A84.78,84.78,0,0,0,231.79,80c-1-5.47-2.2-11-4.79-16-1.91-3.72-5.81-9.28-10.2-10.34-1.76-.42-1.42-.51-1.72,1.31a15.34,15.34,0,0,0,.43,4.63C216,62.7,217,65.72,217.72,68.77Z" style="fill:#f7aa8b"/><path id="CheekShadowL" d="M126.77,69.33c-2.39,10-3.11,20.23-3.72,30.46-.22,3.86-.43,7.81.53,11.55,1.2,4.65,4.12,8.7,5.13,13.39.94,4.34.18,8.86-.48,13.25a267.52,267.52,0,0,0-2.79,29.36c-2.87-5.32-5.76-10.7-7.48-16.53-1.57-5.3-2.12-10.86-2.66-16.38l-2.86-29a98.5,98.5,0,0,1-.71-12.26,87.34,87.34,0,0,1,1.47-12.59c1-5.52,2.08-11.08,4.56-16.06,1.86-3.72,5.63-9.29,9.88-10.34,1.7-.43,1.37-.52,1.66,1.3a15.75,15.75,0,0,1-.41,4.64C128.39,63.26,127.5,66.28,126.77,69.33Z" style="fill:#f7aa8b"/><path id="CheekShineR" d="M198.68,197.34c-1.81,1.7-5.9,5.51-8.26,6.28,3-.22,6.68-3.36,9.05-5.17,10.56-8.06,19.72-18.26,24.68-31.81,1.26-3.44,2.37-13.16,2.67-16.39-1,.7-2.13,4.67-2.67,5.86-.73,1.62-2.18,5.31-3,6.89-1.58,3.12-2.43,4.88-4.18,7.9-4.11,7.08-5.81,10.68-10.05,16.68A66.83,66.83,0,0,1,198.68,197.34Z" style="fill:#ffd7c2"/><path id="CheekShineL" d="M148.85,197.34c2,1.7,6.49,5.51,9.08,6.28-3.26-.22-7.34-3.36-9.94-5.17-11.62-8.06-21.69-18.26-27.14-31.81-1.39-3.44-2.61-13.16-2.94-16.39,1.09.7,2.34,4.67,2.94,5.86.8,1.62,2.39,5.31,3.27,6.89,1.74,3.12,2.67,4.88,4.6,7.9,4.51,7.08,6.38,10.68,11.05,16.68A68.21,68.21,0,0,0,148.85,197.34Z" style="fill:#ffd7c2"/><path id="InsideMouth" d="M193.08,159a83.23,83.23,0,0,1-20,2.46c-14,0-19.41-2.29-19.41-2.29a14.8,14.8,0,0,0,8.82,4.66,107.79,107.79,0,0,0,20.48-.06C190.31,163,193.08,159,193.08,159Z" style="fill:#c47474"/><path id="Tongue" d="M179.79,170.27a9.11,9.11,0,0,0,4.35-1.64c1.17-.88,2-2.21,1.29-3.33-.8-1.34-3.2-1.71-5.17-1.47s-3.84.88-5.83.89c-2.92,0-5.83-1.37-8.61-.72a4.31,4.31,0,0,0-2.86,2,2.6,2.6,0,0,0,.36,2.88,6.3,6.3,0,0,0,2.21,1.54,23.35,23.35,0,0,0,10.16,1.63,10.34,10.34,0,0,0,2.65-.32,8.87,8.87,0,0,0,3.54-2.27" style="fill:#9e3838"/><path id="UpperTeeth" d="M156.24,162.39a25.41,25.41,0,0,0,7.15,1,207.77,207.77,0,0,0,26.29-.5,11.21,11.21,0,0,0,4.26-1c1.18-.66,1.76-2,.84-2.8l-27.1.14H161c-1.41,0-4.68,0-6.34-.2C152.24,158.76,155,162,156.24,162.39Z" style="fill:#fff"/><path id="LowerTeeth" d="M160.78,169a12.31,12.31,0,0,0,4.83.95,89.77,89.77,0,0,0,17.11-.41c1-.13,2.1,0,2.9-.65s2.13-2.88,1.5-3.69c-6.1,0-12.51.67-18.61.71H164a40.74,40.74,0,0,1-4.28-.2C158.08,165.46,159.92,168.58,160.78,169Z" style="fill:#fff"/><path id="LowerLip" d="M150.56,156.18c5.85,4.46,10.59,5.38,17.52,5.85,5.81.4,7.31.66,13.06-.26s12.62-1.34,16.21-4.78c-2,3.68-4.88,8.54-8.46,11.34-.88.68-8.55,5.14-9.73,5.29-4.24.55-8.44-.23-12.68-.83-1.19-.17-8-3.87-10.12-6.35C153.34,162.92,152.35,160.53,150.56,156.18Z" style="fill:#f09a78"/><path id="UpperLip" d="M198.52,155.53c-4.65,5.57-15.35.94-16.38.87-4.22-.3-8,2.91-10.77,1.52-3.62-1.82-6.54-2-7.55-1.65-11.07,3.82-12.89.17-14.43-1-.13-.1,4.42,5.15,8,6.16s8.28.81,12,1c5.1.21,16.34.76,21.29-1.31C193.36,160,197.15,158.49,198.52,155.53Z" style="fill:#d98867"/><path id="LipWrinkleL" d="M151.5,155.65a2.15,2.15,0,0,0-2.89.88,4.28,4.28,0,0,0-.31,1.73l-.14,4.09a9,9,0,0,1-1.25-6c.19-1.29,1-2.77,2.28-2.78,1.12,0,1.94,1.08,2.32,2.13" style="fill:#d98867"/><path id="LipWrinkleR" d="M194.87,155.65a3.19,3.19,0,0,1,3.7.88,3.46,3.46,0,0,1,.39,1.73l.18,4.09a7.43,7.43,0,0,0,1.6-6,3.19,3.19,0,0,0-2.91-2.78,3.43,3.43,0,0,0-3,2.13" style="fill:#d98867"/><path id="ChinShadow" d="M171.68,183.57a32.73,32.73,0,0,0,7.13-.32,16.82,16.82,0,0,0,3.85-.75c.31-.11.6-.61.27-.66a21.18,21.18,0,0,1-5,5.3,7.25,7.25,0,0,1-7,.83,10.57,10.57,0,0,1-2.93-2.52c-.86-1-2.72-2.27-2.07-3.7C167.89,182.41,169.54,183.36,171.68,183.57Z" style="fill:#f7aa8b"/></g></svg>