<svg id="Head_" data-name="Head@" xmlns="http://www.w3.org/2000/svg" viewBox="0 0 351.36 310.46"><g id="Mouth_" data-name="Mouth@"><path id="Face" d="M116.52,115.42c.24,23.87,2.4,48.88,14.59,68.88,6.78,11.14,16.72,20.34,28.51,24.53s25.46,3,35.78-4.41a70.23,70.23,0,0,0,23.82-28.55c1.71-3.66,2.28-7.81,2.95-11.84,1.55-9.21,2.56-18.52,3.57-27.82,1.89-17.46,3.79-35.06,2.3-52.56-.63-7.45-1.9-14.93-4.87-21.69-6-13.61-18.56-23.14-32.19-26.84s-28.16-2.06-41.58,2.42c-10.92,3.64-22,9.83-27.21,20.72C114.52,74.3,116.35,98,116.52,115.42Z" style="fill:#f9be9d"/><path id="CheekShadowR" d="M214.88,71.59c2.34,10.06,3,20.47,3.63,30.82.22,3.91.43,7.9-.51,11.69-1.17,4.7-4,8.8-5,13.55-.92,4.39-.17,9,.48,13.4a284.23,284.23,0,0,1,2.72,29.7c2.8-5.38,5.63-10.82,7.31-16.72a91.89,91.89,0,0,0,2.6-16.57l2.8-29.31a107.12,107.12,0,0,0,.69-12.4A91,91,0,0,0,228.14,83c-.93-5.58-2-11.21-4.46-16.25-1.81-3.76-5.5-9.39-9.65-10.46-1.66-.43-1.34-.52-1.62,1.32a16.11,16.11,0,0,0,.4,4.69C213.3,65.45,214.17,68.5,214.88,71.59Z" style="fill:#f7aa8b"/><path id="CheekShadowL" d="M128.83,72.16c-2.26,10.07-2.94,20.47-3.51,30.82-.22,3.91-.41,7.9.49,11.69,1.13,4.71,3.9,8.8,4.86,13.55.89,4.39.16,9-.46,13.41a292.43,292.43,0,0,0-2.63,29.7c-2.72-5.39-5.46-10.83-7.09-16.73A94.92,94.92,0,0,1,118,138l-2.71-29.31a109.06,109.06,0,0,1-.67-12.39A93.52,93.52,0,0,1,116,83.58c.9-5.58,2-11.21,4.32-16.25,1.75-3.76,4-12.72,8.07-13.79,1.61-.43,2.57,2.81,2.85,4.65a17.61,17.61,0,0,1-.39,4.69C130.37,66,129.52,69.08,128.83,72.16Z" style="fill:#f7aa8b"/><path id="CheekShineR" d="M196.87,201.68c-1.72,1.72-5.59,5.57-7.82,6.36,2.81-.22,6.32-3.4,8.56-5.23,10-8.16,18.66-18.48,23.36-32.19,1.19-3.48,2.24-13.31,2.52-16.59-.94.71-2,4.73-2.52,5.94-.7,1.64-2.06,5.36-2.82,7-1.5,3.15-2.3,4.93-4,8-3.88,7.16-5.49,10.8-9.51,16.88A67.57,67.57,0,0,1,196.87,201.68Z" style="fill:#ffd7c2"/><path id="CheekShineL" d="M149.72,201.68c1.89,1.72,6.14,5.57,8.59,6.36-3.08-.22-6.94-3.4-9.41-5.23-11-8.16-20.52-18.48-25.67-32.19-1.31-3.48-2.47-13.31-2.78-16.59,1,.71,2.21,4.73,2.78,5.94.76,1.64,2.26,5.36,3.1,7,1.64,3.15,2.52,4.93,4.35,8,4.27,7.16,6,10.8,10.45,16.88A69.24,69.24,0,0,0,149.72,201.68Z" style="fill:#ffd7c2"/><path id="InsideMouth" d="M196.67,156.91s-2.2,3-23.11,4.39c-16.33,1.12-25.26-5.51-25.26-5.51s7.56,15.71,12.88,19.5c5.13,3.65,16.31,3.87,23.71.67C192.52,172.67,196.67,156.91,196.67,156.91Z" style="fill:#c47474"/><path id="Tongue" d="M179.59,176.56a7.82,7.82,0,0,0,4.35-2.24c1.17-1.19,1.95-3,1.28-4.54-.79-1.83-3.2-2.34-5.16-2s-3.85,1.21-5.84,1.22c-2.92,0-5.82-1.88-8.6-1a4.53,4.53,0,0,0-2.94,5.69,4.73,4.73,0,0,0,.44,1,5.07,5.07,0,0,0,2.2,2.1c2.87,1.25,5,.85,8.51.73.9,0,4,.32,4.86,0a5.47,5.47,0,0,0,3-2" style="fill:#9e3838"/><path id="UpperTeeth" d="M155.24,162.25a24,24,0,0,0,7.15,1,178.34,178.34,0,0,0,25.32-.44c1.5-.14,3.12,0,4.3-.7s3.14-3.13,2.22-4c-9,0-18.52.73-27.55.78-2.24,0-4.49,0-6.73,0-1.41,0-4.68-.06-6.34-.22C151.24,158.41,154,161.79,155.24,162.25Z" style="fill:#fff"/><path id="LowerTeeth" d="M160.12,173.3a18.75,18.75,0,0,0,5,.65,140.07,140.07,0,0,0,17.86-.28,8.25,8.25,0,0,0,3-.44c.84-.45,2.22-2,1.57-2.55-6.37,0-13.06.46-19.43.49h-4.75c-1,0-3.3,0-4.47-.14C157.3,170.86,159.23,173,160.12,173.3Z" style="fill:#fff"/><path id="LowerLip" d="M148.3,155.79c5,7.57,5.54,9.53,18.18,11.61,5.83,1,7.77.84,13.58.37a21.77,21.77,0,0,0,17.8-12.54c-2,3.68-1.61,8.56-8.51,17.65-1.58,2.07-6.93,4.84-8.12,5a56,56,0,0,1-15.4-.37,21.26,21.26,0,0,1-9.06-5.06C152.68,168.07,148.69,160.05,148.3,155.79Z" style="fill:#f09a78"/><path id="UpperLip" d="M197.86,155.23c-4.65,5.57-14.69,0-15.72-.09-4.22-.3-8,2.91-10.77,1.52-3.62-1.82-6.54-2-7.55-1.65-11.07,3.82-14,1.93-15.52.78-.13-.1,5.51,3.39,9.13,4.4s8.28.81,12,1c5.1.21,16.34.76,21.29-1.31C193.36,158.73,196.49,158.18,197.86,155.23Z" style="fill:#d98867"/><path id="LipWrinkleL" d="M151.5,155.18a2.15,2.15,0,0,0-2.89.87,4.29,4.29,0,0,0-.31,1.74l-.14,4.09a9,9,0,0,1-1.25-6c.19-1.29,1-2.76,2.28-2.77,1.12,0,1.94,1.08,2.32,2.13" style="fill:#d98867"/><path id="LipWrinkleR" d="M192.87,155.18a3.18,3.18,0,0,1,3.7.87,3.52,3.52,0,0,1,.39,1.74l.18,4.09a7.47,7.47,0,0,0,1.6-6,3.19,3.19,0,0,0-2.91-2.77,3.41,3.41,0,0,0-3,2.13" style="fill:#d98867"/><path id="ChinShadow" d="M171.68,184.37a32.73,32.73,0,0,0,7.13-.32,18,18,0,0,0,3.85-.75c.31-.11.6-.62.27-.67a21.18,21.18,0,0,1-5,5.3,7.18,7.18,0,0,1-7,.83,10.39,10.39,0,0,1-2.93-2.51c-.86-1-2.72-2.27-2.07-3.7C167.89,183.2,169.54,184.16,171.68,184.37Z" style="fill:#f7aa8b"/></g></svg>