<svg id="HeadP" xmlns="http://www.w3.org/2000/svg" viewBox="0 0 351.36 310.46"><g id="MouthP"><path id="Face" d="M113.76,112.08c.25,23.6,2.54,48.31,15.41,68.09,7.18,11,17.68,20.09,30.15,24.24s26.9,3,37.81-4.36a71.23,71.23,0,0,0,25.17-28.22c1.82-3.62,2.41-7.72,3.13-11.7,1.63-9.11,2.7-18.31,3.76-27.5,2-17.25,4-34.65,2.44-51.95-.67-7.35-2-14.75-5.15-21.43-6.32-13.45-19.62-22.87-34-26.53s-29.76-2-44,2.39c-11.55,3.6-23.25,9.72-28.76,20.48C111.64,71.44,113.57,94.89,113.76,112.08Z" style="fill:#f9be9d"/><path id="CheekShadowR" d="M217.72,68.77c2.47,9.94,3.21,20.22,3.84,30.45.23,3.87.45,7.81-.55,11.56-1.23,4.65-4.25,8.69-5.3,13.39-1,4.34-.18,8.85.51,13.25a264.81,264.81,0,0,1,2.87,29.35c3-5.32,6-10.69,7.73-16.52,1.62-5.31,2.19-10.87,2.75-16.39l3-29a94.66,94.66,0,0,0,.73-12.25A84.81,84.81,0,0,0,231.79,80c-1-5.47-2.2-11-4.79-16-1.91-3.72-5.81-9.28-10.2-10.34-1.76-.42-1.42-.51-1.72,1.31a15.34,15.34,0,0,0,.43,4.63C216,62.7,217,65.72,217.72,68.77Z" style="fill:#f7aa8b"/><path id="CheekShadowL" d="M126.77,69.33c-2.39,10-3.11,20.23-3.72,30.46-.22,3.86-.43,7.81.53,11.55,1.2,4.65,4.12,8.7,5.13,13.39.94,4.34.18,8.86-.48,13.25a267.52,267.52,0,0,0-2.79,29.36c-2.87-5.32-5.76-10.7-7.48-16.53-1.57-5.3-2.12-10.86-2.66-16.38l-2.86-29a98.5,98.5,0,0,1-.71-12.26,87.34,87.34,0,0,1,1.47-12.59c1-5.52,2.08-11.08,4.56-16.06,1.86-3.72,5.63-9.29,9.88-10.34,1.7-.43,1.37-.52,1.66,1.3a15.75,15.75,0,0,1-.41,4.64C128.39,63.26,127.5,66.28,126.77,69.33Z" style="fill:#f7aa8b"/><path id="CheekShineR" d="M198.68,197.34c-1.81,1.7-5.9,5.51-8.26,6.28,3-.22,6.68-3.36,9.05-5.17,10.56-8.06,19.72-18.26,24.68-31.81,1.26-3.44,2.37-13.16,2.67-16.39-1,.7-2.13,4.67-2.67,5.86-.73,1.62-2.18,5.31-3,6.89-1.58,3.12-2.43,4.88-4.18,7.9-4.11,7.08-5.81,10.68-10.05,16.68A66.83,66.83,0,0,1,198.68,197.34Z" style="fill:#ffd7c2"/><path id="CheekShineL" d="M148.85,197.34c2,1.7,6.49,5.51,9.08,6.28-3.26-.22-7.34-3.36-9.94-5.17-11.62-8.06-21.69-18.26-27.14-31.81-1.39-3.44-2.61-13.16-2.94-16.39,1.09.7,2.34,4.67,2.94,5.86.8,1.62,2.39,5.31,3.27,6.89,1.74,3.12,2.67,4.88,4.6,7.9,4.51,7.08,6.38,10.68,11.05,16.68A68.21,68.21,0,0,0,148.85,197.34Z" style="fill:#ffd7c2"/><path id="InsideMouth" d="M193.08,157.49a66.55,66.55,0,0,1-20,3.14c-14,.07-19.41-2.93-19.41-2.93s3.38,5.14,8.82,6a85,85,0,0,0,20.48-.08C190.31,162.6,193.08,157.49,193.08,157.49Z" style="fill:#c47474"/><path id="Tongue" d="M179.79,167.08a15.38,15.38,0,0,0,4.35-.84c1.17-.45,2-1.12,1.29-1.7s-3.2-.87-5.17-.75-3.84.46-5.83.46c-2.92,0-5.83-.7-8.61-.37a5.37,5.37,0,0,0-2.86,1c-.48.48-.34,1,.36,1.47a7.87,7.87,0,0,0,2.21.78,43.82,43.82,0,0,0,10.16.83,21.3,21.3,0,0,0,2.65-.16,12,12,0,0,0,3.54-1.15" style="fill:#9e3838"/><path id="LowerTeeth" d="M158.27,162.8a13.28,13.28,0,0,0,6,1.39,93.42,93.42,0,0,0,21.27-.6c1.26-.19,2.61,0,3.6-1s2.64-4.24,1.87-5.44c-7.59.06-15.55,1-23.14,1-1.88,0-3.77,0-5.65-.06-1.19-.07-3.93-.08-5.33-.3C154.91,157.59,157.2,162.18,158.27,162.8Z" style="fill:#fff"/><path id="UpperTeeth" d="M156.11,157.87a66.75,66.75,0,0,0,6.78.32c8.31.11,16.67.1,24.93-.16a26.76,26.76,0,0,0,4-.33c1.12-.22,1.67-.66.8-.94l-25.69.05h-6.38c-1.35,0-4.44,0-6-.07C152.32,156.65,154.9,157.72,156.11,157.87Z" style="fill:#fff"/><path id="LowerLip" d="M149.58,154c4.93,4.84,12.07,2.7,18.81,3.51,6,.72,6.83.1,12.75.22s13.64.43,16.86-4.45a38.79,38.79,0,0,1-9.11,11c-.88.69-8.55,5.14-9.73,5.3-4.24.55-8.44-.24-12.68-.83-1.19-.17-7.82-4-10.12-6.36C153.09,159.1,151.36,158.38,149.58,154Z" style="fill:#f09a78"/><path id="UpperLip" d="M197.38,154.26c-4.64,5.56-14.21-.68-15.24-.75-4.22-.3-8,2.91-10.77,1.52-3.62-1.82-6.54-2-7.55-1.65-11.07,3.82-12.7,1.47-14.24,1.29-.16,0,6.15,3.54,9.9,3.7,4.54.19,10.29,1.26,14,1.41,5.1.21,6.71-.64,12.61-1.52C188.67,157.87,194.9,158.12,197.38,154.26Z" style="fill:#d98867"/><path id="LipWrinkleL" d="M153.08,154.41a2.17,2.17,0,0,0-2.9.88,4.29,4.29,0,0,0-.31,1.74l-.14,4.09a9,9,0,0,1-1.25-6c.2-1.29,1-2.76,2.28-2.77,1.13,0,1.94,1.08,2.33,2.13" style="fill:#d98867"/><path id="LipWrinkleR" d="M192.58,154.41a3.18,3.18,0,0,1,3.69.88,3.38,3.38,0,0,1,.4,1.74l.18,4.09a7.43,7.43,0,0,0,1.59-6,3.17,3.17,0,0,0-2.91-2.77,3.39,3.39,0,0,0-3,2.13" style="fill:#d98867"/><path id="ChinShadow" d="M172,175.29a32.73,32.73,0,0,0,7.13-.32,16.82,16.82,0,0,0,3.85-.75,22.42,22.42,0,0,1-4.74,4.64,7.26,7.26,0,0,1-7,.83,10.57,10.57,0,0,1-2.93-2.52c-.86-1-2.72-2.27-2.07-3.7C168.19,174.13,169.84,175.08,172,175.29Z" style="fill:#f7aa8b"/></g></svg>