<svg id="HeadA" xmlns="http://www.w3.org/2000/svg" viewBox="0 0 351.36 310.46"><g id="MouthA"><path id="Face" d="M116.52,115.42c.24,23.87,2.4,48.88,14.59,68.88,6.78,11.14,16.72,20.34,28.51,24.53s25.46,3,35.78-4.41a70.23,70.23,0,0,0,23.82-28.55c1.71-3.66,2.28-7.81,2.95-11.84,1.55-9.21,2.56-18.52,3.57-27.82,1.89-17.46,3.79-35.06,2.3-52.56-.63-7.45-1.9-14.93-4.87-21.69-6-13.61-18.56-23.14-32.19-26.84s-28.16-2.06-41.58,2.42c-10.92,3.64-22,9.83-27.21,20.72C114.52,74.3,116.35,98,116.52,115.42Z" style="fill:#f9be9d"/><path id="CheekShadowR" d="M214.88,71.59c2.34,10.06,3,20.47,3.63,30.82.22,3.91.43,7.9-.51,11.69-1.17,4.7-4,8.8-5,13.55-.92,4.39-.17,9,.48,13.4a284.23,284.23,0,0,1,2.72,29.7c2.8-5.38,5.63-10.82,7.31-16.72a91.89,91.89,0,0,0,2.6-16.57l2.8-29.31a107.12,107.12,0,0,0,.69-12.4A91,91,0,0,0,228.14,83c-.93-5.58-2-11.21-4.46-16.25-1.81-3.76-5.5-9.39-9.65-10.46-1.66-.43-1.34-.52-1.62,1.32a16.11,16.11,0,0,0,.4,4.69C213.3,65.45,214.17,68.5,214.88,71.59Z" style="fill:#f7aa8b"/><path id="CheekShadowL" d="M128.83,72.16c-2.26,10.07-2.94,20.47-3.51,30.82-.22,3.91-.41,7.9.49,11.69,1.13,4.71,3.9,8.8,4.86,13.55.89,4.39.16,9-.46,13.41a292.43,292.43,0,0,0-2.63,29.7c-2.72-5.39-5.46-10.83-7.09-16.73A94.92,94.92,0,0,1,118,138l-2.71-29.31a109.06,109.06,0,0,1-.67-12.39A93.52,93.52,0,0,1,116,83.58c.9-5.58,2-11.21,4.32-16.25,1.75-3.76,4-12.72,8.07-13.79,1.61-.43,2.57,2.81,2.85,4.65a17.61,17.61,0,0,1-.39,4.69C130.37,66,129.52,69.08,128.83,72.16Z" style="fill:#f7aa8b"/><path id="CheekShineR" d="M196.87,201.68c-1.72,1.72-5.59,5.57-7.82,6.36,2.81-.22,6.32-3.4,8.56-5.23,10-8.16,18.66-18.48,23.36-32.19,1.19-3.48,2.24-13.31,2.52-16.59-.94.71-2,4.73-2.52,5.94-.7,1.64-2.06,5.36-2.82,7-1.5,3.15-2.3,4.93-4,8-3.88,7.16-5.49,10.8-9.51,16.88A67.57,67.57,0,0,1,196.87,201.68Z" style="fill:#ffd7c2"/><path id="CheekShineL" d="M149.72,201.68c1.89,1.72,6.14,5.57,8.59,6.36-3.08-.22-6.94-3.4-9.41-5.23-11-8.16-20.52-18.48-25.67-32.19-1.31-3.48-2.47-13.31-2.78-16.59,1,.71,2.21,4.73,2.78,5.94.76,1.64,2.26,5.36,3.1,7,1.64,3.15,2.52,4.93,4.35,8,4.27,7.16,6,10.8,10.45,16.88A69.24,69.24,0,0,0,149.72,201.68Z" style="fill:#ffd7c2"/><path id="InsideMouth" d="M198.54,154.42s-10.9,8.68-24.95,7.92c-16.35-.89-25-7.92-25-7.92s6.37,19.28,12.58,21.9c5.8,2.45,17.4,5.71,23.71.68C192.12,171.25,198.54,154.42,198.54,154.42Z" style="fill:#c47474"/><path id="Tongue" d="M179.59,177.56a7.82,7.82,0,0,0,4.35-2.24c1.17-1.19,1.95-3,1.28-4.54-.79-1.83-3.2-2.34-5.16-2s-3.85,1.21-5.84,1.22c-2.92,0-5.82-1.88-8.6-1a4.53,4.53,0,0,0-2.94,5.69,5.24,5.24,0,0,0,.44,1,6.69,6.69,0,0,0,2.2,2.1A17.87,17.87,0,0,0,175.49,180a8.22,8.22,0,0,0,2.65-.43,9.26,9.26,0,0,0,3.53-3.1" style="fill:#9e3838"/><path id="UpperTeeth" d="M156.24,162.8a18.47,18.47,0,0,0,7.15,1.39,132.25,132.25,0,0,0,25.32-.6c1.5-.19,3.12,0,4.3-1s3.14-4.24,2.22-5.44c-9,.06-18.52,1-27.55,1-2.24,0-4.49,0-6.73-.06-1.41-.07-4.68-.08-6.34-.3C152.24,157.59,155,162.18,156.24,162.8Z" style="fill:#fff"/><path id="LowerTeeth" d="M161.7,178a9.05,9.05,0,0,0,4.78,1.5,60.51,60.51,0,0,0,17-.18c1-.17,2.1,0,2.91-.88s2.22-4.19,1.63-5.41c-6.07-.08-12.47.69-18.54.61a38.13,38.13,0,0,1-4.53-.18c-1.42-.06-2.84-.19-4.25-.39S160.87,177.37,161.7,178Z" style="fill:#fff"/><path id="LowerLip" d="M148.61,154.05c4.32,6.68,5.54,19.87,18.18,21.95,5.83,1,8,.77,13.77.3,10-.81,16.06-17.79,18-22.25-2,3.69-2.29,15.89-9.19,25-1.58,2.07-7.21,5.6-8.4,5.75a53.51,53.51,0,0,1-15-.61c-2.32-.49-7-3.54-9.49-5.67C152.28,175,150.4,158.41,148.61,154.05Z" style="fill:#f09a78"/><path id="UpperLip" d="M198.57,154.05c-4.65,5.57-15.4,1.16-16.43,1.09-4.22-.3-8,2.91-10.77,1.52-3.62-1.82-6.54-2-7.55-1.65-11.07,3.82-13.62.2-15.16-1-.13-.09,5.15,5.13,8.77,6.14s8.28.81,12,1c5.1.21,16.34.76,21.29-1.31C193.36,158.73,197.19,157,198.57,154.05Z" style="fill:#d98867"/><path id="LipWrinkleL" d="M151.5,153.18a2.15,2.15,0,0,0-2.89.87,4.29,4.29,0,0,0-.31,1.74l-.14,4.09a9,9,0,0,1-1.25-6c.19-1.29,1-2.76,2.28-2.77,1.12,0,1.94,1.08,2.32,2.13" style="fill:#d98867"/><path id="LipWrinkleR" d="M194.87,153.18a3.18,3.18,0,0,1,3.7.87,3.52,3.52,0,0,1,.39,1.74l.18,4.09a7.47,7.47,0,0,0,1.6-6,3.19,3.19,0,0,0-2.91-2.77,3.41,3.41,0,0,0-3,2.13" style="fill:#d98867"/><path id="ChinShadow" d="M171.68,189.37a32.73,32.73,0,0,0,7.13-.32,18,18,0,0,0,3.85-.75c.31-.11.6-.62.27-.67a21.18,21.18,0,0,1-5,5.3,7.18,7.18,0,0,1-7,.83,10.53,10.53,0,0,1-2.93-2.51c-.86-1-2.72-2.27-2.07-3.7C167.89,188.2,169.54,189.16,171.68,189.37Z" style="fill:#f7aa8b"/></g></svg>