<svg id="HeadSmallT" xmlns="http://www.w3.org/2000/svg" viewBox="0 0 351.36 310.46"><g id="MouthSmallT"><path id="Face" d="M113.76,112.08c.25,23.6,2.54,48.31,15.41,68.09,7.18,11,17.68,20.09,30.15,24.24s26.9,3,37.81-4.36a71.23,71.23,0,0,0,25.17-28.22c1.82-3.62,2.41-7.72,3.13-11.7,1.63-9.11,2.7-18.31,3.76-27.5,2-17.25,4-34.65,2.44-51.95-.67-7.35-2-14.75-5.15-21.43-6.32-13.45-19.62-22.87-34-26.53s-29.76-2-44,2.39c-11.55,3.6-23.25,9.72-28.76,20.48C111.64,71.44,113.57,94.89,113.76,112.08Z" style="fill:#f9be9d"/><path id="CheekShadowR" d="M217.72,68.77c2.47,9.94,3.21,20.22,3.84,30.45.23,3.87.45,7.81-.55,11.56-1.23,4.65-4.25,8.69-5.3,13.39-1,4.34-.18,8.85.51,13.25a264.81,264.81,0,0,1,2.87,29.35c3-5.32,6-10.69,7.73-16.52,1.62-5.31,2.19-10.87,2.75-16.39l3-29a94.66,94.66,0,0,0,.73-12.25A84.81,84.81,0,0,0,231.79,80c-1-5.47-2.2-11-4.79-16-1.91-3.72-5.81-9.28-10.2-10.34-1.76-.42-1.42-.51-1.72,1.31a15.34,15.34,0,0,0,.43,4.63C216,62.7,217,65.72,217.72,68.77Z" style="fill:#f7aa8b"/><path id="CheekShadowL" d="M126.77,69.33c-2.39,10-3.11,20.23-3.72,30.46-.22,3.86-.43,7.81.53,11.55,1.2,4.65,4.12,8.7,5.13,13.39.94,4.34.18,8.86-.48,13.25a267.52,267.52,0,0,0-2.79,29.36c-2.87-5.32-5.76-10.7-7.48-16.53-1.57-5.3-2.12-10.86-2.66-16.38l-2.86-29a98.5,98.5,0,0,1-.71-12.26,87.34,87.34,0,0,1,1.47-12.59c1-5.52,2.08-11.08,4.56-16.06,1.86-3.72,5.63-9.29,9.88-10.34,1.7-.43,1.37-.52,1.66,1.3a15.75,15.75,0,0,1-.41,4.64C128.39,63.26,127.5,66.28,126.77,69.33Z" style="fill:#f7aa8b"/><path id="CheekShineR" d="M198.68,197.34c-1.81,1.7-5.9,5.51-8.26,6.28,3-.22,6.68-3.36,9.05-5.17,10.56-8.06,19.72-18.26,24.68-31.81,1.26-3.44,2.37-13.16,2.67-16.39-1,.7-2.13,4.67-2.67,5.86-.73,1.62-2.18,5.31-3,6.89-1.58,3.12-2.43,4.88-4.18,7.9-4.11,7.08-5.81,10.68-10.05,16.68A66.83,66.83,0,0,1,198.68,197.34Z" style="fill:#ffd7c2"/><path id="CheekShineL" d="M148.85,197.34c2,1.7,6.49,5.51,9.08,6.28-3.26-.22-7.34-3.36-9.94-5.17-11.62-8.06-21.69-18.26-27.14-31.81-1.39-3.44-2.61-13.16-2.94-16.39,1.09.7,2.34,4.67,2.94,5.86.8,1.62,2.39,5.31,3.27,6.89,1.74,3.12,2.67,4.88,4.6,7.9,4.51,7.08,6.38,10.68,11.05,16.68A68.21,68.21,0,0,0,148.85,197.34Z" style="fill:#ffd7c2"/><path id="InsideMouth" d="M196.33,159.87s-10.55-.13-23.62,0c-16.19.15-21.84.5-21.84.5s3.9,12.19,10.18,14.14c5.84,1.81,16,1.94,23.62-.18C193.13,172,196.33,159.87,196.33,159.87Z" style="fill:#c47474"/><path id="Tongue" d="M179.79,172.65a7.92,7.92,0,0,0,4.35-2.24c1.17-1.2,2-3,1.29-4.55-.8-1.82-3.2-2.33-5.17-2s-3.84,1.21-5.83,1.22c-2.92,0-5.83-1.87-8.61-1a4.54,4.54,0,0,0-2.93,5.71,4.77,4.77,0,0,0,.43,1,6.63,6.63,0,0,0,2.21,2.1,17.77,17.77,0,0,0,10.16,2.23,8,8,0,0,0,2.65-.43,9.21,9.21,0,0,0,3.54-3.1" style="fill:#9e3838"/><path id="UpperTeeth" d="M154.44,161.4a42.19,42.19,0,0,0,7,.73c8.61.4,17.28.59,25.84.34a17.36,17.36,0,0,0,4.19-.46c1.17-.35,1.76-1.08.87-1.59l-26.62-.57c-2.21,0-4.41-.09-6.61-.18-1.39-.06-4.6-.15-6.23-.27C150.57,159.22,153.2,161.12,154.44,161.4Z" style="fill:#fff"/><path id="LowerTeeth" d="M153.59,167.23a18.16,18.16,0,0,0,7.3,1.82,130.65,130.65,0,0,0,26.08.48c1.55-.14,3.21.14,4.47-.83s3.43-4.43,2.54-5.76c-9.3-.33-19.1.24-28.4-.1-2.31-.08-4.62-.16-6.92-.37-1.45-.13-4.82-.29-6.51-.59C149.72,161.44,152.32,166.51,153.59,167.23Z" style="fill:#fff"/><path id="LowerLip" d="M148.24,159c8,2.86,11.52,6,18.87,9.52,5.34,2.53,8.16,1.47,13.69-.39,8.79-3,11.45-6.6,18.16-10.87-2,3.68-1.1,6.43-8,15.51-1.58,2.07-10.73,5.3-11.92,5.46a38.36,38.36,0,0,1-12.68-.83c-2.32-.49-7.38-3.37-9.87-5.49C152.32,168.39,150,163.38,148.24,159Z" style="fill:#f09a78"/><path id="UpperLip" d="M199,157.28c-4.65,5.57-15.79-2.07-16.82-2.14-4.22-.3-8,2.91-10.77,1.52-3.62-1.82-6.54-2-7.55-1.65-11.07,3.82-14,5.17-15.58,4-.13-.09,5.54,2.32,9.15,3.33s8.32-1.35,12-1.2c5.1.21,15.55,2.73,21,1C193,161.28,197.59,160.24,199,157.28Z" style="fill:#d98867"/><path id="LipWrinkleL" d="M151,158a2.17,2.17,0,0,0-2.9.88,4.28,4.28,0,0,0-.31,1.73l-.14,4.09a9,9,0,0,1-1.25-6c.19-1.29,1-2.76,2.28-2.78,1.12,0,1.94,1.08,2.33,2.14" style="fill:#d98867"/><path id="LipWrinkleR" d="M195.7,156.8a3.18,3.18,0,0,1,3.69.88,3.39,3.39,0,0,1,.39,1.74l.18,4.09a7.43,7.43,0,0,0,1.6-6,3.19,3.19,0,0,0-2.91-2.77,3.43,3.43,0,0,0-3,2.13" style="fill:#d98867"/><path id="ChinShadow" d="M171.68,183.57a32.73,32.73,0,0,0,7.13-.32,16.82,16.82,0,0,0,3.85-.75c.31-.11.6-.61.27-.66a21.18,21.18,0,0,1-5,5.3,7.24,7.24,0,0,1-7,.83,10.57,10.57,0,0,1-2.93-2.52c-.86-1-2.72-2.27-2.07-3.7C167.89,182.41,169.54,183.36,171.68,183.57Z" style="fill:#f7aa8b"/></g></svg>