<svg id="HeadF" xmlns="http://www.w3.org/2000/svg" viewBox="0 0 351.36 310.46"><g id="MouthF"><path id="Face" d="M113.76,112.08c.25,23.6,2.54,48.31,15.41,68.09,7.18,11,17.68,20.09,30.15,24.24s26.9,3,37.81-4.36a71.23,71.23,0,0,0,25.17-28.22c1.82-3.62,2.41-7.72,3.13-11.7,1.63-9.11,2.7-18.31,3.76-27.5,2-17.25,4-34.65,2.44-51.95-.67-7.35-2-14.75-5.15-21.43-6.32-13.45-19.62-22.87-34-26.53s-29.76-2-44,2.39c-11.55,3.6-23.25,9.72-28.76,20.48C111.64,71.44,113.57,94.89,113.76,112.08Z" style="fill:#f9be9d"/><path id="CheekShadowR" d="M217.72,68.77c2.47,9.94,3.21,20.22,3.84,30.45.23,3.87.45,7.81-.55,11.56-1.23,4.65-4.25,8.69-5.3,13.39-1,4.34-.18,8.85.51,13.25a264.81,264.81,0,0,1,2.87,29.35c3-5.32,6-10.69,7.73-16.52,1.62-5.31,2.19-10.87,2.75-16.39l3-29a94.66,94.66,0,0,0,.73-12.25A84.81,84.81,0,0,0,231.79,80c-1-5.47-2.2-11-4.79-16-1.91-3.72-5.81-9.28-10.2-10.34-1.76-.42-1.42-.51-1.72,1.31a15.34,15.34,0,0,0,.43,4.63C216,62.7,217,65.72,217.72,68.77Z" style="fill:#f7aa8b"/><path id="CheekShadowL" d="M126.77,69.33c-2.39,10-3.11,20.23-3.72,30.46-.22,3.86-.43,7.81.53,11.55,1.2,4.65,4.12,8.7,5.13,13.39.94,4.34.18,8.86-.48,13.25a267.52,267.52,0,0,0-2.79,29.36c-2.87-5.32-5.76-10.7-7.48-16.53-1.57-5.3-2.12-10.86-2.66-16.38l-2.86-29a98.5,98.5,0,0,1-.71-12.26,87.34,87.34,0,0,1,1.47-12.59c1-5.52,2.08-11.08,4.56-16.06,1.86-3.72,5.63-9.29,9.88-10.34,1.7-.43,1.37-.52,1.66,1.3a15.75,15.75,0,0,1-.41,4.64C128.39,63.26,127.5,66.28,126.77,69.33Z" style="fill:#f7aa8b"/><path id="CheekShineR" d="M198.68,197.34c-1.81,1.7-5.9,5.51-8.26,6.28,3-.22,6.68-3.36,9.05-5.17,10.56-8.06,19.72-18.26,24.68-31.81,1.26-3.44,2.37-13.16,2.67-16.39-1,.7-2.13,4.67-2.67,5.86-.73,1.62-2.18,5.31-3,6.89-1.58,3.12-2.43,4.88-4.18,7.9-4.11,7.08-5.81,10.68-10.05,16.68A66.83,66.83,0,0,1,198.68,197.34Z" style="fill:#ffd7c2"/><path id="CheekShineL" d="M148.85,197.34c2,1.7,6.49,5.51,9.08,6.28-3.26-.22-7.34-3.36-9.94-5.17-11.62-8.06-21.69-18.26-27.14-31.81-1.39-3.44-2.61-13.16-2.94-16.39,1.09.7,2.34,4.67,2.94,5.86.8,1.62,2.39,5.31,3.27,6.89,1.74,3.12,2.67,4.88,4.6,7.9,4.51,7.08,6.38,10.68,11.05,16.68A68.21,68.21,0,0,0,148.85,197.34Z" style="fill:#ffd7c2"/><path id="InsideMouth" d="M196.36,160.05S184,164,171,162.5c-15.35-1.75-20.51-4.38-20.51-4.38s2,9.62,8.3,11.57c5.84,1.81,16,1.94,23.62-.18C190.87,167.15,196.36,160.05,196.36,160.05Z" style="fill:#c47474"/><path id="Tongue" d="M179.79,172.65a7.92,7.92,0,0,0,4.35-2.24c1.17-1.2,2-3,1.29-4.55-.8-1.82-3.2-2.33-5.17-2s-3.84,1.21-5.83,1.22c-2.92,0-5.83-1.87-8.61-1a4.54,4.54,0,0,0-2.93,5.71,4.77,4.77,0,0,0,.43,1,6.63,6.63,0,0,0,2.21,2.1,17.77,17.77,0,0,0,10.16,2.23,8,8,0,0,0,2.65-.43,9.21,9.21,0,0,0,3.54-3.1" style="fill:#9e3838"/><path id="UpperTeeth" d="M155,161.81c2.2,1.08,3.62,3.26,6,4,7.92,2.53,16.82,2,25.55-2.08a15.25,15.25,0,0,0,3.28-2.54c1.18-.95,1.7-.52.78-1.72-9,.07-15.78-.23-24.81-.16-2.24,0-4.49,0-6.73-.07-1.41-.06-5-.89-6.62-1.1C150.05,157.83,153.75,161.19,155,161.81Z" style="fill:#fff"/><path id="LowerTeeth" d="M157.91,167.49a13.13,13.13,0,0,0,6.34,1.86c7.82.82,14.84,1.16,22.67.08,1.35-.18,2.79.1,3.88-1s3-4.9,2.22-6.34c-8.09-.2-16.61.59-24.69.38-2-.05-4-.1-6-.29-1.26-.11-4.18-.23-5.65-.54C154.55,161.23,156.8,166.72,157.91,167.49Z" style="fill:#fff"/><path id="LowerLip" d="M148.87,156.91c10.29,3.81,12.33,6.41,16.21,7.08,5.48.95,7,.61,15.18-.14,2.66-.24,12.76-1.74,17.75-5.68-2,3.69-.23,3.27-7.13,12.36-1.57,2.07-10.73,5.3-11.92,5.45a37.83,37.83,0,0,1-12.68-.83c-2.32-.48-7.38-3.37-9.87-5.49C152.24,166.12,150.65,161.27,148.87,156.91Z" style="fill:#f09a78"/><path id="UpperLip" d="M198,158.17c-4.65,5.57-16-3.67-17-3.74-4.22-.3-6.5,1.66-9.62,1.23s-5.54-1.34-6.54-1c-11.08,3.82-14.42,3.41-16,2.25-.13-.09,7.32,4,10.94,5s6.71-3,13-2.59c7.93.53,9,3.41,14,3.41C190.14,162.73,196.63,161.13,198,158.17Z" style="fill:#d98867"/><path id="LipWrinkleL" d="M151.94,156.52a2.16,2.16,0,0,0-2.89.88,4.12,4.12,0,0,0-.31,1.73l-.14,4.09a9,9,0,0,1-1.25-6c.19-1.29,1-2.77,2.28-2.78,1.12,0,1.93,1.08,2.32,2.13" style="fill:#d98867"/><path id="LipWrinkleR" d="M193.4,158.61a3.17,3.17,0,0,1,3.69.87,3.3,3.3,0,0,1,.39,1.74l.18,4.09a7.36,7.36,0,0,0,1.6-6,3.19,3.19,0,0,0-2.91-2.78,3.43,3.43,0,0,0-3,2.13" style="fill:#d98867"/><path id="ChinShadow" d="M171.68,183.57a32.73,32.73,0,0,0,7.13-.32,16.82,16.82,0,0,0,3.85-.75c.31-.11.6-.61.27-.66a21.18,21.18,0,0,1-5,5.3,7.24,7.24,0,0,1-7,.83,10.57,10.57,0,0,1-2.93-2.52c-.86-1-2.72-2.27-2.07-3.7C167.89,182.41,169.54,183.36,171.68,183.57Z" style="fill:#f7aa8b"/></g></svg>